<svg width="200" height="200" viewBox="0 0 200 200" fill="none" xmlns="http://www.w3.org/2000/svg">
<path d="M167.036 116.87C167.318 116.94 168.236 117.01 168.169 116.515C168.098 116.232 167.669 116.015 167.461 115.878C166.39 115.078 165.635 115.327 163.494 113.186C163.438 113.12 163.358 113.079 163.271 113.071C163.184 113.064 163.098 113.092 163.032 113.148C162.966 113.204 162.924 113.285 162.917 113.371C162.91 113.458 162.938 113.544 162.994 113.61C163.706 114.599 165.477 116.656 167.036 116.87Z" fill="#27272A"/>
<path d="M167.248 113.754C166.339 113.356 165.52 112.777 164.84 112.054C164.627 111.842 164.131 112.125 164.34 112.409C164.979 113.356 165.86 114.113 166.891 114.604C167.528 114.888 169.512 115.809 170.078 115.029C170.575 114.373 167.665 113.893 167.248 113.754Z" fill="#27272A"/>
<path d="M170.081 112.266C169.302 111.558 168.169 111.345 167.39 110.708C165.94 109.5 166.637 107.248 164.981 105.041C164.415 104.261 163.565 103.27 162.572 103.199C162.524 103.205 162.477 103.221 162.436 103.247C162.395 103.272 162.359 103.306 162.332 103.347C162.306 103.387 162.288 103.433 162.281 103.481C162.273 103.529 162.276 103.579 162.29 103.625C162.608 104.014 162.963 104.37 163.352 104.687C164.372 105.852 165.058 107.272 165.336 108.795C165.952 111.672 167.683 111.845 169.656 112.695C170.01 112.9 170.364 112.479 170.081 112.266Z" fill="#27272A"/>
<path d="M137.71 34.2074C138.21 33.9934 138.773 33.7824 139.339 33.5694C139.623 33.4284 139.552 33.0034 139.198 33.0694C134.452 33.9894 130.768 37.6694 128.36 41.7104C125.684 46.5924 124.159 52.0211 123.9 57.5824C123.056 67.9294 124.076 78.5424 125.742 88.7494C126.877 94.9934 127.898 100.68 130.488 106.316C131.563 108.803 133.101 111.063 135.021 112.974C135.521 113.4 136.013 113.754 136.509 114.108C136.651 114.178 136.792 113.966 136.721 113.824C133.622 110.543 131.32 106.593 129.992 102.279C130.134 102.633 134.455 100.154 134.88 99.9414C135.73 99.4414 135.73 99.0204 135.517 98.0284C135.162 97.2352 134.9 96.4033 134.738 95.5494C135.485 95.2056 136.104 94.6357 136.509 93.9204C138.012 91.6415 138.686 88.9161 138.421 86.1994C138.351 85.6994 138.351 84.9244 137.921 84.5704C137.779 84.4994 137.637 84.4994 137.566 84.6414C137.066 85.4204 137.496 87.1204 137.425 87.9704C137.387 89.3201 137.079 90.6485 136.52 91.8773C135.96 93.106 135.16 94.2101 134.166 95.1244C134.025 95.1954 134.025 95.3374 134.096 95.4784C134.191 96.6913 134.356 97.8976 134.591 99.0914C134.45 99.1624 129.704 101.428 129.633 101.499C129.434 100.943 129.267 100.375 129.133 99.7994C127.536 93.6286 126.356 87.3575 125.6 81.0284C124.715 74.2669 124.43 67.4402 124.75 60.6284C125.034 54.9614 125.742 49.3654 128.221 44.1944C130.2 39.8744 133.313 36.1074 137.71 34.2074Z" fill="#27272A"/>
<path d="M135.939 107.801C136.439 108.58 136.506 109.501 136.931 110.281C137.063 110.637 137.313 110.937 137.639 111.131C137.993 111.343 138.702 111.272 138.348 110.631C138.16 110.308 137.947 110 137.71 109.71C137.351 109.11 137.115 107.16 135.868 106.594C135.7 106.5 135.512 106.446 135.32 106.435C135.127 106.425 134.935 106.459 134.757 106.534C134.58 106.609 134.422 106.723 134.295 106.868C134.169 107.014 134.077 107.186 134.027 107.372C133.498 108.959 135.084 110.954 136.152 112.261C136.506 112.685 136.506 112.047 136.506 111.977C136.506 111.907 135.514 110.49 135.231 109.922C135 109.444 134.81 108.946 134.664 108.435C134.512 107.835 135.071 106.501 135.939 107.801Z" fill="#27272A"/>
<path d="M125.385 23.3703C125.172 23.2283 124.96 23.5123 125.102 23.7243C125.609 24.2323 129.608 28.3243 130.202 28.3243C130.626 28.3243 131.402 27.1913 131.619 26.8373C131.652 26.7814 131.673 26.7197 131.682 26.6556C131.691 26.5915 131.688 26.5262 131.671 26.4635C131.655 26.4008 131.627 26.342 131.588 26.2903C131.549 26.2386 131.5 26.1951 131.444 26.1623C131.388 26.1294 131.326 26.1079 131.262 26.0989C131.198 26.09 131.133 26.0937 131.07 26.11C131.008 26.1262 130.949 26.1547 130.897 26.1937C130.845 26.2327 130.802 26.2814 130.769 26.3373C130.626 26.5503 130.269 27.1163 130.202 27.1873C130.2 27.1243 125.668 23.5123 125.385 23.3703Z" fill="#27272A"/>
<path d="M136.009 24.9272C135.952 24.8779 135.884 24.8422 135.811 24.8224C135.738 24.8026 135.661 24.7994 135.587 24.8129C135.512 24.8264 135.442 24.8563 135.38 24.9004C135.319 24.9446 135.268 25.0019 135.231 25.0682C134.736 25.7454 134.332 26.4852 134.031 27.2682C133.888 27.5512 133.606 28.1182 133.747 28.4012C133.818 28.6142 134.247 28.7562 134.385 28.4722C134.668 27.9062 135.022 27.3392 135.305 26.8432C135.609 26.2272 136.629 25.3902 136.009 24.9272Z" fill="#27272A"/>
<path d="M181.911 76.0009C186.78 69.9009 181.647 55.2479 178.511 48.0919C176.078 42.5079 172.643 36.4349 168.169 32.2249C164.464 28.9091 159.683 27.0474 154.711 26.9839C154.162 26.9896 153.614 27.0323 153.071 27.1119C153.004 26.7916 152.873 26.4878 152.688 26.2183C152.502 25.9487 152.264 25.7188 151.989 25.5419C151.732 25.4383 151.45 25.4122 151.179 25.467C150.907 25.5217 150.658 25.6548 150.461 25.8499C149.853 26.3162 149.285 26.8312 148.761 27.3899C148.58 27.2969 146.761 25.1319 145.215 23.5839C144.105 22.5115 142.921 21.5175 141.673 20.6089C141.98 20.1029 142.166 19.5324 142.215 18.9424C142.265 18.3524 142.176 17.7589 141.957 17.2089C141.533 16.2178 140.877 15.3432 140.044 14.6589C139.194 13.8089 133.173 9.62893 130.836 9.27493C129.735 9.08389 128.607 9.12384 127.522 9.39222C126.438 9.6606 125.421 10.1516 124.536 10.8339C122.783 12.2423 121.316 13.9735 120.215 15.9339C116.869 21.5159 118.378 19.0149 116.177 22.0959C115.61 22.8749 115.115 24.0089 115.823 24.8589C116.531 25.7799 117.877 25.6379 118.87 25.2129C119.745 24.7863 120.556 24.2378 121.277 23.5839C121.631 24.0089 127.016 28.6129 128.361 29.5339C130.77 31.3049 134.099 32.7209 136.861 30.8089C137.482 30.2752 138.073 29.7077 138.632 29.1089C141.677 30.5249 142.532 34.3499 143.023 34.8459C143.166 34.9879 143.378 34.9169 143.378 34.7749C143.59 34.1379 142.527 30.2419 138.986 28.6129C139.296 28.2174 139.514 27.7575 139.624 27.2669C139.645 27.1692 139.634 27.0673 139.592 26.9764C139.551 26.8855 139.481 26.8106 139.393 26.7627C139.305 26.7149 139.204 26.6968 139.105 26.711C139.006 26.7253 138.915 26.7712 138.844 26.8419C138.457 27.3233 138.125 27.8458 137.853 28.3999C137.486 28.9215 137.058 29.3972 136.578 29.8169C136.049 30.2176 135.438 30.4954 134.788 30.6301C134.139 30.7649 133.467 30.7532 132.823 30.5959C131.423 30.2494 130.117 29.596 129 28.6829C127.8 27.8329 122.412 23.5119 121.916 23.1579C122.058 23.0159 124.253 20.8909 125.104 19.8279C125.812 18.9779 126.521 17.7739 127.583 17.4199C128.574 17.0659 131.483 18.1279 131.691 17.6329C131.914 17.1396 132.316 16.7488 132.815 16.5386C133.314 16.3283 133.874 16.3142 134.383 16.4989C134.649 16.6021 134.889 16.7633 135.085 16.9709C135.282 17.1785 135.429 17.4272 135.517 17.6989C135.607 18.4321 135.403 19.1712 134.949 19.7539C134.808 19.9659 138.774 22.8699 140.616 21.8079C140.845 21.6641 141.059 21.4965 141.253 21.3079C142.312 22.3609 144.48 23.9869 146.566 26.3369C147.09 26.8804 147.582 27.4544 148.038 28.0559C147.438 28.7949 146.331 30.5169 145.277 32.1909C143.712 34.6799 142.94 35.9909 142.483 36.7249C141.164 38.8419 140.041 37.9869 140.092 36.2329C140.126 35.2073 140.378 34.2006 140.829 33.2789C140.899 33.0659 140.616 32.9249 140.545 33.0659C139.886 34.1238 139.489 35.3238 139.388 36.5659C139.405 38.0789 140.578 38.9089 141.608 38.4519C142.316 38.1689 142.67 37.4599 143.095 36.8229C145.695 32.6619 147.044 29.9399 150.533 26.8349C151.947 25.6589 152.114 26.2049 152.294 27.4349C152.346 27.7859 152.467 28.0769 152.941 28.0349C153.72 27.9639 154.429 27.8229 155.209 27.8229C158.562 27.9461 161.828 28.9211 164.7 30.6559C170.3 34.0559 173.837 40.1479 176.6 45.9559C179.05 50.971 180.929 56.2458 182.2 61.6809C183.09 65.6869 184.023 72.1179 181.491 75.3519C181.247 75.7145 180.962 76.0474 180.641 76.3439C180.603 76.3716 180.571 76.4066 180.546 76.447C180.522 76.4873 180.506 76.5322 180.499 76.5789C180.493 76.6255 180.496 76.673 180.508 76.7186C180.52 76.7641 180.541 76.8068 180.57 76.8439C180.713 77.7649 181.491 81.5189 181.563 81.7319C180.544 82.2399 169.504 86.3409 168.033 86.8319C167.922 86.8648 167.823 86.929 167.748 87.0168C167.673 87.1047 167.624 87.2123 167.609 87.3269C167.76 89.1323 167.515 90.9489 166.891 92.6496C166.266 94.3503 165.278 95.8941 163.995 97.1729C163.915 97.2569 163.865 97.3647 163.852 97.48C163.839 97.5952 163.864 97.7115 163.924 97.8109C164.335 98.6195 164.645 99.4761 164.845 100.361C165.058 101.211 165.345 102.273 164.345 102.769C163.85 102.982 164.133 103.761 164.629 103.761C165.691 103.832 166.258 105.036 166.47 105.961C166.636 107.082 166.945 108.177 167.391 109.219C168.029 110.353 169.162 110.707 170.225 111.203C170.725 111.415 172.209 112.403 171.358 113.044C171.216 113.186 171.004 113.186 170.858 113.328C170.292 113.753 171.425 115.594 169.796 115.528C169.713 115.533 169.632 115.556 169.559 115.597C169.486 115.638 169.423 115.694 169.375 115.762C169.327 115.83 169.295 115.908 169.281 115.99C169.268 116.073 169.273 116.157 169.296 116.237C169.437 117.016 168.021 117.583 167.596 117.795C166.957 118.078 166.461 118.078 166.391 118.787C165.966 124.17 167.453 130.12 168.232 135.433C170.075 147.758 176.662 173.471 176.804 174.033C180.204 175.308 186.367 173.82 187.075 172.333C187.864 161.83 187.65 151.275 186.437 140.812C185.937 136.491 184.878 132.454 185.304 128.133C186.578 113.612 185.87 99.0199 181.974 84.8529C181.762 84.2159 181.62 83.5069 181.408 82.8699C181.691 82.7279 182.045 82.5869 182.328 82.4449C182.387 82.4104 182.438 82.3639 182.477 82.3084C182.517 82.2529 182.544 82.1897 182.558 82.1229C182.571 82.0561 182.57 81.9872 182.555 81.9207C182.54 81.8542 182.512 81.7916 182.471 81.7369C182.471 81.3819 181.408 77.6989 181.195 76.8489C181.372 76.5192 181.616 76.2303 181.911 76.0009Z" fill="#27272A"/>
<path d="M160.519 184.87C162.594 183.245 163.019 178.52 160.447 175.308C160.093 174.882 159.385 175.449 159.669 175.945C160.481 177.12 160.969 178.488 161.085 179.912C161.252 181.3 160.871 182.7 160.023 183.812C158.96 184.874 157.26 184.661 155.915 184.312C151.889 183.397 151.064 183.842 146.706 184.879C145.249 185.374 143.696 185.519 142.173 185.304C141.849 185.258 141.542 185.13 141.281 184.932C141.02 184.733 140.815 184.471 140.685 184.171C140.473 183.534 140.898 183.037 141.394 182.683C145.322 180.326 152.5 178.283 151.947 174.608C151.934 174.562 151.906 174.522 151.867 174.493C151.829 174.465 151.783 174.449 151.735 174.449C151.687 174.449 151.641 174.465 151.603 174.493C151.564 174.522 151.536 174.562 151.523 174.608C150.654 177.357 147.832 178.223 144.439 179.921C143.589 180.346 142.81 180.77 141.96 181.196C141.212 181.467 140.534 181.902 139.977 182.471C139.792 182.752 139.67 183.07 139.62 183.403C139.57 183.736 139.593 184.076 139.687 184.4C139.781 184.723 139.945 185.022 140.166 185.276C140.387 185.53 140.661 185.733 140.968 185.871C144.168 187.471 149.704 184.222 153.223 184.809C154.111 184.922 154.987 185.112 155.843 185.375C157.473 185.791 159.248 185.866 160.519 184.87Z" fill="#27272A"/>
<path d="M186.09 184.73C186.65 184.234 187.069 183.6 187.305 182.891C187.542 182.182 187.587 181.424 187.436 180.692C187.137 178.849 186.638 177.044 185.948 175.309C185.936 175.251 185.913 175.195 185.879 175.147C185.846 175.098 185.803 175.056 185.753 175.025C185.703 174.993 185.647 174.972 185.588 174.963C185.53 174.953 185.47 174.956 185.412 174.97C185.355 174.984 185.301 175.01 185.254 175.046C185.207 175.082 185.167 175.127 185.138 175.178C185.109 175.23 185.09 175.287 185.083 175.345C185.077 175.404 185.082 175.464 185.099 175.521C185.427 177.939 187.359 181.711 185.877 183.595C185.027 184.658 183.328 184.73 182.052 185.084C180.436 185.52 178.85 186.064 177.307 186.713C174.515 187.913 171.042 189.974 168.381 188.908C166.981 188.285 167.313 186.719 168.381 185.65C169.206 184.825 171.314 183.264 172.135 182.533C175.58 179.718 175.691 179.693 176.315 178.991C177.307 178 178.298 176.654 177.944 175.167C177.931 175.12 177.903 175.08 177.865 175.051C177.826 175.022 177.779 175.006 177.731 175.006C177.683 175.006 177.637 175.022 177.598 175.051C177.56 175.08 177.532 175.12 177.519 175.167C177.401 175.888 177.132 176.577 176.729 177.188C176.327 177.798 175.799 178.316 175.182 178.709C173.182 180.493 168.143 184.056 167.106 185.438C166.629 185.984 166.378 186.691 166.404 187.416C166.43 188.14 166.732 188.828 167.248 189.338C168.453 190.329 170.435 190.259 171.848 189.904C174.921 189.264 176.773 187.528 181.694 186.15C183.115 185.792 184.831 185.673 186.09 184.73Z" fill="#27272A"/>
<path d="M162.786 116.374C163.522 117.025 164.359 117.552 165.265 117.932C165.406 118.003 165.619 117.79 165.477 117.649C164.163 116.612 162.934 115.471 161.804 114.236C159.278 111.638 157.299 108.559 155.985 105.182C155.915 105.04 155.915 104.969 155.843 104.828C156.943 104.828 161.19 103.102 162.743 102.282C163.101 102.092 164.112 101.508 164.105 101.102C163.99 100.353 163.761 99.6269 163.425 98.948C163.143 98.311 162.859 97.673 162.647 97.036C166.967 93.423 167.039 86.907 166.825 81.736C166.349 74.9701 166.658 68.1718 167.747 61.477C168.101 59.565 168.455 57.6521 168.947 55.739C169.519 53.8289 169.992 51.8903 170.363 49.931C170.435 49.577 169.939 49.294 169.797 49.648C169.094 51.2262 168.525 52.8611 168.097 54.535C161.92 79.203 170.039 87.657 162.076 96.682C162.051 96.704 162.03 96.7312 162.016 96.7617C162.002 96.7923 161.995 96.8255 161.995 96.859C161.995 96.8926 162.002 96.9258 162.016 96.9564C162.03 96.9869 162.051 97.0141 162.076 97.036C162.313 98.3409 162.668 99.6212 163.139 100.861C160.685 102.156 158.095 103.177 155.418 103.906C150.364 90.587 145.24 66.848 147.838 49.577C148.224 46.8087 148.864 44.0818 149.751 41.431C150.64 38.7785 151.829 36.2358 153.293 33.852L154.355 32.364C154.567 32.152 154.143 31.864 153.93 32.081C152.092 34.0825 150.65 36.4139 149.68 38.952C143.812 53.035 145.98 72.274 149.467 87.19C149.893 88.89 150.317 90.59 150.743 92.361C149.343 91.895 145.323 92.488 143.872 92.786C143.56 91.1727 143.452 89.5264 143.551 87.886C143.551 87.786 143.545 86.769 143.092 86.477C140.892 85.062 138.492 83.785 136.859 81.66C135.088 79.322 134.734 76.347 134.238 73.514C133.247 67.422 132.609 61.26 132.113 55.097C131.733 51.9718 131.925 48.8035 132.68 45.747C132.696 45.7008 132.693 45.6503 132.673 45.6059C132.652 45.5616 132.615 45.5267 132.57 45.5086C132.525 45.4904 132.474 45.4902 132.429 45.5082C132.383 45.5261 132.347 45.5608 132.326 45.605C131.096 47.929 131.068 51.267 131.192 53.893C131.39 60.2074 132.006 66.5018 133.034 72.735C133.534 75.635 133.884 78.897 135.513 81.447C137.143 84.068 139.904 85.697 142.597 87.047C142.835 88.477 142.381 91.756 142.951 93.347C142.988 93.4506 143.055 93.5403 143.145 93.6038C143.234 93.6674 143.341 93.7017 143.451 93.702H143.664C143.664 97.11 145.954 125.05 146.285 128.481C146.923 135.635 150.748 168.36 151.102 171.973C153.227 174.24 159.102 173.673 160.381 172.328C161.32 163.269 162.311 153.828 161.581 142.228C161.369 139.253 160.447 136.49 160.165 133.586C159.881 130.611 161.582 126.857 161.936 123.886C162.608 118.234 162.786 116.642 162.786 116.374Z" fill="#27272A"/>
<path d="M42.084 173.111C43.23 177.925 44.138 183.241 47.042 187.35C50.371 192.095 55.967 194.362 61.563 194.928C64.751 195.212 67.863 194.574 70.984 194.079C92.201 190.811 100.718 188.764 137.498 181.824C138.206 181.683 137.923 180.624 137.214 180.762C122.481 183.382 78.776 191.741 71.48 192.874C68.293 193.374 65.034 194.079 61.78 193.795C58.8153 193.563 55.9262 192.744 53.28 191.387C50.7279 190.026 48.5966 187.993 47.117 185.507C45.9099 183.276 45.0047 180.894 44.425 178.424C44.142 177.291 16.942 59.5644 16.233 56.3774C13.013 41.6554 10.133 29.8914 22.396 21.3854C22.622 21.2278 22.8586 21.0858 23.104 20.9604C16.521 29.3724 22.281 43.3074 24.167 52.0604C25.867 60.2064 51.65 171.56 52.43 174.745C53.21 177.93 54.484 181.403 57.105 183.528C60.292 186.078 64.684 186.716 68.651 186.428C75.673 185.809 91.903 182.868 97.905 181.753C116.822 178.191 130.438 174.889 140.905 172.475C141.046 172.438 141.166 172.346 141.239 172.219C141.312 172.093 141.332 171.943 141.294 171.802C141.257 171.661 141.165 171.541 141.038 171.468C140.912 171.395 140.762 171.375 140.621 171.412C121.709 175.874 102.654 180.053 83.458 183.17C78.641 183.949 73.825 184.799 69.008 185.295C64.97 185.649 60.224 185.012 57.249 182.037C53.876 178.664 53.672 173.77 51.866 166.808C50.449 161.141 23.745 45.4684 22.824 41.7144C20.982 34.2064 19.424 24.2144 26.649 19.1144C30.97 15.9974 36.495 14.8644 41.666 13.8724C53.323 11.6444 92.388 6.91743 101.592 6.22243C109.537 5.59943 112.821 7.14943 115.121 17.6224C115.133 17.6711 115.155 17.7169 115.185 17.757C115.215 17.797 115.253 17.8305 115.297 17.8554C115.34 17.8804 115.388 17.8962 115.438 17.9019C115.488 17.9076 115.538 17.9031 115.586 17.8888C115.635 17.8744 115.679 17.8504 115.718 17.8182C115.756 17.786 115.788 17.7464 115.81 17.7016C115.833 17.6569 115.846 17.608 115.85 17.5579C115.853 17.5079 115.846 17.4577 115.829 17.4104C115.329 14.2934 114.554 10.8934 112.5 8.34343C108.9 3.88843 103.269 4.97243 97.625 5.51043C79.131 7.33543 57.084 10.2374 48.253 11.6724C41.461 12.7644 32.774 13.8724 27.003 17.4814C17.33 22.1384 13.403 28.4504 12.624 35.4734C11.847 43.1154 14.335 51.3734 16.449 62.1064C17.646 67.9234 40.683 167.228 42.084 173.111Z" fill="#27272A"/>
<path d="M69.851 109.717C69.8816 109.818 69.9363 109.909 70.0104 109.983C70.0845 110.057 70.1758 110.112 70.276 110.142C71.126 110.425 78.422 106.387 80.901 101.642C88.976 101.429 100.101 97.4634 106.189 92.7174C114.264 86.3424 116.743 74.5834 110.789 65.8714C105.831 58.5714 96.197 56.5214 87.91 56.7334C86.9145 56.7336 85.9204 56.8048 84.935 56.9464C77.78 57.5834 70.555 59.4254 64.676 63.5334C54.976 70.2624 50.8 82.8014 57.455 93.4254C61.988 100.58 70.913 102.137 71.197 102.209C71.409 102.209 69.568 109.009 69.851 109.717ZM89.614 67.1464C91.101 66.1544 92.872 66.4374 92.943 68.4924C92.943 69.6924 87.33 78.6324 86.993 79.0464C87.493 79.3294 100.876 88.6794 96.414 88.6094C95.7798 88.5772 95.1562 88.4334 94.572 88.1844C93.793 87.9014 84.98 83.0014 84.655 82.8014C83.731 83.7264 80.555 91.8544 77.218 92.0104C75.376 92.0804 75.73 89.7434 76.155 88.7514C76.439 88.1854 80.844 80.7094 80.972 80.5344C80.901 80.4644 73.818 76.2144 71.055 73.5224C70.9001 73.3548 70.7949 73.1474 70.7514 72.9233C70.7079 72.6993 70.7277 72.4676 70.8086 72.2542C70.8895 72.0408 71.0284 71.8542 71.2095 71.7154C71.3907 71.5766 71.6069 71.491 71.834 71.4684C72.259 71.4684 82.709 76.5984 83.239 76.8514C84.868 73.9464 89.118 67.4294 89.614 67.1464Z" fill="#FFEFD9"/>
<path d="M130.839 150.298C133.672 149.731 139.765 148.74 139.765 148.456C139.575 146.577 139.291 144.708 138.914 142.856C138.56 140.873 134.387 120.825 133.956 118.914C133.856 118.463 133.37 118.386 133.413 119.066C133.626 120.766 135.013 128.052 135.372 130.035C136.152 134.144 138.52 147.052 138.802 147.835C136.408 148.111 134.033 148.532 131.689 149.094C129.14 149.594 64.605 161.334 58.514 162.751C57.669 157.2 30.384 46.8513 28.909 40.2223C28.2 37.1793 27 32.9983 29.971 30.7343C32.45 28.8933 47.892 26.6253 52.355 25.8463C70.773 22.8243 79.299 22.1693 102.647 18.8333C105.126 18.5503 108.526 18.3333 110.297 20.5333C110.783 21.2633 111.12 22.0819 111.289 22.9423C112.422 26.5543 113.272 30.3093 114.122 33.9923C116.176 42.6343 120.497 61.8303 120.64 62.7513C120.71 63.1053 121.206 62.9633 121.14 62.6093C120.077 55.1013 118.377 47.6643 116.677 40.2963C115.458 35.0963 114.094 28.8123 112.215 22.2333C111.964 21.1793 111.453 20.2052 110.728 19.4003C108.744 17.4173 105.628 17.4173 103.006 17.7003C100.031 18.0543 48.322 25.3513 39.255 27.0503C36.209 27.6173 32.668 27.7593 29.905 29.4593C28.6216 30.2078 27.6812 31.4277 27.284 32.8593C26.954 34.4746 26.9782 36.1423 27.355 37.7473C29.361 48.3453 57 159.931 57.738 163.619C57.809 163.832 57.951 163.832 58.092 163.76C68.957 162.111 130.729 150.324 130.839 150.298Z" fill="#27272A"/>
<path d="M106.9 157.528C105.812 157.7 104.776 158.114 103.868 158.739C102.961 159.364 102.206 160.185 101.658 161.141C99.321 165.461 101.021 173.253 106.688 173.961C110.229 174.386 113.559 171.695 114.763 168.436C116.672 163.266 112.925 156.651 106.9 157.528Z" fill="#27272A"/>
<path d="M120.072 37.4637C121.337 43.3767 121.394 44.4957 122.056 46.3887C122.07 46.4307 122.099 46.466 122.137 46.4882C122.176 46.5103 122.221 46.5177 122.264 46.509C122.308 46.5003 122.346 46.4761 122.373 46.4409C122.4 46.4057 122.413 46.3619 122.41 46.3177C122.408 44.7969 122.266 43.2794 121.985 41.7847C121.285 38.1007 120.026 32.0007 118.585 28.3967C118.552 28.3087 118.487 28.2365 118.402 28.1948C118.318 28.153 118.221 28.1449 118.131 28.1719C118.041 28.199 117.964 28.2593 117.917 28.3405C117.87 28.4218 117.855 28.518 117.876 28.6097C118.333 30.9987 119.127 33.0477 120.072 37.4637Z" fill="#27272A"/>
<path d="M145.218 154.701C145.29 154.984 145.856 154.984 145.856 154.63C145.218 149.884 144.156 145.138 143.235 140.392C142.314 135.646 139.2 119.35 138.915 118.001C138.899 117.95 138.866 117.908 138.821 117.88C138.777 117.853 138.723 117.842 138.672 117.851C138.62 117.859 138.573 117.886 138.539 117.926C138.506 117.967 138.488 118.018 138.489 118.071C138.773 120.48 139.056 122.888 139.41 125.297C140.338 131.426 143.361 148.443 145.218 154.701Z" fill="#27272A"/>
<path d="M93.793 30.1695C94.501 30.5235 94.501 29.3195 94.43 28.9695C94.218 27.9065 94.076 26.8445 93.864 25.8525C93.8369 24.9438 93.6196 24.0509 93.226 23.2315C93.014 22.9485 92.518 22.9485 92.447 23.3025C92.234 24.0775 93.226 29.9575 93.793 30.1695Z" fill="#FFEFD9"/>
<path d="M91.6 25.0701C91.5728 24.9827 91.5164 24.9073 91.4403 24.8564C91.3642 24.8056 91.273 24.7824 91.1818 24.7907C91.0907 24.799 91.0052 24.8383 90.9395 24.9021C90.8738 24.9659 90.832 25.0502 90.821 25.1411C90.8573 26.4256 90.9994 27.7049 91.246 28.9661C91.317 29.3911 91.317 30.1661 91.746 30.3121C92.596 30.7371 92.454 29.4621 92.383 29.0371C92.273 27.6894 92.0103 26.3585 91.6 25.0701Z" fill="#FFEFD9"/>
<path d="M90.1801 30.5952C91.2431 30.2412 89.8261 27.2662 89.6141 26.6292C89.3571 26.1152 88.8791 26.4072 88.9761 26.6992C89.0471 27.3372 89.1181 30.9492 90.1801 30.5952Z" fill="#FFEFD9"/>
<path d="M87.843 30.665C88.834 30.523 88.055 28.682 87.914 28.186C87.8772 28.0828 87.8094 27.9934 87.72 27.93C87.6305 27.8667 87.5237 27.8325 87.414 27.832C86.623 27.92 87.049 30.665 87.843 30.665Z" fill="#FFEFD9"/>
<path d="M79.2 31.4423C79.1377 31.3807 79.0629 31.3332 78.9806 31.303C78.8984 31.2728 78.8106 31.2607 78.7233 31.2674C78.6359 31.2742 78.551 31.2996 78.4744 31.342C78.3977 31.3845 78.3311 31.4429 78.279 31.5133C78.214 31.5919 78.1687 31.6849 78.147 31.7845C78.1252 31.8841 78.1275 31.9875 78.1538 32.086C78.1801 32.1845 78.2295 32.2753 78.298 32.3509C78.3664 32.4264 78.452 32.4846 78.5474 32.5204C78.6429 32.5562 78.7455 32.5687 78.8468 32.5568C78.9481 32.5449 79.045 32.509 79.1296 32.452C79.2142 32.3951 79.284 32.3188 79.3331 32.2294C79.3822 32.14 79.4092 32.0402 79.412 31.9383C79.4222 31.8444 79.4081 31.7494 79.3709 31.6625C79.3338 31.5757 79.2749 31.4998 79.2 31.4423Z" fill="#FFEFD9"/>
<path d="M79.7 30.3096C79.983 30.5216 80.337 30.8096 80.692 30.4516C80.7939 30.3474 80.851 30.2074 80.851 30.0616C80.851 29.9159 80.7939 29.7759 80.692 29.6716C78.75 27.5156 75.908 30.2526 76.654 31.3716C76.6831 31.418 76.7221 31.4572 76.7682 31.4866C76.8144 31.516 76.8664 31.5348 76.9207 31.5416C76.975 31.5484 77.0301 31.543 77.082 31.5259C77.134 31.5088 77.1814 31.4804 77.221 31.4426C77.3564 31.3028 77.4538 31.1307 77.504 30.9426C77.5766 30.7303 77.6993 30.5387 77.8617 30.384C78.0241 30.2292 78.2215 30.116 78.4371 30.0538C78.6526 29.9917 78.88 29.9825 79.0999 30.0271C79.3198 30.0716 79.5256 30.1685 79.7 30.3096Z" fill="#FFEFD9"/>
<path d="M81.539 28.9633C81.6059 29.0258 81.6899 29.0672 81.7803 29.082C81.8707 29.0968 81.9634 29.0845 82.0468 29.0466C82.1302 29.0087 82.2005 28.9469 82.2488 28.8691C82.2971 28.7912 82.3212 28.7008 82.318 28.6093C82.418 27.3463 80.129 25.4303 77.718 25.7753C76.7354 25.955 75.8454 26.4698 75.1996 27.2319C74.5538 27.9941 74.1921 28.9564 74.176 29.9553C74.1864 30.0984 74.2507 30.2323 74.3557 30.33C74.4608 30.4277 74.599 30.482 74.7425 30.482C74.886 30.482 75.0242 30.4277 75.1293 30.33C75.2344 30.2323 75.2986 30.0984 75.309 29.9553C75.3139 29.2116 75.5786 28.4931 76.0572 27.9239C76.5358 27.3547 77.1983 26.9707 77.93 26.8383C80.226 26.6083 81.1 28.5213 81.539 28.9633Z" fill="#FFEFD9"/>
<path d="M32.592 34.6314C31.392 36.4724 32.025 40.4394 34.929 39.7314C37.55 39.0934 37.267 34.3474 34.859 33.5684C34.4171 33.4799 33.9585 33.5353 33.5505 33.7267C33.1425 33.918 32.8065 34.2351 32.592 34.6314ZM35.213 35.1314C35.4963 35.6362 35.627 36.2124 35.5892 36.79C35.5513 37.3676 35.3467 37.9219 35 38.3854C34.221 39.0224 33.229 38.2434 33.017 37.3934C32.804 36.6144 33.229 34.7024 34.363 34.7024C34.5307 34.6822 34.7007 34.7116 34.8519 34.7872C35.003 34.8628 35.1286 34.9811 35.213 35.1274V35.1314Z" fill="#FFEFD9"/>
<path d="M37.834 36.7584C37.7822 37.0284 37.7869 37.3063 37.8478 37.5744C37.9088 37.8426 38.0246 38.0952 38.188 38.3164C38.4574 38.6928 38.8646 38.9476 39.321 39.0254C39.6519 39.1068 39.996 39.1195 40.332 39.0625C40.668 39.0055 40.9888 38.8801 41.2743 38.6941C41.5599 38.5081 41.8042 38.2654 41.9922 37.9811C42.1801 37.6968 42.3077 37.377 42.367 37.0414C42.4609 36.5525 42.3571 36.0464 42.0783 35.6339C41.7995 35.2215 41.3686 34.9365 40.88 34.8414C41.0633 34.588 41.1691 34.2868 41.1844 33.9744C41.1997 33.662 41.124 33.3519 40.9664 33.0818C40.8087 32.8117 40.576 32.5932 40.2965 32.4528C40.017 32.3125 39.7028 32.2564 39.392 32.2914C39.0315 32.3267 38.6914 32.475 38.4202 32.7152C38.1491 32.9554 37.9608 33.2751 37.8823 33.6287C37.8038 33.9823 37.839 34.3517 37.983 34.684C38.127 35.0164 38.3723 35.2948 38.684 35.4794C38.2613 35.7946 37.9609 36.2466 37.834 36.7584ZM41.092 36.2584C41.1816 36.41 41.2305 36.5822 41.234 36.7584C41.163 37.6084 39.817 38.4584 39.18 37.7504C39.0928 37.6466 39.0287 37.5255 38.992 37.3952C38.9552 37.2648 38.9465 37.1281 38.9665 36.9941C38.9866 36.8601 39.0349 36.7319 39.1082 36.618C39.1816 36.5041 39.2783 36.4071 39.392 36.3334C39.817 35.9084 40.738 35.7664 41.092 36.2624V36.2584ZM39.676 33.5014C39.8456 33.5906 39.9729 33.7434 40.03 33.9264C40.171 34.6344 39.18 34.8464 38.896 34.2094C38.613 33.6414 39.251 33.3584 39.676 33.5014Z" fill="#FFEFD9"/>
<path d="M44.2801 32.7188C44.1209 32.7188 43.9683 32.782 43.8558 32.8945C43.7433 33.007 43.6801 33.1596 43.6801 33.3187C43.6801 33.4779 43.7433 33.6305 43.8558 33.743C43.9683 33.8555 44.1209 33.9187 44.2801 33.9187C44.4392 33.9187 44.5918 33.8555 44.7043 33.743C44.8168 33.6305 44.8801 33.4779 44.8801 33.3187C44.8801 33.1596 44.8168 33.007 44.7043 32.8945C44.5918 32.782 44.4392 32.7188 44.2801 32.7188Z" fill="#FFEFD9"/>
<path d="M44.492 36.3983C44.6511 36.3983 44.8037 36.3351 44.9162 36.2226C45.0287 36.1101 45.092 35.9575 45.092 35.7983C45.092 35.6392 45.0287 35.4866 44.9162 35.3741C44.8037 35.2615 44.6511 35.1983 44.492 35.1983C43.713 35.1253 43.713 36.3983 44.492 36.3983Z" fill="#FFEFD9"/>
<path d="M48.187 36.009C48.096 35.834 48.009 35.646 47.68 35.693C47.5989 35.7029 47.5207 35.7296 47.4506 35.7716C47.3804 35.8135 47.3198 35.8697 47.2727 35.9365C47.2256 36.0033 47.193 36.0793 47.177 36.1594C47.1611 36.2396 47.1621 36.3222 47.18 36.402C47.2482 36.6087 47.3623 36.7973 47.5137 36.9537C47.6651 37.11 47.8499 37.2302 48.0542 37.3051C48.2586 37.38 48.4772 37.4078 48.6938 37.3863C48.9104 37.3648 49.1194 37.2946 49.305 37.181C52.031 36.091 51.505 32.931 49.447 32.931C49.5608 32.5869 49.5742 32.2176 49.4856 31.8662C49.3971 31.5149 49.2102 31.196 48.947 30.947C48.38 30.593 47.672 31.018 47.176 31.302C46.9794 31.4243 46.8134 31.59 46.6907 31.7864C46.568 31.9828 46.4918 32.2046 46.468 32.435C46.4703 32.5662 46.5205 32.6921 46.609 32.789C46.964 33.073 47.318 32.506 47.601 32.289C47.779 32.139 48.309 31.864 48.38 32.289C48.3999 32.4266 48.3913 32.5668 48.3548 32.7009C48.3184 32.8351 48.2548 32.9604 48.168 33.069C48.0904 33.1603 48.0436 33.2739 48.0345 33.3934C48.0253 33.513 48.0542 33.6323 48.117 33.7344C48.1799 33.8366 48.2734 33.9162 48.3842 33.9619C48.495 34.0076 48.6175 34.0171 48.734 33.989C48.907 33.9295 49.0901 33.9051 49.2727 33.9173C49.4552 33.9295 49.6335 33.978 49.797 34.06C49.9777 34.2333 50.0856 34.4689 50.0988 34.7189C50.112 34.969 50.0295 35.2146 49.868 35.406C49.646 35.754 48.556 36.708 48.187 36.009Z" fill="#FFEFD9"/>
<path d="M53.7719 34.7724C53.3469 35.0564 52.7089 34.9854 52.2839 35.2724C52.2337 35.3168 52.1935 35.3713 52.1659 35.4324C52.1383 35.4936 52.1241 35.5598 52.1241 35.6269C52.1241 35.6939 52.1383 35.7602 52.1659 35.8213C52.1935 35.8824 52.2337 35.937 52.2839 35.9814C53.0629 36.6894 54.5509 35.6974 55.1169 35.0604C55.4204 34.7187 55.6268 34.302 55.7147 33.8536C55.8026 33.4051 55.7689 32.9413 55.6169 32.5104C55.1919 31.3764 53.8459 31.1644 52.7169 31.3104C52.7169 31.0974 52.6459 30.8854 52.6459 30.6724C53.4949 30.5664 54.9789 30.4424 54.7709 29.6104C54.4879 28.7594 52.7169 29.5394 52.1499 29.6804C51.3709 29.9644 51.6499 31.4514 51.7959 32.0184C51.8482 32.1556 51.95 32.2681 52.0814 32.3337C52.2127 32.3993 52.3639 32.4131 52.5049 32.3724C53.0888 32.2188 53.7053 32.2435 54.2749 32.4434C54.4367 32.5096 54.5689 32.6323 54.647 32.7886C54.7252 32.9449 54.744 33.1243 54.6999 33.2934C54.6769 33.5968 54.5813 33.8902 54.4212 34.149C54.2611 34.4078 54.0412 34.6243 53.7799 34.7804L53.7719 34.7724Z" fill="#FFEFD9"/>
<path d="M168.877 81.7359C168.975 82.5516 169.142 83.3575 169.377 84.1449C169.448 84.4989 169.66 84.8529 170.085 84.7109C170.775 84.4049 170.296 82.4109 169.772 81.3759C169.248 80.3409 168.877 80.7049 168.877 81.7359Z" fill="#27272A"/>
<path d="M173.906 83.3668C174.26 82.7998 173.481 80.3208 172.985 79.8958C172.844 79.7538 172.485 79.7538 172.419 79.9668C172.005 80.9308 173.2 84.4928 173.906 83.3668Z" fill="#27272A"/>
<path d="M177.023 82.1612C177.377 82.3032 177.802 81.8781 177.59 81.2411C177.448 80.7411 177.165 78.4071 176.39 78.4781C176.337 78.4773 176.284 78.4883 176.236 78.5104C176.188 78.5325 176.145 78.5651 176.111 78.6059C176.077 78.6466 176.052 78.6945 176.039 78.7459C176.026 78.7973 176.025 78.8511 176.035 78.9032C176.079 79.8264 176.27 80.7368 176.6 81.6002C176.665 81.834 176.816 82.0345 177.023 82.1612Z" fill="#27272A"/>
<path d="M146.848 87.6179C146.582 87.0869 145.526 87.0819 145.856 89.3889C145.856 89.6009 146.356 92.0099 146.918 90.8759C147.226 89.808 147.202 88.6716 146.848 87.6179Z" fill="#27272A"/>
<path d="M156.977 99.5865C156.839 99.2305 156.694 99.0195 156.477 99.0195C155.627 99.0195 156.193 100.791 156.336 101.22C156.406 101.503 156.547 102.212 156.902 102.282C157.327 102.353 157.54 101.645 157.402 101.291C157.333 100.707 157.19 100.134 156.977 99.5865Z" fill="#27272A"/>
<path d="M158.96 100.577C159.049 100.879 159.223 101.149 159.46 101.356C159.52 101.391 159.586 101.413 159.655 101.422C159.724 101.43 159.794 101.424 159.86 101.404C159.927 101.384 159.988 101.35 160.041 101.305C160.094 101.261 160.137 101.205 160.168 101.143C160.313 100.382 160.161 99.595 159.743 98.9431C159.46 98.3761 159.035 97.5981 158.823 98.6601C158.732 99.3015 158.778 99.9551 158.96 100.577Z" fill="#27272A"/>
<path d="M130.06 96.7547C130.01 97.5448 130.106 98.3374 130.343 99.0927C130.627 100.085 131.902 100.368 131.477 99.0927C131.193 98.3137 130.91 97.4637 130.627 96.6847C130.485 96.4017 130.06 96.4017 130.06 96.7547Z" fill="#27272A"/>
<path d="M132.61 99.021C133.177 99.521 133.46 98.738 133.39 98.313C133.289 97.6669 133.147 97.0279 132.964 96.4C132.893 96.259 132.327 95.55 132.185 96.188C132.114 96.613 132.043 98.525 132.61 99.021Z" fill="#27272A"/>
<path d="M97.547 25.566C97.193 25.92 97.476 27.766 97.689 27.904C97.831 28.045 99.035 27.833 99.035 27.833C99.176 28.258 99.106 28.824 99.46 29.033C99.96 29.316 107.322 27.758 107.393 27.475C107.464 26.412 107.039 24.075 106.968 23.012C106.897 22.587 99.035 23.791 98.61 24.004C98.185 24.217 98.468 24.995 98.539 25.204C98.2012 25.3042 97.8699 25.4251 97.547 25.566ZM102.789 24.22C102.789 24.362 103.001 26.841 103.143 27.479C102.506 27.62 100.451 28.187 100.31 28.187C100.31 28.116 99.672 25.637 99.531 24.787C99.885 24.787 102.506 24.291 102.789 24.22Z" fill="#FFEFD9"/>
<path d="M129.564 22.6597C129.215 23.2297 127.935 22.6597 127.652 23.2257C127.368 23.9347 128.997 23.8637 129.352 23.7927C130.202 23.6507 131.193 22.6597 130.414 21.7387C130.354 21.6683 130.274 21.6173 130.185 21.5921C130.096 21.5668 130.002 21.5684 129.914 21.5967C129.493 21.7387 129.78 22.3067 129.564 22.6597Z" fill="#27272A"/>
</svg>
