<svg width="200" height="201" viewBox="0 0 200 201" fill="none" xmlns="http://www.w3.org/2000/svg">
<path d="M186.756 126.933H121.2V88.8613H186.756V126.933ZM121.6 126.532H186.356V89.2628H121.6V126.532Z" fill="#F2F2F2"/>
<path d="M173.232 109.162H129.98V110.435H173.232V109.162Z" fill="#F0F0F0"/>
<path d="M176.212 113.907H129.98V115.296H176.212V113.907Z" fill="#F0F0F0"/>
<path d="M176.212 118.708H129.98V120.097H176.212V118.708Z" fill="#F0F0F0"/>
<path d="M145.096 102.27H129.98V105.573H145.096V102.27Z" fill="#F0F0F0"/>
<path d="M186.556 89.0625H121.412V95.1242H186.556V89.0625Z" fill="#F2F2F2"/>
<path d="M181.544 94.2167C181.46 94.1364 182.3 93.1208 183.416 91.9486C184.532 90.7764 185.512 89.8892 185.592 89.9655C185.672 90.0418 184.836 91.0614 183.72 92.2376C182.604 93.4138 181.624 94.297 181.544 94.2167Z" fill="white"/>
<path d="M185.6 94.2162C185.52 94.2965 184.544 93.4133 183.424 92.2371C182.304 91.0609 181.468 90.0453 181.552 89.965C181.636 89.8847 182.608 90.7679 183.728 91.9481C184.848 93.1283 185.676 94.1359 185.6 94.2162Z" fill="white"/>
<path d="M106.088 13.6689H40.944V51.3435H106.088V13.6689Z" fill="#E4DCDC"/>
<path d="M92.768 33.7725H49.516V35.045H92.768V33.7725Z" fill="#F0F0F0"/>
<path d="M95.748 38.5176H49.516V39.9065H95.748V38.5176Z" fill="#F0F0F0"/>
<path d="M95.748 43.3184H49.516V44.7073H95.748V43.3184Z" fill="#F0F0F0"/>
<path d="M64.632 26.8799H49.516V30.1837H64.632V26.8799Z" fill="#F0F0F0"/>
<path d="M106.088 13.6689H40.944V19.7306H106.088V13.6689Z" fill="#F2F2F2"/>
<path d="M100.856 18.7952C100.772 18.7189 101.612 17.6993 102.728 16.5271C103.844 15.3549 104.824 14.4677 104.904 14.548C104.984 14.6283 104.148 15.6439 103.032 16.8161C101.916 17.9883 100.936 18.8674 100.856 18.7952Z" fill="white"/>
<path d="M104.904 18.7952C104.824 18.8755 103.848 17.9923 102.728 16.8161C101.608 15.6399 100.772 14.6283 100.856 14.548C100.94 14.4677 101.912 15.3509 103.032 16.5271C104.152 17.7033 104.988 18.7189 104.904 18.7952Z" fill="white"/>
<path d="M81.416 83.6551H15.872V45.5791H81.416V83.6551ZM16.272 83.2537H81.016V45.9805H16.272V83.2537Z" fill="#F2F2F2"/>
<path d="M67.896 65.8828H24.644V67.1554H67.896V65.8828Z" fill="#F0F0F0"/>
<path d="M70.876 70.6279H24.644V72.0169H70.876V70.6279Z" fill="#F0F0F0"/>
<path d="M70.876 75.4297H24.644V76.8187H70.876V75.4297Z" fill="#F0F0F0"/>
<path d="M39.76 58.9902H24.644V62.294H39.76V58.9902Z" fill="#F0F0F0"/>
<path d="M81.216 45.7793H16.072V51.8409H81.216V45.7793Z" fill="#F2F2F2"/>
<path d="M157.06 92.3779H80.14V161.489H157.06V92.3779Z" fill="#E4DCDC"/>
<path d="M84.0079 70.6084H23.752V133.437H84.0079V70.6084Z" fill="#F0F0F0"/>
<path d="M84.0079 70.6084H23.752V77.4528H84.0079V70.6084Z" fill="#F2F2F2"/>
<path d="M28.728 73.9605C28.717 74.2087 28.6337 74.4482 28.4883 74.6493C28.3429 74.8503 28.1419 75.0042 27.9102 75.0916C27.6784 75.1791 27.4262 75.1963 27.1849 75.1412C26.9435 75.0861 26.7235 74.9611 26.5523 74.7816C26.3811 74.6022 26.2661 74.3762 26.2217 74.1318C26.1773 73.8874 26.2054 73.6353 26.3025 73.4067C26.3996 73.1782 26.5614 72.9833 26.7679 72.8462C26.9744 72.7092 27.2164 72.636 27.464 72.6357C27.8063 72.6442 28.1314 72.7882 28.3683 73.0364C28.6051 73.2847 28.7344 73.6169 28.728 73.9605Z" fill="white"/>
<path d="M33.86 73.9605C33.8498 74.2099 33.7667 74.4507 33.6212 74.6531C33.4756 74.8555 33.274 75.0104 33.0413 75.0986C32.8087 75.1869 32.5553 75.2045 32.3128 75.1494C32.0702 75.0942 31.8492 74.9687 31.6772 74.7884C31.5052 74.6081 31.3898 74.3811 31.3454 74.1355C31.301 73.8899 31.3295 73.6367 31.4275 73.4072C31.5254 73.1778 31.6884 72.9823 31.8961 72.8452C32.1039 72.708 32.3473 72.6352 32.596 72.6357C32.9383 72.6442 33.2634 72.7882 33.5002 73.0364C33.7371 73.2847 33.8664 73.6169 33.86 73.9605Z" fill="white"/>
<path d="M38.992 73.9605C38.9818 74.2099 38.8987 74.4507 38.7532 74.6531C38.6076 74.8555 38.406 75.0104 38.1734 75.0986C37.9407 75.1869 37.6874 75.2045 37.4448 75.1494C37.2023 75.0942 36.9812 74.9687 36.8092 74.7884C36.6372 74.6081 36.5218 74.3811 36.4774 74.1355C36.433 73.8899 36.4616 73.6367 36.5595 73.4072C36.6574 73.1778 36.8204 72.9823 37.0282 72.8452C37.2359 72.708 37.4793 72.6352 37.728 72.6357C38.0703 72.6442 38.3954 72.7882 38.6323 73.0364C38.8691 73.2847 38.9984 73.6169 38.992 73.9605Z" fill="white"/>
<path d="M178.152 27.4102H101.232V104.349H178.152V27.4102Z" fill="#F0F0F0"/>
<path d="M178.152 27.4102H101.232V36.4223H178.152V27.4102Z" fill="#F2F2F2"/>
<path d="M107.784 31.8253C107.77 32.153 107.66 32.4692 107.469 32.7348C107.277 33.0005 107.012 33.2037 106.706 33.3194C106.4 33.4351 106.067 33.4581 105.749 33.3856C105.43 33.3131 105.14 33.1482 104.913 32.9115C104.687 32.6748 104.535 32.3766 104.477 32.054C104.418 31.7314 104.455 31.3986 104.583 31.0969C104.711 30.7952 104.925 30.5379 105.197 30.357C105.47 30.176 105.789 30.0794 106.116 30.0791C106.568 30.0896 106.997 30.2793 107.309 30.6066C107.622 30.9338 107.793 31.3721 107.784 31.8253Z" fill="white"/>
<path d="M114.052 30.6455C114.274 30.8872 114.42 31.189 114.472 31.5134C114.524 31.8377 114.48 32.1703 114.345 32.4696C114.21 32.7689 113.99 33.0218 113.713 33.1966C113.436 33.3715 113.113 33.4606 112.786 33.453C112.459 33.4453 112.141 33.3412 111.872 33.1535C111.604 32.9659 111.396 32.703 111.275 32.3977C111.154 32.0924 111.125 31.7582 111.192 31.4366C111.259 31.115 111.419 30.8203 111.652 30.5893C111.978 30.278 112.414 30.1091 112.864 30.1196C113.313 30.1301 113.741 30.3193 114.052 30.6455Z" fill="white"/>
<path d="M121.296 31.8253C121.282 32.153 121.172 32.4692 120.981 32.7348C120.789 33.0005 120.524 33.2037 120.218 33.3194C119.912 33.4351 119.579 33.4581 119.261 33.3856C118.942 33.3131 118.652 33.1482 118.425 32.9115C118.199 32.6748 118.047 32.3766 117.989 32.054C117.93 31.7314 117.967 31.3986 118.095 31.0969C118.223 30.7952 118.437 30.5379 118.709 30.357C118.982 30.176 119.301 30.0794 119.628 30.0791C120.08 30.0896 120.509 30.2793 120.821 30.6066C121.134 30.9338 121.305 31.3721 121.296 31.8253Z" fill="white"/>
<path d="M161.536 181.901C161.536 181.957 133.76 182.006 99.508 182.006C65.256 182.006 37.468 181.957 37.468 181.901C37.468 181.845 65.24 181.797 99.508 181.797C133.776 181.797 161.536 181.849 161.536 181.901Z" fill="#263238"/>
<path d="M134.472 132.758C128.292 128.427 126.892 120.386 127.136 113.156C127.176 111.952 127.044 110.676 127.616 109.62C128.188 108.564 129.524 107.837 130.6 108.343C131.492 108.765 131.88 109.808 132.38 110.672C133.047 111.821 134.025 112.758 135.2 113.373C135.964 113.775 136.912 114.016 137.668 113.598C138.708 113.024 138.828 111.591 138.82 110.387C138.82 108.147 138.807 105.909 138.78 103.675C138.708 102.475 138.83 101.271 139.14 100.11C139.512 98.9698 140.34 97.914 141.472 97.5928C142.604 97.2717 144.016 97.9341 144.272 99.1063C144.316 99.6027 144.328 100.102 144.308 100.6C144.34 101.101 144.572 101.651 145.04 101.804C145.508 101.956 145.996 101.607 146.356 101.254C147.588 100.05 148.428 98.48 149.208 96.9305C149.988 95.3809 150.752 93.7873 151.872 92.4665C152.992 91.1458 154.54 90.0981 156.272 89.9977C158.004 89.8974 159.808 90.9652 160.24 92.6512C160.672 94.3372 159.692 96.0594 158.64 97.4283C157.053 99.4602 155.181 101.252 153.084 102.747C152.675 102.972 152.348 103.322 152.152 103.747C151.892 104.55 152.648 105.353 153.436 105.605C154.328 105.903 155.296 105.81 156.236 105.923C157.176 106.035 158.176 106.444 158.532 107.328C159.02 108.556 157.996 109.841 156.992 110.684C154.976 112.37 152.687 113.696 150.224 114.606C149.344 114.927 148.42 115.212 147.708 115.83C146.996 116.448 146.572 117.528 147 118.375C147.428 119.222 148.528 119.491 149.452 119.318C150.376 119.146 151.196 118.648 152.076 118.315C153.72 117.693 155.84 117.805 156.876 119.23C157.197 119.721 157.4 120.28 157.47 120.863C157.539 121.446 157.473 122.037 157.276 122.59C156.876 123.691 156.26 124.699 155.464 125.557C152.844 128.698 149.44 131.085 145.6 132.473C141.788 133.798 138.256 134.159 134.468 132.766" fill="#DBEAFE"/>
<path d="M158.48 90.9893C158.48 90.9893 158.444 91.0294 158.364 91.1017L158.008 91.4188C157.696 91.6998 157.236 92.1093 156.656 92.6512C155.012 94.1835 153.485 95.8381 152.088 97.6009C151.196 98.7128 150.272 99.9733 149.288 101.342C148.304 102.711 147.288 104.188 146.28 105.758C145.205 107.413 144.221 109.126 143.332 110.888C142.868 111.808 142.46 112.767 142.04 113.747L140.8 116.737C139.166 120.504 137.742 124.36 136.536 128.286C135.565 131.499 134.895 134.796 134.536 138.134C134.303 140.386 134.266 142.655 134.424 144.914C134.488 145.717 134.548 146.331 134.604 146.748C134.628 146.949 134.644 147.11 134.66 147.226V147.391C134.643 147.338 134.631 147.285 134.624 147.23C134.604 147.114 134.58 146.957 134.548 146.756C134.476 146.355 134.4 145.721 134.328 144.918C134.135 142.655 134.148 140.378 134.368 138.118C134.705 134.765 135.36 131.453 136.324 128.226C137.52 124.289 138.94 120.423 140.576 116.649L141.848 113.67C142.268 112.695 142.68 111.727 143.148 110.804C144.043 109.036 145.036 107.319 146.12 105.662C147.144 104.056 148.176 102.603 149.148 101.246C150.12 99.889 151.06 98.6205 151.948 97.5126C153.359 95.7544 154.906 94.1114 156.576 92.599C157.168 92.0651 157.64 91.6637 157.96 91.3947L158.332 91.0936C158.378 91.0538 158.427 91.0188 158.48 90.9893Z" fill="#263238"/>
<path d="M143.2 110.796C143.144 110.631 143.105 110.46 143.084 110.286C143.02 109.953 142.948 109.483 142.864 108.873C142.692 107.669 142.516 106.019 142.328 104.192C142.14 102.366 141.928 100.712 141.752 99.5197C141.66 98.9255 141.58 98.4478 141.524 98.1146C141.48 97.9441 141.458 97.7689 141.456 97.5928C141.525 97.7536 141.575 97.922 141.604 98.0946C141.692 98.4237 141.792 98.8974 141.904 99.4956C142.132 100.7 142.356 102.338 142.544 104.168C142.732 105.999 142.892 107.605 143.016 108.853C143.076 109.415 143.128 109.893 143.168 110.274C143.199 110.446 143.21 110.621 143.2 110.796Z" fill="#263238"/>
<path d="M158.592 107.914C158.397 107.956 158.199 107.981 158 107.986C157.6 108.022 157.032 108.07 156.328 108.151C154.92 108.303 152.984 108.584 150.86 108.986C148.736 109.387 146.828 109.841 145.456 110.19C144.772 110.367 144.22 110.527 143.856 110.636C143.662 110.705 143.461 110.753 143.256 110.78C143.441 110.687 143.634 110.61 143.832 110.551C144.208 110.419 144.752 110.234 145.432 110.037C146.796 109.636 148.704 109.158 150.836 108.749C152.642 108.402 154.464 108.148 156.296 107.986C157.004 107.926 157.576 107.902 157.976 107.894C158.182 107.88 158.388 107.887 158.592 107.914Z" fill="#263238"/>
<path d="M136.52 127.945C136.477 127.887 136.442 127.823 136.416 127.756L136.152 127.198C135.924 126.712 135.616 125.994 135.248 125.115C134.504 123.348 133.556 120.876 132.548 118.13C131.54 115.384 130.612 112.911 129.908 111.125C129.564 110.258 129.28 109.547 129.068 109.017L128.844 108.443C128.813 108.377 128.791 108.307 128.78 108.234C128.823 108.292 128.858 108.356 128.884 108.423L129.148 108.981C129.372 109.467 129.684 110.185 130.052 111.064C130.796 112.831 131.744 115.304 132.752 118.049C133.76 120.795 134.688 123.268 135.392 125.054C135.736 125.922 136.02 126.632 136.228 127.162C136.32 127.391 136.396 127.563 136.456 127.736C136.487 127.802 136.509 127.873 136.52 127.945Z" fill="#263238"/>
<path d="M156.952 121.334C156.888 121.371 156.819 121.399 156.748 121.418L156.156 121.619L153.968 122.33C152.12 122.932 149.568 123.791 146.768 124.738C143.968 125.686 141.404 126.529 139.544 127.091C138.616 127.376 137.86 127.592 137.336 127.737L136.732 127.893C136.662 127.916 136.589 127.931 136.516 127.938C136.58 127.901 136.649 127.872 136.72 127.853L137.312 127.653L139.5 126.942C141.348 126.34 143.9 125.481 146.7 124.533C149.5 123.586 152.06 122.743 153.92 122.181C154.852 121.896 155.604 121.679 156.132 121.535L156.736 121.378C156.806 121.356 156.879 121.341 156.952 121.334Z" fill="#263238"/>
<path d="M148.616 23.9572L146.556 24.6959L145.672 21.9942C144.048 17.0124 138.872 14.367 134.116 16.049C129.36 17.731 126.828 23.1945 128.452 28.1763L129.336 30.8779L127.268 31.6206C126.479 31.9276 125.839 32.5277 125.48 33.2962C125.121 34.0648 125.071 34.9426 125.34 35.7473L131.072 53.3261C131.191 53.7245 131.389 54.0948 131.653 54.415C131.917 54.7352 132.243 54.9988 132.611 55.1902C132.979 55.3815 133.381 55.4967 133.795 55.5289C134.208 55.561 134.623 55.5095 135.016 55.3774L156.364 47.7141C157.163 47.4077 157.812 46.8022 158.176 46.0251C158.539 45.248 158.588 44.3597 158.312 43.5472L152.576 25.9684C152.454 25.5712 152.253 25.2027 151.986 24.8849C151.719 24.5672 151.391 24.3067 151.021 24.119C150.652 23.9313 150.248 23.8202 149.835 23.7924C149.422 23.7646 149.007 23.8207 148.616 23.9572ZM132.344 26.7673C131.906 25.4719 131.985 24.0568 132.563 22.8183C133.142 21.5798 134.176 20.6141 135.448 20.1235C136.076 19.9078 136.741 19.8213 137.404 19.8692C138.066 19.9171 138.712 20.0983 139.303 20.4022C139.894 20.706 140.418 21.1262 140.843 21.6377C141.269 22.1492 141.587 22.7414 141.78 23.3792L142.66 26.0808L133.224 29.4689L132.344 26.7673ZM144.344 42.367L145.808 46.855C145.835 46.945 145.826 47.0419 145.784 47.1257C145.741 47.2094 145.668 47.2735 145.58 47.3046L143.528 48.0392C143.446 48.062 143.359 48.0521 143.284 48.0117C143.21 47.9713 143.154 47.9035 143.128 47.8225L141.652 43.3545C140.838 43.31 140.057 43.017 139.414 42.5148C138.77 42.0126 138.295 41.3252 138.052 40.5445C137.704 39.5124 137.768 38.3852 138.229 37.399C138.691 36.4128 139.514 35.644 140.528 35.2536C141.028 35.082 141.558 35.0132 142.086 35.0515C142.613 35.0897 143.128 35.2341 143.598 35.4761C144.069 35.7181 144.486 36.0527 144.825 36.46C145.164 36.8673 145.418 37.339 145.572 37.8468C145.829 38.6399 145.851 39.4911 145.633 40.2961C145.416 41.1011 144.969 41.8249 144.348 42.379L144.344 42.367Z" fill="#DBEAFE"/>
<path d="M146.464 24.6479C146.464 24.7041 142.644 26.1453 137.892 27.8594C133.14 29.5735 129.264 30.9504 129.244 30.9103C129.224 30.8701 133.064 29.4169 137.82 27.6988C142.576 25.9807 146.444 24.5957 146.464 24.6479Z" fill="#263238"/>
<path d="M151 25.3867C151.018 25.4216 151.032 25.4578 151.044 25.4951C151.076 25.5754 151.112 25.6798 151.16 25.8082C151.264 26.1013 151.408 26.5067 151.588 27.0125L153.124 31.5006C153.764 33.4033 154.528 35.6594 155.376 38.1644C155.776 39.4208 156.248 40.7295 156.688 42.1064C156.924 42.816 157.025 43.5634 156.988 44.3103C156.954 44.6988 156.844 45.0767 156.664 45.4223C156.472 45.7667 156.215 46.0707 155.908 46.3175C155.29 46.7702 154.604 47.1212 153.876 47.3572L151.816 48.0998L147.916 49.5008L141.312 51.8613L136.852 53.4349L135.652 53.8363L135.332 53.9407C135.298 53.956 135.261 53.9655 135.224 53.9688C135.224 53.9688 135.256 53.9688 135.324 53.9206L135.636 53.7962L136.836 53.3426L141.272 51.7047L147.864 49.2961L151.756 47.8831L153.816 47.1364C154.523 46.91 155.189 46.5697 155.788 46.1288C156.074 45.8998 156.313 45.6177 156.492 45.2978C156.661 44.9782 156.764 44.627 156.792 44.2661C156.829 43.5464 156.731 42.8262 156.504 42.1426C156.072 40.7777 155.616 39.457 155.204 38.2005C154.372 35.6915 153.604 33.4274 152.996 31.5246C152.388 29.6218 151.876 28.0924 151.524 27.0165C151.356 26.4907 151.228 26.0812 151.124 25.7841L151.028 25.463C151.016 25.4387 151.007 25.4131 151 25.3867Z" fill="#263238"/>
<path d="M139.736 19.8502C139.736 19.8502 139.524 19.7459 139.132 19.5853C138.573 19.3698 137.982 19.2504 137.384 19.232C136.497 19.2015 135.615 19.3688 134.8 19.7218C133.809 20.1613 132.962 20.8723 132.356 21.7731C131.746 22.6713 131.418 23.7328 131.416 24.82C131.424 25.7111 131.559 26.5964 131.816 27.4494C132.024 28.18 132.24 28.7621 132.384 29.1675C132.469 29.3735 132.538 29.5855 132.592 29.8018C132.478 29.6092 132.383 29.4063 132.308 29.1956C132.144 28.7942 131.908 28.2241 131.676 27.4895C131.391 26.6276 131.236 25.7278 131.216 24.82C131.205 23.6917 131.54 22.5874 132.176 21.6567C132.803 20.723 133.685 19.99 134.716 19.5452C135.556 19.1902 136.466 19.0336 137.376 19.0875C137.987 19.1188 138.588 19.2616 139.148 19.509C139.298 19.5784 139.442 19.6589 139.58 19.7499C139.637 19.775 139.69 19.8088 139.736 19.8502Z" fill="#263238"/>
<path d="M139.92 35.5585C139.984 35.5197 140.051 35.4861 140.12 35.4582C140.32 35.3675 140.528 35.2936 140.74 35.2374C141.077 35.1375 141.425 35.0782 141.776 35.0607C142.254 35.035 142.731 35.1074 143.18 35.2735C144.204 35.6348 145.144 36.6825 145.608 38.0835C145.831 38.8354 145.831 39.6359 145.608 40.3878C145.361 41.2038 144.919 41.9467 144.32 42.5515L144.344 42.4431C144.876 43.9083 145.456 45.498 146.056 47.1559L146.092 47.2563L145.992 47.2924L145.076 47.5975L143.076 48.2679L142.976 48.3L142.944 48.1997C142.396 46.5377 141.796 44.9882 141.344 43.4668L141.432 43.535C140.65 43.4698 139.904 43.1753 139.288 42.688C138.73 42.2569 138.273 41.7089 137.948 41.0822C137.655 40.5265 137.509 39.9045 137.524 39.2758C137.543 38.6333 137.702 38.0028 137.992 37.4296C138.282 36.8563 138.694 36.3545 139.2 35.96C139.408 35.7904 139.642 35.6549 139.892 35.5585C139.666 35.6931 139.447 35.8391 139.236 35.9961C138.681 36.4677 138.255 37.0745 138 37.7584C137.781 38.2741 137.679 38.832 137.7 39.3921C137.722 39.9522 137.866 40.5006 138.124 40.9979C138.444 41.6008 138.89 42.1268 139.432 42.5395C140.02 43.0026 140.731 43.2818 141.476 43.3423H141.544L141.564 43.4025C142.004 44.8959 142.608 46.4574 143.164 48.1274L143.032 48.0632L145.032 47.3928L145.944 47.0837L145.88 47.2202C145.284 45.5622 144.708 43.9686 144.18 42.5033V42.4431L144.228 42.3949C144.81 41.8152 145.243 41.1033 145.492 40.3195C145.704 39.6003 145.704 38.8348 145.492 38.1157C145.056 36.7668 144.156 35.7432 143.18 35.3819C142.748 35.2147 142.287 35.1369 141.824 35.1531C141.479 35.161 141.135 35.2082 140.8 35.2936C140.204 35.4421 139.924 35.5786 139.92 35.5585Z" fill="#263238"/>
<path d="M127.556 151.469L87.6 151.285C85.2926 151.272 83.0845 150.34 81.4608 148.695C79.8371 147.05 78.9304 144.825 78.94 142.509L79.364 41.9862C79.3687 40.8389 79.5987 39.7038 80.0408 38.6458C80.4829 37.5877 81.1284 36.6275 81.9404 35.82C82.7525 35.0125 83.7152 34.3735 84.7735 33.9396C85.8317 33.5057 86.9648 33.2853 88.108 33.2911L128.06 33.4758C130.367 33.4875 132.576 34.4178 134.2 36.0624C135.825 37.707 136.733 39.9314 136.724 42.2471L136.3 142.766C136.295 143.914 136.065 145.049 135.623 146.108C135.181 147.166 134.536 148.127 133.724 148.935C132.912 149.743 131.949 150.383 130.891 150.818C129.833 151.253 128.7 151.474 127.556 151.469Z" fill="#455A64"/>
<path d="M128 36.9325H120.256C120.003 36.9372 119.754 36.9918 119.522 37.0932C119.291 37.1946 119.081 37.3408 118.906 37.5235C118.731 37.7062 118.593 37.9217 118.501 38.1578C118.408 38.3939 118.363 38.6459 118.368 38.8995V40.3086C118.373 40.5619 118.328 40.8138 118.235 41.0497C118.143 41.2855 118.005 41.5008 117.83 41.6831C117.654 41.8655 117.445 42.0113 117.213 42.1123C116.982 42.2133 116.732 42.2674 116.48 42.2716L101.384 42.2033C100.873 42.1897 100.389 41.9731 100.037 41.6013C99.6854 41.2295 99.4951 40.7328 99.508 40.2202V38.8112C99.5209 38.2993 99.3311 37.8032 98.9802 37.4315C98.6294 37.0598 98.146 36.8428 97.636 36.8281H94.912L88.132 36.796C86.5194 36.7864 84.9686 37.4184 83.8193 38.5538C82.67 39.6891 82.0158 41.2353 82 42.8536L81.6 140.972C81.5963 141.775 81.7502 142.571 82.053 143.314C82.3557 144.057 82.8014 144.733 83.3645 145.303C83.9276 145.874 84.5971 146.327 85.3348 146.638C86.0725 146.949 86.864 147.11 87.664 147.114L127.536 147.299C128.337 147.302 129.13 147.148 129.871 146.844C130.612 146.54 131.286 146.092 131.855 145.527C132.423 144.961 132.876 144.289 133.185 143.548C133.495 142.807 133.656 142.012 133.66 141.209L134.06 43.0905C134.07 41.4675 133.437 39.9072 132.3 38.7525C131.164 37.5977 129.617 36.9431 128 36.9325Z" fill="white"/>
<path d="M122.636 134.207L92.988 134.079C92.68 134.079 92.432 133.742 92.436 133.332L92.468 125.548C92.468 125.147 92.72 124.802 93.028 124.802L122.676 124.938C122.847 124.968 122.999 125.062 123.102 125.202C123.205 125.342 123.25 125.517 123.228 125.689L123.2 133.465C123.2 133.878 122.944 134.211 122.636 134.207Z" fill="#DBEAFE"/>
<path d="M99.5892 131.448V127.368H100.021V131.075H102.305V131.448H99.5892ZM104.136 131.477C103.841 131.477 103.575 131.411 103.338 131.279C103.104 131.143 102.92 130.959 102.784 130.725C102.648 130.488 102.58 130.218 102.58 129.915C102.58 129.608 102.648 129.338 102.784 129.105C102.92 128.872 103.104 128.689 103.338 128.557C103.571 128.425 103.837 128.359 104.136 128.359C104.439 128.359 104.707 128.425 104.94 128.557C105.177 128.689 105.362 128.872 105.494 129.105C105.63 129.338 105.698 129.608 105.698 129.915C105.698 130.218 105.63 130.488 105.494 130.725C105.362 130.959 105.177 131.143 104.94 131.279C104.703 131.411 104.435 131.477 104.136 131.477ZM104.136 131.11C104.358 131.11 104.554 131.062 104.725 130.964C104.896 130.863 105.03 130.724 105.127 130.545C105.228 130.362 105.279 130.152 105.279 129.915C105.279 129.674 105.228 129.464 105.127 129.286C105.03 129.107 104.896 128.969 104.725 128.872C104.554 128.771 104.36 128.72 104.142 128.72C103.924 128.72 103.73 128.771 103.559 128.872C103.388 128.969 103.252 129.107 103.151 129.286C103.05 129.464 102.999 129.674 102.999 129.915C102.999 130.152 103.05 130.362 103.151 130.545C103.252 130.724 103.388 130.863 103.559 130.964C103.73 131.062 103.922 131.11 104.136 131.11ZM107.849 132.608C107.569 132.608 107.301 132.567 107.044 132.486C106.788 132.404 106.58 132.288 106.421 132.136L106.631 131.821C106.774 131.95 106.951 132.051 107.161 132.124C107.375 132.202 107.6 132.241 107.837 132.241C108.226 132.241 108.511 132.15 108.694 131.967C108.877 131.788 108.968 131.508 108.968 131.128V130.364L109.026 129.839L108.985 129.315V128.388H109.382V131.075C109.382 131.604 109.252 131.99 108.991 132.235C108.735 132.484 108.354 132.608 107.849 132.608ZM107.773 131.332C107.482 131.332 107.219 131.269 106.986 131.145C106.753 131.017 106.568 130.84 106.432 130.615C106.3 130.389 106.234 130.131 106.234 129.839C106.234 129.548 106.3 129.292 106.432 129.07C106.568 128.845 106.753 128.67 106.986 128.545C107.219 128.421 107.482 128.359 107.773 128.359C108.045 128.359 108.29 128.415 108.507 128.528C108.725 128.641 108.898 128.808 109.026 129.029C109.154 129.251 109.219 129.521 109.219 129.839C109.219 130.158 109.154 130.428 109.026 130.65C108.898 130.871 108.725 131.04 108.507 131.157C108.29 131.273 108.045 131.332 107.773 131.332ZM107.814 130.964C108.039 130.964 108.239 130.918 108.414 130.825C108.589 130.727 108.727 130.595 108.828 130.428C108.929 130.257 108.98 130.061 108.98 129.839C108.98 129.618 108.929 129.424 108.828 129.257C108.727 129.089 108.589 128.959 108.414 128.866C108.239 128.769 108.039 128.72 107.814 128.72C107.592 128.72 107.392 128.769 107.213 128.866C107.039 128.959 106.901 129.089 106.8 129.257C106.702 129.424 106.654 129.618 106.654 129.839C106.654 130.061 106.702 130.257 106.8 130.428C106.901 130.595 107.039 130.727 107.213 130.825C107.392 130.918 107.592 130.964 107.814 130.964ZM110.533 131.448V128.388H110.947V131.448H110.533ZM110.743 127.712C110.658 127.712 110.586 127.683 110.528 127.624C110.469 127.566 110.44 127.496 110.44 127.415C110.44 127.333 110.469 127.265 110.528 127.211C110.586 127.152 110.658 127.123 110.743 127.123C110.829 127.123 110.901 127.15 110.959 127.205C111.017 127.259 111.046 127.327 111.046 127.409C111.046 127.494 111.017 127.566 110.959 127.624C110.905 127.683 110.833 127.712 110.743 127.712ZM113.661 128.359C113.91 128.359 114.127 128.408 114.314 128.505C114.504 128.598 114.652 128.742 114.757 128.936C114.866 129.13 114.92 129.375 114.92 129.67V131.448H114.506V129.711C114.506 129.389 114.424 129.146 114.261 128.983C114.102 128.816 113.877 128.732 113.585 128.732C113.368 128.732 113.177 128.777 113.014 128.866C112.855 128.952 112.73 129.078 112.641 129.245C112.555 129.408 112.513 129.606 112.513 129.839V131.448H112.099V128.388H112.495V129.227L112.431 129.07C112.528 128.849 112.684 128.676 112.897 128.551C113.111 128.423 113.366 128.359 113.661 128.359Z" fill="#E8E8E3"/>
<path d="M98.9017 65.7754L88.6138 65.7285L88.6052 67.6233L98.8931 67.6701L98.9017 65.7754Z" fill="#DBEAFE"/>
<path opacity="0.1" d="M98.9017 65.7754L88.6138 65.7285L88.6052 67.6233L98.8931 67.6701L98.9017 65.7754Z" fill="black"/>
<path d="M129.06 77.4093C129.141 77.4011 129.22 77.3822 129.296 77.3531C129.407 77.3096 129.503 77.2357 129.574 77.1399C129.644 77.044 129.687 76.9301 129.696 76.8111C129.696 76.1728 129.696 75.2415 129.696 74.0452C129.696 73.4471 129.696 72.7767 129.696 72.0381C129.696 71.8574 129.696 71.6688 129.696 71.4801C129.722 71.297 129.682 71.1106 129.584 70.9542C129.529 70.8792 129.457 70.8181 129.375 70.7756C129.292 70.7331 129.201 70.7104 129.108 70.7093H128.484H122.704L89.248 70.5849C89.1624 70.5834 89.0777 70.6027 89.0011 70.6412C88.9245 70.6796 88.8582 70.736 88.808 70.8057C88.7114 70.9627 88.6745 71.1494 88.704 71.3315C88.704 71.733 88.704 72.1344 88.704 72.5359C88.704 73.3387 88.704 74.1416 88.704 74.9445C88.704 75.3459 88.704 75.7473 88.704 76.1488C88.6874 76.3357 88.6874 76.5238 88.704 76.7108C88.725 76.7909 88.7641 76.8652 88.8182 76.9278C88.8723 76.9904 88.9399 77.0398 89.016 77.0721C89.0948 77.1035 89.1792 77.1186 89.264 77.1162H91.3L100.184 77.1644L115.224 77.2567L125.364 77.337L128.12 77.3691H128.836C129 77.3691 129.08 77.3691 129.08 77.3691H128.836H128.12H125.364H115.224L100.184 77.3209L91.3 77.2848H89.264C89.152 77.2894 89.0402 77.2702 88.936 77.2286C88.8307 77.1835 88.737 77.1148 88.6622 77.0279C88.5873 76.9409 88.5332 76.8379 88.504 76.7268C88.4809 76.6215 88.4728 76.5133 88.48 76.4057V76.1086C88.48 75.7072 88.48 75.3057 88.48 74.9043C88.48 74.1014 88.48 73.2986 88.48 72.4957C88.48 72.0943 88.48 71.6928 88.48 71.2914C88.4724 71.1845 88.4724 71.0772 88.48 70.9703C88.495 70.8522 88.5405 70.7401 88.612 70.6451C88.681 70.5482 88.7723 70.4695 88.8782 70.4157C88.9841 70.3618 89.1013 70.3345 89.22 70.336L122.676 70.5207L128.456 70.5608H129.08C129.19 70.5609 129.298 70.5876 129.396 70.6386C129.493 70.6896 129.577 70.7634 129.64 70.8538C129.753 71.0284 129.798 71.2382 129.768 71.4439C129.768 71.6326 129.768 71.8213 129.768 72.0019C129.768 72.7326 129.768 73.4029 129.768 74.0091C129.768 75.2134 129.74 76.1367 129.732 76.779C129.722 76.9025 129.678 77.0206 129.603 77.1195C129.529 77.2183 129.428 77.2938 129.312 77.337C129.236 77.3841 129.149 77.4091 129.06 77.4093Z" fill="#E0E0E0"/>
<path d="M110.52 72.5996H91.704V74.3699H110.52V72.5996Z" fill="#DBEAFE"/>
<path opacity="0.2" d="M110.52 72.5996H91.704V74.3699H110.52V72.5996Z" fill="white"/>
<path d="M98.8315 83.0605L88.5436 83.0137L88.535 84.9084L98.8229 84.9553L98.8315 83.0605Z" fill="#DBEAFE"/>
<path opacity="0.1" d="M98.8315 83.0605L88.5436 83.0137L88.535 84.9084L98.8229 84.9553L98.8315 83.0605Z" fill="black"/>
<path d="M128.8 94.6941C128.881 94.6842 128.961 94.6694 129.04 94.65C129.152 94.6143 129.255 94.555 129.341 94.476C129.428 94.3971 129.497 94.3004 129.544 94.1923C129.607 94.0303 129.632 93.8558 129.616 93.6825C129.616 93.4898 129.616 93.2811 129.616 93.0483C129.616 92.5826 129.616 92.0527 129.616 91.4425V88.8934C129.635 88.7089 129.594 88.5231 129.5 88.3635C129.401 88.1999 129.246 88.0785 129.064 88.0223C128.865 87.9866 128.662 87.9758 128.46 87.9902H122.704L89.364 87.8658C89.1847 87.8662 89.0116 87.9319 88.877 88.0508C88.7423 88.1697 88.6553 88.3336 88.632 88.5121C88.632 88.8934 88.632 89.3149 88.632 89.7164C88.632 90.5192 88.632 91.3221 88.632 92.125C88.632 92.5264 88.632 92.9278 88.632 93.3293C88.6171 93.5169 88.6252 93.7056 88.656 93.8913C88.706 94.0541 88.8088 94.1954 88.948 94.2927C89.0958 94.3868 89.2693 94.4318 89.444 94.4212H90H91.156L100.008 94.4653L114.996 94.5577L125.1 94.6379L127.848 94.6701H125.1H114.996L100 94.654L91.148 94.6219H89.408C89.1917 94.6348 88.977 94.577 88.796 94.4573C88.614 94.3308 88.4812 94.145 88.42 93.9314C88.3842 93.7274 88.3734 93.5198 88.388 93.3132C88.388 92.9118 88.388 92.5103 88.388 92.1089C88.388 91.306 88.388 90.5032 88.388 89.7003C88.388 89.2989 88.388 88.8974 88.388 88.496C88.4172 88.2665 88.5288 88.0555 88.7018 87.9025C88.8748 87.7496 89.0975 87.6651 89.328 87.665L122.668 87.8497L128.424 87.8939C128.638 87.8807 128.854 87.8955 129.064 87.938C129.272 88.0062 129.447 88.1492 129.556 88.3394C129.66 88.5163 129.704 88.7215 129.684 88.9255C129.684 89.1142 129.684 89.2989 129.684 89.4835C129.684 90.2101 129.684 90.8765 129.684 91.4907C129.684 92.1049 129.684 92.6227 129.684 93.0964C129.684 93.3253 129.684 93.538 129.684 93.7347C129.699 93.9142 129.67 94.0946 129.6 94.2606C129.548 94.3714 129.473 94.4696 129.38 94.5486C129.287 94.6275 129.178 94.6854 129.06 94.7182C128.973 94.7255 128.885 94.7173 128.8 94.6941Z" fill="#E0E0E0"/>
<path d="M98.754 101.097L88.4661 101.05L88.4575 102.945L98.7454 102.991L98.754 101.097Z" fill="#DBEAFE"/>
<path opacity="0.1" d="M98.754 101.097L88.4661 101.05L88.4575 102.945L98.7454 102.991L98.754 101.097Z" fill="black"/>
<path d="M128.72 112.723C128.801 112.713 128.881 112.699 128.96 112.679C129.071 112.643 129.174 112.584 129.261 112.506C129.347 112.428 129.417 112.332 129.464 112.225C129.527 112.063 129.551 111.889 129.536 111.715C129.536 111.519 129.536 111.314 129.536 111.077C129.536 110.615 129.536 110.081 129.536 109.471V106.922C129.555 106.738 129.514 106.552 129.42 106.392C129.319 106.232 129.165 106.112 128.984 106.055C128.785 106.018 128.582 106.006 128.38 106.019H122.624L89.284 105.895C89.1047 105.895 88.9316 105.961 88.797 106.08C88.6623 106.198 88.5753 106.362 88.552 106.541C88.552 106.942 88.552 107.344 88.552 107.745C88.552 108.548 88.552 109.351 88.552 110.154C88.552 110.555 88.552 110.957 88.552 111.358C88.5371 111.544 88.5452 111.732 88.576 111.916C88.6239 112.08 88.7272 112.222 88.868 112.317C89.0148 112.414 89.1891 112.459 89.364 112.446H91.104L99.956 112.494L114.944 112.586L125.048 112.667L127.796 112.699H125.048H114.944L99.956 112.655L91.104 112.619H89.364C89.1475 112.633 88.9322 112.575 88.752 112.454C88.57 112.327 88.4372 112.142 88.376 111.928C88.3402 111.724 88.3294 111.516 88.344 111.31C88.344 110.908 88.344 110.507 88.344 110.106C88.344 109.303 88.344 108.5 88.344 107.697C88.344 107.296 88.344 106.894 88.344 106.473C88.3723 106.243 88.483 106.032 88.6554 105.879C88.8277 105.726 89.0499 105.642 89.28 105.642L122.62 105.826L128.376 105.87C128.59 105.857 128.805 105.872 129.016 105.915C129.224 105.983 129.399 106.126 129.508 106.316C129.611 106.493 129.656 106.698 129.636 106.902C129.636 107.091 129.636 107.279 129.636 107.46C129.636 108.187 129.636 108.853 129.636 109.467C129.636 110.081 129.636 110.599 129.636 111.073C129.636 111.302 129.636 111.515 129.636 111.711C129.651 111.891 129.623 112.071 129.552 112.237C129.5 112.348 129.425 112.446 129.332 112.525C129.239 112.604 129.13 112.662 129.012 112.695C128.918 112.727 128.818 112.737 128.72 112.723Z" fill="#E0E0E0"/>
<path d="M110.118 90.3855L91.3026 90.2998L91.2945 92.0701L110.11 92.1558L110.118 90.3855Z" fill="#DBEAFE"/>
<path opacity="0.2" d="M110.118 90.3855L91.3026 90.2998L91.2945 92.0701L110.11 92.1558L110.118 90.3855Z" fill="white"/>
<path d="M93.004 109.447C92.9922 109.609 92.9334 109.763 92.835 109.891C92.7365 110.019 92.6027 110.116 92.4501 110.169C92.2976 110.221 92.133 110.228 91.9767 110.187C91.8205 110.147 91.6795 110.061 91.5713 109.941C91.463 109.821 91.3922 109.672 91.3678 109.512C91.3433 109.352 91.3661 109.188 91.4335 109.041C91.5009 108.894 91.6098 108.77 91.7468 108.684C91.8838 108.599 92.0427 108.556 92.204 108.56C92.4269 108.572 92.6358 108.672 92.7856 108.839C92.9353 109.005 93.0138 109.223 93.004 109.447Z" fill="#DBEAFE"/>
<path d="M95.552 109.46C95.5599 109.573 95.5445 109.686 95.5067 109.793C95.469 109.9 95.4097 109.998 95.3326 110.081C95.2555 110.164 95.1622 110.23 95.0586 110.276C94.9549 110.321 94.8431 110.344 94.73 110.344C94.617 110.344 94.5051 110.321 94.4015 110.276C94.2978 110.23 94.2045 110.164 94.1274 110.081C94.0503 109.998 93.9911 109.9 93.9533 109.793C93.9156 109.686 93.9001 109.573 93.908 109.46C93.9001 109.347 93.9156 109.233 93.9533 109.126C93.9911 109.019 94.0503 108.921 94.1274 108.838C94.2045 108.755 94.2978 108.689 94.4015 108.644C94.5051 108.599 94.617 108.575 94.73 108.575C94.8431 108.575 94.9549 108.599 95.0586 108.644C95.1622 108.689 95.2555 108.755 95.3326 108.838C95.4097 108.921 95.469 109.019 95.5067 109.126C95.5445 109.233 95.5599 109.347 95.552 109.46Z" fill="#DBEAFE"/>
<path d="M98.104 109.471C98.0922 109.633 98.0334 109.787 97.935 109.916C97.8365 110.044 97.7027 110.14 97.5501 110.193C97.3976 110.246 97.233 110.252 97.0767 110.212C96.9205 110.171 96.7795 110.086 96.6712 109.966C96.563 109.846 96.4922 109.696 96.4678 109.536C96.4433 109.376 96.4661 109.213 96.5335 109.066C96.6009 108.918 96.7098 108.794 96.8468 108.709C96.9837 108.623 97.1427 108.58 97.304 108.584C97.5265 108.598 97.7348 108.698 97.8844 108.864C98.0339 109.03 98.1128 109.248 98.104 109.471Z" fill="#DBEAFE"/>
<path d="M100.652 109.483C100.64 109.645 100.581 109.799 100.483 109.927C100.384 110.056 100.251 110.152 100.098 110.205C99.9455 110.257 99.7809 110.264 99.6247 110.223C99.4685 110.183 99.3275 110.098 99.2192 109.978C99.111 109.858 99.0402 109.708 99.0157 109.548C98.9913 109.388 99.0141 109.224 99.0815 109.077C99.1489 108.93 99.2578 108.806 99.3948 108.721C99.5317 108.635 99.6907 108.592 99.852 108.596C100.074 108.609 100.283 108.71 100.432 108.876C100.582 109.042 100.661 109.26 100.652 109.483Z" fill="#DBEAFE"/>
<path d="M103.2 109.491C103.189 109.653 103.131 109.807 103.033 109.936C102.935 110.065 102.801 110.162 102.649 110.215C102.496 110.269 102.331 110.276 102.175 110.236C102.018 110.196 101.877 110.111 101.768 109.991C101.66 109.871 101.588 109.721 101.564 109.561C101.539 109.401 101.562 109.237 101.629 109.09C101.696 108.942 101.805 108.818 101.942 108.732C102.079 108.647 102.239 108.603 102.4 108.608C102.622 108.621 102.829 108.721 102.979 108.886C103.128 109.051 103.208 109.268 103.2 109.491Z" fill="#DBEAFE"/>
<path d="M105.752 109.503C105.741 109.664 105.684 109.818 105.586 109.947C105.489 110.075 105.357 110.172 105.206 110.226C105.054 110.28 104.89 110.289 104.734 110.25C104.578 110.212 104.437 110.129 104.327 110.011C104.218 109.893 104.145 109.745 104.118 109.586C104.091 109.427 104.11 109.264 104.175 109.116C104.239 108.968 104.345 108.843 104.48 108.755C104.614 108.666 104.771 108.62 104.932 108.62C105.157 108.628 105.37 108.726 105.524 108.892C105.678 109.057 105.76 109.277 105.752 109.503Z" fill="#DBEAFE"/>
<path d="M108.3 109.515C108.308 109.629 108.292 109.742 108.255 109.849C108.217 109.956 108.158 110.054 108.081 110.137C108.004 110.22 107.91 110.286 107.807 110.331C107.703 110.377 107.591 110.4 107.478 110.4C107.365 110.4 107.253 110.377 107.149 110.331C107.046 110.286 106.953 110.22 106.875 110.137C106.798 110.054 106.739 109.956 106.701 109.849C106.664 109.742 106.648 109.629 106.656 109.515C106.648 109.402 106.664 109.289 106.701 109.182C106.739 109.075 106.798 108.977 106.875 108.894C106.953 108.811 107.046 108.745 107.149 108.699C107.253 108.654 107.365 108.631 107.478 108.631C107.591 108.631 107.703 108.654 107.807 108.699C107.91 108.745 108.004 108.811 108.081 108.894C108.158 108.977 108.217 109.075 108.255 109.182C108.292 109.289 108.308 109.402 108.3 109.515Z" fill="#DBEAFE"/>
<path d="M110.848 109.528C110.837 109.689 110.78 109.843 110.682 109.971C110.585 110.1 110.453 110.197 110.302 110.251C110.15 110.305 109.986 110.313 109.83 110.275C109.674 110.236 109.533 110.153 109.423 110.035C109.314 109.917 109.241 109.77 109.214 109.611C109.187 109.452 109.206 109.288 109.271 109.141C109.335 108.993 109.441 108.867 109.575 108.779C109.71 108.691 109.867 108.644 110.028 108.645C110.253 108.653 110.466 108.751 110.62 108.916C110.774 109.082 110.856 109.302 110.848 109.528Z" fill="#DBEAFE"/>
<path d="M113.396 109.54C113.385 109.701 113.327 109.856 113.229 109.985C113.131 110.114 112.997 110.211 112.845 110.264C112.692 110.318 112.527 110.325 112.371 110.285C112.214 110.245 112.073 110.159 111.964 110.039C111.856 109.92 111.784 109.77 111.76 109.61C111.735 109.45 111.758 109.286 111.825 109.139C111.892 108.991 112.001 108.867 112.138 108.781C112.275 108.696 112.435 108.652 112.596 108.657C112.818 108.67 113.025 108.77 113.175 108.935C113.324 109.1 113.404 109.317 113.396 109.54Z" fill="#DBEAFE"/>
<g opacity="0.2">
<path d="M93.004 109.447C92.9922 109.609 92.9334 109.763 92.835 109.891C92.7365 110.019 92.6027 110.116 92.4501 110.169C92.2976 110.221 92.133 110.228 91.9767 110.187C91.8205 110.147 91.6795 110.061 91.5713 109.941C91.463 109.821 91.3922 109.672 91.3678 109.512C91.3433 109.352 91.3661 109.188 91.4335 109.041C91.5009 108.894 91.6098 108.77 91.7468 108.684C91.8838 108.599 92.0427 108.556 92.204 108.56C92.4269 108.572 92.6358 108.672 92.7856 108.839C92.9353 109.005 93.0138 109.223 93.004 109.447Z" fill="white"/>
<path d="M95.5521 109.46C95.56 109.573 95.5445 109.686 95.5068 109.793C95.469 109.9 95.4098 109.998 95.3327 110.081C95.2556 110.164 95.1623 110.23 95.0586 110.276C94.955 110.321 94.8431 110.344 94.7301 110.344C94.617 110.344 94.5052 110.321 94.4015 110.276C94.2979 110.23 94.2046 110.164 94.1275 110.081C94.0504 109.998 93.9911 109.9 93.9534 109.793C93.9156 109.686 93.9002 109.573 93.9081 109.46C93.9002 109.347 93.9156 109.233 93.9534 109.126C93.9911 109.019 94.0504 108.921 94.1275 108.838C94.2046 108.755 94.2979 108.689 94.4015 108.644C94.5052 108.599 94.617 108.575 94.7301 108.575C94.8431 108.575 94.955 108.599 95.0586 108.644C95.1623 108.689 95.2556 108.755 95.3327 108.838C95.4098 108.921 95.469 109.019 95.5068 109.126C95.5445 109.233 95.56 109.347 95.5521 109.46Z" fill="white"/>
<path d="M98.1041 109.471C98.0923 109.633 98.0335 109.787 97.935 109.916C97.8366 110.044 97.7028 110.14 97.5502 110.193C97.3976 110.246 97.233 110.252 97.0768 110.212C96.9205 110.171 96.7796 110.086 96.6713 109.966C96.5631 109.846 96.4923 109.696 96.4678 109.536C96.4433 109.376 96.4662 109.213 96.5336 109.066C96.6009 108.918 96.7099 108.794 96.8468 108.709C96.9838 108.623 97.1428 108.58 97.3041 108.584C97.5265 108.598 97.7349 108.698 97.8844 108.864C98.034 109.03 98.1128 109.248 98.1041 109.471Z" fill="white"/>
<path d="M100.652 109.483C100.64 109.645 100.581 109.799 100.483 109.927C100.385 110.056 100.251 110.152 100.098 110.205C99.9456 110.257 99.781 110.264 99.6248 110.223C99.4685 110.183 99.3276 110.098 99.2193 109.978C99.111 109.858 99.0403 109.708 99.0158 109.548C98.9913 109.388 99.0142 109.224 99.0816 109.077C99.1489 108.93 99.2579 108.806 99.3948 108.721C99.5318 108.635 99.6908 108.592 99.8521 108.596C100.075 108.609 100.283 108.71 100.432 108.876C100.582 109.042 100.661 109.26 100.652 109.483Z" fill="white"/>
<path d="M103.2 109.491C103.189 109.653 103.131 109.807 103.033 109.936C102.935 110.065 102.801 110.162 102.649 110.215C102.496 110.269 102.331 110.276 102.175 110.236C102.018 110.196 101.877 110.111 101.768 109.991C101.66 109.871 101.589 109.721 101.564 109.561C101.539 109.401 101.562 109.237 101.629 109.09C101.696 108.942 101.805 108.818 101.942 108.732C102.079 108.647 102.239 108.603 102.4 108.608C102.622 108.621 102.83 108.721 102.979 108.886C103.128 109.051 103.208 109.268 103.2 109.491Z" fill="white"/>
<path d="M105.752 109.503C105.741 109.664 105.684 109.818 105.587 109.947C105.489 110.075 105.357 110.172 105.206 110.226C105.054 110.28 104.89 110.289 104.734 110.25C104.578 110.212 104.437 110.129 104.327 110.011C104.218 109.893 104.145 109.745 104.118 109.586C104.091 109.427 104.111 109.264 104.175 109.116C104.239 108.968 104.345 108.843 104.48 108.755C104.614 108.666 104.771 108.62 104.932 108.62C105.157 108.628 105.37 108.726 105.524 108.892C105.678 109.057 105.76 109.277 105.752 109.503Z" fill="white"/>
<path d="M108.3 109.515C108.308 109.629 108.293 109.742 108.255 109.849C108.217 109.956 108.158 110.054 108.081 110.137C108.004 110.22 107.91 110.286 107.807 110.331C107.703 110.377 107.591 110.4 107.478 110.4C107.365 110.4 107.253 110.377 107.15 110.331C107.046 110.286 106.953 110.22 106.875 110.137C106.798 110.054 106.739 109.956 106.701 109.849C106.664 109.742 106.648 109.629 106.656 109.515C106.648 109.402 106.664 109.289 106.701 109.182C106.739 109.075 106.798 108.977 106.875 108.894C106.953 108.811 107.046 108.745 107.15 108.699C107.253 108.654 107.365 108.631 107.478 108.631C107.591 108.631 107.703 108.654 107.807 108.699C107.91 108.745 108.004 108.811 108.081 108.894C108.158 108.977 108.217 109.075 108.255 109.182C108.293 109.289 108.308 109.402 108.3 109.515Z" fill="white"/>
<path d="M110.848 109.528C110.837 109.689 110.78 109.843 110.683 109.971C110.585 110.1 110.453 110.197 110.302 110.251C110.15 110.305 109.986 110.313 109.83 110.275C109.674 110.236 109.533 110.153 109.423 110.035C109.314 109.917 109.241 109.77 109.214 109.611C109.187 109.452 109.207 109.288 109.271 109.141C109.335 108.993 109.441 108.867 109.576 108.779C109.71 108.691 109.867 108.644 110.028 108.645C110.253 108.653 110.466 108.751 110.62 108.916C110.774 109.082 110.856 109.302 110.848 109.528Z" fill="white"/>
<path d="M113.396 109.54C113.385 109.701 113.327 109.856 113.229 109.985C113.131 110.114 112.997 110.211 112.845 110.264C112.692 110.318 112.527 110.325 112.371 110.285C112.214 110.245 112.073 110.159 111.964 110.039C111.856 109.92 111.784 109.77 111.76 109.61C111.735 109.45 111.758 109.286 111.825 109.139C111.892 108.991 112.001 108.867 112.138 108.781C112.275 108.696 112.435 108.652 112.596 108.657C112.818 108.67 113.026 108.77 113.175 108.935C113.324 109.1 113.404 109.317 113.396 109.54Z" fill="white"/>
</g>
<path d="M109.776 51.5883C110.054 51.4655 110.29 51.2634 110.454 51.0072C110.618 50.7509 110.704 50.4518 110.7 50.1472C110.71 49.9491 110.68 49.751 110.612 49.5649C110.544 49.3788 110.438 49.2087 110.302 49.0648C110.166 48.9209 110.002 48.8063 109.821 48.728C109.639 48.6498 109.444 48.6094 109.246 48.6094C109.048 48.6094 108.853 48.6498 108.671 48.728C108.49 48.8063 108.326 48.9209 108.19 49.0648C108.054 49.2087 107.948 49.3788 107.88 49.5649C107.812 49.751 107.782 49.9491 107.792 50.1472C107.786 50.4549 107.871 50.7575 108.036 51.0169C108.201 51.2762 108.439 51.4807 108.72 51.6044C106.48 51.9416 106.58 54.3823 106.58 54.3823L111.876 54.4064C111.876 54.4064 112 51.9215 109.776 51.5883Z" fill="#DBEAFE"/>
<path opacity="0.1" d="M109.776 51.5883C110.054 51.4655 110.29 51.2634 110.454 51.0072C110.618 50.7509 110.704 50.4518 110.7 50.1472C110.71 49.9491 110.68 49.751 110.612 49.5649C110.544 49.3788 110.438 49.2087 110.302 49.0648C110.166 48.9209 110.002 48.8063 109.821 48.728C109.639 48.6498 109.444 48.6094 109.246 48.6094C109.048 48.6094 108.853 48.6498 108.671 48.728C108.49 48.8063 108.326 48.9209 108.19 49.0648C108.054 49.2087 107.948 49.3788 107.88 49.5649C107.812 49.751 107.782 49.9491 107.792 50.1472C107.786 50.4549 107.871 50.7575 108.036 51.0169C108.201 51.2762 108.439 51.4807 108.72 51.6044C106.48 51.9416 106.58 54.3823 106.58 54.3823L111.876 54.4064C111.876 54.4064 112 51.9215 109.776 51.5883Z" fill="black"/>
<path d="M118.382 55.9805L99.506 55.8945L99.4958 58.1586L118.372 58.2446L118.382 55.9805Z" fill="#DBEAFE"/>
<path opacity="0.2" d="M118.382 55.9805L99.506 55.8945L99.4958 58.1586L118.372 58.2446L118.382 55.9805Z" fill="white"/>
<path d="M48.988 67.7139H48.8L48.256 67.754C47.9616 67.7718 47.6688 67.8107 47.38 67.8705C47.1929 67.8968 47.0073 67.933 46.824 67.9788L46.204 68.1515C45.1487 68.4764 44.1531 68.9712 43.256 69.6167C42.0707 70.4801 41.0811 71.5855 40.352 72.8603C39.9235 73.5951 39.5825 74.3779 39.336 75.1926C39.077 76.0781 38.9279 76.9922 38.892 77.9143C38.8682 78.3987 38.8762 78.8842 38.916 79.3675C38.916 79.6124 38.984 79.8573 39.016 80.1062C39.0429 80.357 39.0897 80.6054 39.156 80.8488C39.5157 82.4597 40.2455 83.9639 41.2872 85.2414C42.329 86.519 43.6538 87.5345 45.156 88.2071C46.2432 88.6779 47.4086 88.9407 48.592 88.9819C49.8143 89.0493 51.0378 88.8733 52.192 88.464L52.544 88.3315H52.592L52.632 88.3556L57.676 90.9248L57.528 91.0533C56.988 89.3753 56.468 87.7495 55.964 86.1879V86.1277L56.008 86.0835C57.2316 84.8467 58.1399 83.3319 58.656 81.6677C59.1234 80.1463 59.2598 78.5419 59.056 76.9629C58.8747 75.5597 58.4251 74.2048 57.732 72.9727C57.1345 71.9142 56.3637 70.9643 55.452 70.1626C54.6998 69.5281 53.8672 68.9963 52.976 68.581C52.3016 68.2891 51.5993 68.0672 50.88 67.9186L50.08 67.7862L49.5 67.742L49.148 67.7179H49.028C49.0679 67.7135 49.1081 67.7135 49.148 67.7179H49.504L50.084 67.742L50.884 67.8584C51.6123 67.9961 52.3242 68.21 53.008 68.4967C53.9145 68.9071 54.7621 69.4377 55.528 70.0743C56.4565 70.8724 57.2436 71.8225 57.856 72.8844C58.5688 74.1298 59.0322 75.503 59.22 76.9268C59.4407 78.5301 59.3138 80.1623 58.848 81.7119C58.3286 83.4107 57.4062 84.9576 56.16 86.22L56.184 86.1156C56.688 87.6772 57.212 89.303 57.756 90.977L57.832 91.2219L57.604 91.1054L52.56 88.5403H52.648L52.288 88.6728C51.1116 89.0882 49.8654 89.2682 48.62 89.2026C47.4111 89.1565 46.2214 88.8842 45.112 88.3998C42.9959 87.4903 41.2353 85.9095 40.1 83.8997C39.5776 82.9715 39.196 81.9703 38.968 80.9291C38.9056 80.6794 38.8588 80.426 38.828 80.1704C38.796 79.9175 38.744 79.6686 38.732 79.4197C38.6237 77.9913 38.7742 76.5551 39.176 75.1806C39.4286 74.3547 39.7791 73.5622 40.22 72.8201C40.9664 71.5338 41.9768 70.4213 43.184 69.5565C44.0959 68.9094 45.1082 68.4183 46.18 68.1033L46.808 67.9427C46.9928 67.8997 47.1797 67.8662 47.368 67.8424C47.6599 67.7881 47.9553 67.7559 48.252 67.746L48.8 67.7259C48.8623 67.7175 48.9251 67.7135 48.988 67.7139Z" fill="#DBEAFE"/>
<path d="M51.268 77.0756H50.528L48.928 74.8195V73.3382C48.928 73.3382 47.784 73.266 47.92 75.2049C48.056 77.1438 47.92 76.6501 47.92 76.6501C47.92 76.6501 45.492 76.6501 45.292 76.8709C45.092 77.0916 45.08 79.444 45.052 80.7567C45.0366 81.0732 45.1271 81.3857 45.309 81.6446C45.4909 81.9035 45.7538 82.094 46.056 82.1858C46.1407 82.2094 46.2281 82.2215 46.316 82.222C46.924 82.222 50.016 81.7282 50.016 81.7282H51.292L51.268 77.0756Z" fill="#DBEAFE"/>
<path d="M53.384 76.6777L52.928 81.7519H51.664V76.7821L53.384 76.6777Z" fill="#DBEAFE"/>
<path d="M68.46 179.979V176.547L62.328 176.503L62.276 181.693L62.656 181.722C64.348 181.83 71.264 181.991 72.4 181.637C73.664 181.244 68.46 179.979 68.46 179.979Z" fill="#DBEAFE"/>
<path d="M72.5439 181.316C72.5439 181.372 70.2479 181.421 67.4199 181.421C64.5919 181.421 62.2959 181.372 62.2959 181.316C62.2959 181.26 64.5919 181.212 67.4199 181.212C70.2479 181.212 72.5439 181.26 72.5439 181.316Z" fill="#263238"/>
<path d="M68.5679 180.681C68.5159 180.653 68.5679 180.473 68.6919 180.28C68.8159 180.087 68.9839 180.007 69.0239 180.047C69.0639 180.087 68.9799 180.24 68.8599 180.404C68.7399 180.569 68.6199 180.71 68.5679 180.681Z" fill="#263238"/>
<path d="M68.96 180.907C68.904 180.907 68.932 180.682 69.052 180.469C69.172 180.257 69.332 180.128 69.376 180.16C69.42 180.192 69.348 180.373 69.236 180.562C69.124 180.75 69.012 180.927 68.96 180.907Z" fill="#263238"/>
<path d="M64.1439 181.3C64.1199 181.3 64.0279 181.228 63.8959 181.075C63.7348 180.879 63.5553 180.699 63.3599 180.538C63.1678 180.384 62.9389 180.282 62.6959 180.245C62.5079 180.22 62.3879 180.245 62.3759 180.22C62.3639 180.196 62.4799 180.112 62.6999 180.096C62.9903 180.09 63.2735 180.186 63.4999 180.369C63.7121 180.542 63.891 180.753 64.0279 180.991C64.1199 181.168 64.1679 181.284 64.1439 181.3Z" fill="#263238"/>
<path d="M68.588 180.035C68.616 180.083 68.512 180.204 68.336 180.268C68.16 180.332 68.004 180.308 67.996 180.268C67.988 180.228 68.112 180.144 68.264 180.087C68.416 180.031 68.556 179.987 68.588 180.035Z" fill="#263238"/>
<path d="M68.492 179.702C68.492 179.762 68.332 179.811 68.124 179.815C67.916 179.819 67.752 179.77 67.756 179.714C67.76 179.658 67.924 179.606 68.124 179.602C68.324 179.598 68.484 179.646 68.492 179.702Z" fill="#263238"/>
<path d="M83.5599 179.979V176.547L77.4279 176.503L77.3759 181.641L77.7559 181.669C79.4479 181.778 86.3679 181.991 87.4999 181.637C88.7639 181.244 83.5599 179.979 83.5599 179.979Z" fill="#DBEAFE"/>
<path d="M87.6439 181.324C87.6439 181.38 85.3519 181.428 82.5199 181.428C79.6879 181.428 77.3999 181.38 77.3999 181.324C77.3999 181.268 79.6919 181.22 82.5199 181.22C85.3479 181.22 87.6439 181.268 87.6439 181.324Z" fill="#263238"/>
<path d="M83.668 180.681C83.62 180.653 83.668 180.473 83.792 180.28C83.916 180.087 84.084 180.007 84.124 180.047C84.164 180.087 84.08 180.24 83.96 180.404C83.84 180.569 83.72 180.71 83.668 180.681Z" fill="#263238"/>
<path d="M84.0599 180.907C84.0079 180.907 84.0319 180.682 84.1559 180.469C84.2799 180.257 84.4359 180.128 84.4799 180.16C84.5239 180.192 84.4479 180.373 84.3359 180.562C84.2239 180.75 84.1159 180.927 84.0599 180.907Z" fill="#263238"/>
<path d="M79.2439 181.3C79.2199 181.3 79.1319 181.228 78.9959 181.075C78.8348 180.879 78.6553 180.699 78.4599 180.538C78.2678 180.384 78.0389 180.282 77.7959 180.245C77.6119 180.22 77.4879 180.245 77.4759 180.22C77.4639 180.196 77.5799 180.112 77.7999 180.096C78.0903 180.09 78.3735 180.186 78.5999 180.369C78.8132 180.541 78.9923 180.752 79.1279 180.991C79.2199 181.168 79.2679 181.284 79.2439 181.3Z" fill="#263238"/>
<path d="M83.6879 180.035C83.7159 180.083 83.6119 180.204 83.4359 180.268C83.2599 180.332 83.1039 180.308 83.0959 180.268C83.0879 180.228 83.2119 180.144 83.3639 180.087C83.5159 180.031 83.6559 179.987 83.6879 180.035Z" fill="#263238"/>
<path d="M83.5999 179.702C83.5999 179.762 83.4399 179.811 83.2319 179.815C83.0239 179.819 82.8639 179.77 82.8679 179.714C82.8719 179.658 83.0319 179.606 83.2319 179.602C83.4319 179.598 83.5999 179.646 83.5999 179.702Z" fill="#263238"/>
<path d="M106.152 78.0549C105.992 77.8903 105.596 77.9706 105.596 77.9706C105.636 77.7394 105.636 77.5032 105.596 77.2721C105.524 77.0473 105.02 77.0914 105.02 77.0914C104.997 76.9021 104.997 76.7107 105.02 76.5214C105.024 76.4794 105.015 76.4373 104.994 76.4006C104.973 76.364 104.942 76.3347 104.904 76.3167C104.666 76.2191 104.409 76.1726 104.152 76.1802C103.844 75.9594 105.092 74.2051 105.556 73.6431C106.02 73.0811 105.936 72.6436 105.524 72.6436C105.24 72.6436 103.784 74.3296 103.336 74.8956C102.888 75.4616 101.7 77.0352 101.66 75.7788C101.62 74.5223 101.116 73.5749 100.8 73.4143C100.484 73.2537 100.148 73.6311 100.32 73.9803C100.471 74.3771 100.565 74.7934 100.6 75.2167C100.643 75.554 100.629 75.8962 100.556 76.2284C100.423 76.8464 100.243 77.4531 100.016 78.0428H99.984C99.984 78.0428 91.2559 86.4448 90.6239 87.043C90.0599 87.5809 78.716 86.4047 76.4399 86.1638C75.6665 86.0503 74.8856 85.9966 74.1039 86.0033C73.1159 86.0474 72.9399 86.1879 71.9559 86.2C69.4709 86.2277 66.9917 86.4464 64.5399 86.8543C63.4298 87.0437 62.3928 87.5355 61.5421 88.276C60.6914 89.0164 60.0597 89.9772 59.7159 91.0533C57.4239 98.239 52.2319 115.248 51.3159 124.802C50.6238 126.062 49.9989 127.357 49.4439 128.684C48.7999 130.442 48.9559 130.502 49.1719 130.542C49.7559 130.651 50.4199 127.495 50.6679 128.258C50.9159 129.021 49.4079 132.02 50.0199 132.108C50.8199 132.22 51.4559 128.896 51.5319 128.632C51.6079 128.367 52.0039 128.451 51.9319 128.7C51.8159 129.053 50.6919 132.798 51.4759 132.919C51.9079 132.983 51.9559 132.192 51.9559 132.192C51.9559 132.192 52.7559 128.607 53.1199 128.68C53.4839 128.752 53.0959 130.868 52.9119 131.574C52.7279 132.281 52.9839 132.638 53.3599 132.465C53.6159 132.345 54.2279 130.197 54.3959 129.499C54.5639 128.8 54.9839 126.865 55.5479 127.985C56.1119 129.105 56.9679 129.756 57.3199 129.772C57.3993 129.762 57.474 129.73 57.5346 129.677C57.5952 129.625 57.6389 129.556 57.6599 129.479C57.681 129.402 57.6786 129.32 57.6529 129.244C57.6272 129.168 57.5795 129.101 57.5159 129.053C57.2132 128.756 56.9533 128.418 56.7439 128.049C56.5573 127.762 56.422 127.444 56.3439 127.11C56.1828 126.444 56.0889 125.764 56.0639 125.079L55.9999 124.677C56.8959 120.225 59.4759 107.159 63.1999 98.813L64.7279 101.968L65.3919 104.305L61.3199 114.393L78.6879 114.164L76.0959 104.152L79.2439 93.7148C82.6479 93.7911 91.388 93.9195 92.8439 93.2572C94.6759 92.4543 104.152 80.4434 104.152 80.4434C104.77 79.9617 105.361 79.4471 105.924 78.9019C105.924 78.9019 106.5 78.4162 106.152 78.0549Z" fill="#FFBE9D"/>
<path d="M60.5559 106.938C61.0599 105.212 63.6479 96.6778 63.6479 96.6778C63.6479 96.6778 64.9199 103.635 64.5839 104.474C64.2749 105.192 63.9097 105.885 63.4919 106.545C60.5559 111.029 60.9399 113.273 60.9399 113.273L78.6799 112.731C78.7199 110.242 77.2519 104.454 76.9479 103.53C76.6439 102.607 77.6559 99.5842 77.6559 99.5842C77.6559 99.5842 79.6559 97.5409 79.5839 96.4892C79.5459 95.5444 79.4295 94.6045 79.2359 93.6791L90.0359 94.0806L89.6959 86.7343L74.1839 85.1768C73.6439 86.7062 68.7599 85.9555 68.7599 85.9555C63.4879 86.1322 63.1599 87.1036 60.9679 88.8138C58.7759 90.5239 55.1479 105.2 55.1479 105.2L60.5559 106.938Z" fill="#DBEAFE"/>
<path d="M71.0439 105.2C70.7365 105.255 70.4233 105.271 70.1119 105.248C69.5319 105.248 68.7359 105.208 67.8599 105.12C66.9839 105.031 66.1919 104.907 65.6279 104.794C65.3169 104.754 65.012 104.676 64.7199 104.562C65.0326 104.562 65.3447 104.591 65.6519 104.65C66.2199 104.722 67.0079 104.822 67.8799 104.911C68.7519 104.999 69.5439 105.059 70.1159 105.099C70.4277 105.103 70.7384 105.137 71.0439 105.2Z" fill="#263238"/>
<path d="M72.26 103.687C71.9524 103.838 71.6272 103.95 71.292 104.02C69.6961 104.441 68.0496 104.636 66.4 104.602C66.0586 104.613 65.7172 104.581 65.384 104.505C65.7209 104.463 66.0605 104.445 66.4 104.453C67.028 104.433 67.892 104.389 68.844 104.277C69.796 104.164 70.644 104.004 71.244 103.875C71.5772 103.786 71.9169 103.723 72.26 103.687Z" fill="#263238"/>
<path d="M78.2279 96.9346C78.2198 97.2406 78.1782 97.5449 78.1039 97.8418C77.9999 98.3998 77.8399 99.1625 77.6359 99.9975C77.4319 100.832 77.2359 101.603 77.0599 102.125C76.9891 102.424 76.8844 102.713 76.7479 102.988C76.7702 102.683 76.8265 102.381 76.9159 102.089C77.0679 101.463 77.2399 100.74 77.4319 99.9493C77.6239 99.1585 77.8079 98.4359 77.9599 97.8097C78.014 97.5083 78.104 97.2145 78.2279 96.9346Z" fill="#263238"/>
<path d="M60.744 105.915C59.8186 105.771 58.9053 105.558 58.012 105.277C57.0991 105.062 56.2033 104.781 55.332 104.434C56.2569 104.579 57.17 104.793 58.064 105.072C58.977 105.285 59.8728 105.567 60.744 105.915Z" fill="#263238"/>
<path d="M79.428 93.5903C79.2771 93.6164 79.1229 93.6164 78.972 93.5903C78.5542 93.5473 78.1439 93.4487 77.752 93.2972C77.0976 93.0505 76.5019 92.6691 76.0032 92.1775C75.5044 91.686 75.1137 91.0952 74.856 90.4431C74.5711 89.7257 74.4495 88.9535 74.5 88.183C74.5178 87.5474 74.7072 86.9286 75.048 86.3926C75.2877 86.0315 75.6457 85.7659 76.06 85.6419C76.1707 85.6112 76.2851 85.5964 76.4 85.5977C76.48 85.5977 76.52 85.5977 76.52 85.5977C76.52 85.5977 76.352 85.5977 76.084 85.7061C75.7039 85.847 75.3815 86.1112 75.168 86.4568C74.624 87.3159 74.472 88.8855 75.052 90.3507C75.3219 91.0416 75.7445 91.662 76.288 92.1652C76.7333 92.577 77.2462 92.9083 77.804 93.1447C78.3275 93.3523 78.872 93.5017 79.428 93.5903Z" fill="#263238"/>
<path d="M88.7519 93.9355C88.6519 92.7045 88.6198 91.4689 88.6559 90.2343C88.6246 89.0008 88.662 87.7665 88.7679 86.5371C88.8681 87.7668 88.9001 89.0011 88.8639 90.2343C88.8976 91.4692 88.8602 92.705 88.7519 93.9355Z" fill="#263238"/>
<path d="M74.0799 85.6257C74.1239 84.7305 74.2159 83.7189 74.2159 83.7189C74.2159 83.7189 76.4239 83.474 76.5559 81.1858C76.6879 78.8977 76.5559 73.6188 76.5559 73.6188L72.5559 71.5635L68.1159 75.068L68.7999 86.5089L72.8719 86.7698C73.1832 86.7784 73.4851 86.6628 73.7116 86.4484C73.938 86.2339 74.0705 85.938 74.0799 85.6257Z" fill="#FFBE9D"/>
<path d="M74.4759 79.3756C74.4759 79.3756 74.4759 79.4198 74.4399 79.472C74.4101 79.5098 74.3716 79.5399 74.3277 79.5594C74.2838 79.579 74.2358 79.5876 74.1879 79.5844C73.9319 79.5844 73.6839 79.2873 73.5959 78.9421C73.5541 78.7747 73.5541 78.5996 73.5959 78.4323C73.6041 78.3592 73.6304 78.2894 73.6723 78.2291C73.7142 78.1688 73.7704 78.12 73.8359 78.087C73.8897 78.0647 73.9501 78.0647 74.0039 78.087C74.0438 78.1069 74.0761 78.1393 74.0959 78.1794C74.1239 78.2476 74.0959 78.2918 74.0959 78.2878C74.0959 78.2837 74.0959 78.2476 74.0559 78.2075C74.035 78.1787 74.0042 78.1587 73.9696 78.1513C73.9349 78.1439 73.8987 78.1496 73.8679 78.1673C73.8188 78.1971 73.7781 78.2388 73.7494 78.2887C73.7207 78.3385 73.7051 78.3948 73.7039 78.4523C73.6702 78.6017 73.6702 78.7566 73.7039 78.906C73.7839 79.2191 73.9999 79.472 74.1919 79.4961C74.2295 79.5012 74.2677 79.4985 74.3041 79.4881C74.3406 79.4778 74.3746 79.46 74.4039 79.4359C74.4519 79.4037 74.4679 79.3716 74.4759 79.3756Z" fill="#EB996E"/>
<path d="M77.9279 72.3829C77.6199 71.3311 76.5039 70.8092 75.4879 70.5202C73.9399 70.0786 72.2679 69.8859 70.7559 70.4439C69.2439 71.0019 67.4279 71.9814 67.4279 73.6554C66.5359 73.5831 66.0239 74.3659 65.6719 75.3374C65.4468 75.9293 65.312 76.5518 65.2719 77.184C65.1599 79.3758 64.5479 82.4026 63.1319 84.0084C62.3319 84.9036 61.2239 85.5218 60.7679 86.6378C60.3679 87.6052 60.5759 88.7533 60.2039 89.7328C59.8719 90.5959 59.1399 91.2101 58.6039 91.9608C58.0578 92.8124 57.7365 93.7893 57.67 94.7998C57.6035 95.8103 57.7941 96.8212 58.2239 97.7374C58.6568 98.6302 59.2662 99.4251 60.0151 100.074C60.764 100.723 61.6366 101.212 62.5799 101.511C64.4483 102.081 66.4408 102.101 68.3199 101.567C69.7302 101.229 71.0458 100.574 72.1679 99.6522C73.316 98.7113 74.1046 97.4008 74.3999 95.943C74.6839 94.3051 74.2279 92.6392 73.8879 91.0094C72.8239 85.859 73.1279 85.59 74.4719 80.8089C74.5039 80.7246 74.5199 80.6363 74.5439 80.552C74.5679 80.4677 74.5799 80.4276 74.5959 80.3634C74.6341 80.1744 74.6542 79.9821 74.6559 79.7893C74.4596 79.8626 74.2465 79.8781 74.0417 79.834C73.837 79.7899 73.649 79.688 73.4999 79.5404C73.3505 79.383 73.2463 79.1879 73.1984 78.9759C73.1505 78.7639 73.1607 78.5428 73.2279 78.3361C73.3223 78.1101 73.4629 77.9064 73.6407 77.7384C73.8185 77.5703 74.0294 77.4417 74.2599 77.3606C74.7039 77.176 75.1799 77.0796 75.6159 76.8749C76.5399 76.4333 77.1799 75.518 77.6159 74.5586C77.9744 73.8937 78.085 73.1223 77.9279 72.3829Z" fill="#263238"/>
<path d="M74.6359 79.4844C74.7204 79.6097 74.7902 79.7444 74.8439 79.8858C74.9639 80.1387 75.1239 80.496 75.2999 80.9095L75.3319 80.9857H75.2479L74.8479 81.0219C74.5719 81.0219 74.3399 81.0741 74.0679 81.07C74.0442 81.0647 74.0223 81.0534 74.0041 81.0373C73.9859 81.0211 73.9721 81.0006 73.9639 80.9777C73.952 80.9412 73.952 80.9018 73.9639 80.8653C73.9732 80.8112 73.9852 80.7576 73.9999 80.7047L74.0719 80.4197C74.1081 80.2296 74.1644 80.0439 74.2399 79.8657C74.2325 80.0596 74.2043 80.252 74.1559 80.4398L74.0999 80.7248C74.0799 80.8211 74.0439 80.9697 74.0999 80.9576C74.2999 80.9576 74.5839 80.9135 74.8479 80.8974L75.2479 80.8613L75.1959 80.9496C75.0239 80.5482 74.8799 80.1708 74.7959 79.9099C74.7222 79.7766 74.6683 79.6333 74.6359 79.4844Z" fill="#DBEAFE"/>
<path d="M60.9399 113.273L78.6799 112.731L86.3999 142.975L84.9799 177.667H75.5999L76.7479 143.714L69.8879 122.659L70.9439 179.012L61.4639 179.153L60.4679 126.183C60.4239 124.71 59.9439 121.39 60.1239 119.929L60.9399 113.273Z" fill="#263238"/>
<path d="M72.248 123.088C71.9576 123.106 71.6661 123.089 71.38 123.036C70.844 122.971 70.112 122.859 69.308 122.698C68.504 122.538 67.784 122.353 67.264 122.205C66.986 122.143 66.7171 122.046 66.464 121.916C66.464 121.855 67.768 122.169 69.368 122.494C70.968 122.819 72.256 123.028 72.248 123.088Z" fill="#455A64"/>
<path d="M84.8839 175.765C84.8839 175.821 82.7599 175.869 80.1399 175.869C77.5199 175.869 75.3919 175.821 75.3919 175.765C75.3919 175.708 77.5159 175.66 80.1399 175.66C82.7639 175.66 84.8839 175.704 84.8839 175.765Z" fill="#455A64"/>
<path d="M70.8599 177.547C70.8599 177.607 68.7959 177.651 66.2519 177.651C63.7079 177.651 61.6479 177.607 61.6479 177.547C61.6479 177.487 63.7119 177.442 66.2519 177.442C68.7919 177.442 70.8599 177.491 70.8599 177.547Z" fill="#455A64"/>
<path d="M69.636 177.402C69.58 177.402 69.332 165.09 69.08 149.904C68.828 134.717 68.68 122.397 68.732 122.397C68.784 122.397 69.04 134.705 69.288 149.9C69.536 165.094 69.696 177.402 69.636 177.402Z" fill="#455A64"/>
<path d="M83.6239 175.765C83.6196 175.71 83.6196 175.655 83.6239 175.6V175.118C83.6239 174.685 83.6559 174.063 83.6799 173.272C83.7359 171.666 83.8159 169.334 83.9159 166.475C84.1319 160.727 84.4359 152.803 84.7679 144.055C84.7679 143.971 84.7679 143.891 84.7679 143.819V143.847C82.6679 135.417 80.7679 127.765 79.3879 122.229L77.7879 115.682C77.6039 114.915 77.4639 114.317 77.3639 113.9C77.3159 113.703 77.2839 113.55 77.2559 113.434C77.2404 113.382 77.231 113.328 77.228 113.273C77.2487 113.324 77.2648 113.376 77.2759 113.43C77.3079 113.542 77.3479 113.695 77.4039 113.888C77.5119 114.289 77.6679 114.899 77.8679 115.662C78.2679 117.211 78.8319 119.443 79.5359 122.193C80.9279 127.725 82.8479 135.356 84.9759 143.798V143.827C84.9759 143.899 84.9759 143.983 84.9759 144.063C84.6199 152.811 84.2959 160.731 84.0599 166.479C83.9359 169.342 83.8319 171.658 83.7599 173.272C83.7199 174.075 83.6879 174.685 83.6679 175.118C83.6679 175.323 83.644 175.484 83.64 175.6C83.6405 175.655 83.6352 175.71 83.6239 175.765Z" fill="#455A64"/>
<path d="M80.564 143.111C79.8902 143.334 79.1962 143.488 78.492 143.573C77.628 143.722 76.892 143.826 76.56 143.842V143.762C76.668 143.794 76.724 143.814 76.724 143.83C76.724 143.846 76.656 143.83 76.544 143.83H76.304L76.544 143.758C76.856 143.665 77.592 143.513 78.456 143.356C79.1489 143.205 79.855 143.123 80.564 143.111Z" fill="#455A64"/>
<path d="M80.3999 144.264C79.776 144.293 79.1508 144.264 78.5319 144.18C77.9071 144.167 77.2847 144.098 76.6719 143.975C77.922 143.873 79.1804 143.97 80.3999 144.264Z" fill="#455A64"/>
<path opacity="0.2" d="M60.864 113.912C61.0741 114.182 61.3387 114.406 61.6406 114.567C61.9425 114.728 62.2748 114.823 62.616 114.847C63.3304 114.932 64.0531 114.918 64.764 114.807C69.344 114.297 74.196 113.827 78.68 112.731C72.876 113.057 66.744 112.948 60.94 113.273L60.88 113.771" fill="black"/>
<g opacity="0.2">
<path d="M66.8439 122.121L70.1159 134.863L69.8879 122.659L66.8439 122.121Z" fill="black"/>
</g>
</svg>
