<svg width="200" height="200" viewBox="0 0 200 200" fill="none" xmlns="http://www.w3.org/2000/svg">
<path d="M77.0741 109.913C77.4741 112.413 78.0091 115.313 78.6561 117.746C78.6912 117.865 78.6778 117.992 78.6189 118.101C78.5599 118.21 78.4601 118.29 78.3416 118.326C78.223 118.361 78.0954 118.347 77.9867 118.288C77.878 118.229 77.7972 118.13 77.7621 118.011C76.8988 115.206 76.1934 112.355 75.6491 109.471C75.6318 109.382 75.6331 109.29 75.6528 109.201C75.6725 109.112 75.7102 109.028 75.7637 108.954C75.8171 108.881 75.8851 108.819 75.9634 108.772C76.0418 108.726 76.1288 108.696 76.2191 108.685C76.9753 108.648 77.6978 108.361 78.2731 107.869C79.7811 106.169 79.4511 102.255 77.3591 101.304C77.2235 101.241 77.1094 101.139 77.0309 101.012C76.9523 100.884 76.9128 100.737 76.9171 100.587C76.9677 98.9076 76.7282 97.232 76.2091 95.634C73.2831 86.966 62.7451 87.166 58.5091 92.934C58.4421 93.0337 58.3386 93.1031 58.2208 93.127C58.1031 93.151 57.9807 93.1276 57.8801 93.062C57.7811 92.9918 57.7134 92.8858 57.6913 92.7665C57.6693 92.6471 57.6947 92.5239 57.7621 92.423C63.2361 83.573 78.4491 86.21 78.4491 100.158C81.6071 102.165 81.3491 108.287 78.1841 109.612C77.8246 109.748 77.4529 109.849 77.0741 109.913Z" fill="#27272A"/>
<path d="M61.9992 99.313C62.3181 98.8813 62.784 98.5811 63.3089 98.469C63.8338 98.3568 64.3816 98.4404 64.8492 98.704C64.896 98.7442 64.9504 98.7746 65.0092 98.7933C65.068 98.8121 65.1299 98.8189 65.1913 98.8132C65.2528 98.8076 65.3125 98.7897 65.3669 98.7606C65.4213 98.7315 65.4693 98.6918 65.508 98.6438C65.5468 98.5958 65.5755 98.5405 65.5925 98.4812C65.6095 98.4219 65.6144 98.3598 65.607 98.2985C65.5995 98.2373 65.5799 98.1782 65.5492 98.1247C65.5184 98.0712 65.4773 98.0244 65.4282 97.987C63.9872 96.428 61.4222 97.017 61.1532 98.979C61.0682 99.587 61.6292 99.839 61.9992 99.313Z" fill="#27272A"/>
<path d="M63.6901 101.021C64.054 101.086 64.382 101.281 64.6128 101.569C64.8437 101.858 64.9617 102.221 64.9448 102.59C64.9279 102.959 64.7773 103.31 64.521 103.576C64.2648 103.843 63.9204 104.007 63.5521 104.038C63.1868 103.975 62.8571 103.781 62.6248 103.492C62.3925 103.203 62.2737 102.839 62.2907 102.469C62.3076 102.098 62.4591 101.747 62.7168 101.48C62.9745 101.214 63.3206 101.05 63.6901 101.021Z" fill="#27272A"/>
<path d="M59.9387 113.517C59.9647 113.367 60.2767 112.806 60.6557 112.839C61.5634 113.109 62.4361 113.485 63.2557 113.959C63.3453 114.04 63.4627 114.083 63.5832 114.079C63.7037 114.075 63.818 114.024 63.902 113.938C63.9861 113.851 64.0333 113.735 64.0338 113.615C64.0343 113.494 63.988 113.378 63.9047 113.291C61.3637 110.246 58.5907 110.939 59.0307 113.507C59.0294 113.627 59.076 113.743 59.1602 113.829C59.2444 113.916 59.3593 113.965 59.4797 113.966C59.6001 113.967 59.7161 113.921 59.8022 113.837C59.8883 113.752 59.9374 113.637 59.9387 113.517Z" fill="#27272A"/>
<path d="M74.9236 105.6C74.8646 105.158 74.7076 104.362 74.1766 104.234C73.2906 104.026 73.2146 108.877 72.6236 110.425C72.1485 111.517 71.4832 112.515 70.6586 113.374C68.4886 115.774 68.5036 114.561 67.5926 113.074C66.4926 111.374 65.7926 109.674 64.4766 108.858C64.0462 108.621 63.5774 108.461 63.0916 108.386C62.6035 108.238 62.0836 108.231 61.5916 108.366C61.0416 108.592 61.2276 109.044 61.6106 109.3C61.9989 109.466 62.4174 109.55 62.8396 109.546C63.9396 109.746 64.3876 110.71 64.8046 111.609C65.2566 112.533 65.6796 113.496 66.0826 114.44C66.2596 114.872 66.6916 115.531 66.5546 116.032C66.4266 116.484 65.5446 116.668 65.1886 116.818C64.6516 117.044 63.2716 117.663 62.7216 117.211C62.1216 116.7 61.9646 115.737 61.5326 115.098C61.3656 114.853 61.1326 114.528 60.8146 114.479C59.8306 114.346 60.8776 116.94 61.2576 117.86C60.7269 117.884 60.1963 117.811 59.6916 117.645C59.6352 117.627 59.5832 117.597 59.5386 117.558C59.4941 117.519 59.458 117.471 59.4326 117.417C58.7962 116.078 58.2496 114.697 57.7966 113.285C57.5516 112.485 57.3546 110.897 56.5966 110.385C56.4886 110.316 56.5376 110.64 56.5186 110.768C56.4186 111.919 56.4582 113.077 56.6366 114.218C56.9636 116.203 57.1016 115.745 56.8536 115.911C56.7545 115.979 56.6857 116.082 56.6618 116.2C56.6379 116.317 56.6608 116.439 56.7256 116.54C57.0852 117.32 57.6097 118.014 58.263 118.572C58.9162 119.13 59.6827 119.54 60.5096 119.773C61.9383 120.258 63.4751 120.327 64.9416 119.973C65.7006 121.592 66.1476 122.567 66.8286 123.766C66.8819 123.875 66.9748 123.958 67.0881 124C67.2014 124.042 67.3265 124.039 67.4376 123.992C67.4935 123.967 67.5437 123.93 67.5854 123.885C67.6271 123.84 67.6594 123.788 67.6804 123.73C67.7014 123.672 67.7108 123.611 67.7079 123.55C67.705 123.489 67.69 123.428 67.6636 123.373C67.2012 121.774 66.6374 120.206 65.9756 118.679C66.6416 118.399 67.3956 118.066 67.7036 117.94C69.8698 116.895 71.7764 115.381 73.2856 113.508C74.4326 112.081 75.4056 109.349 74.9236 105.6Z" fill="#27272A"/>
<path d="M40.2017 96.945C40.1826 96.8876 40.1523 96.8346 40.1125 96.789C40.0727 96.7435 40.0242 96.7064 39.9698 96.6799C39.9155 96.6534 39.8564 96.638 39.796 96.6346C39.7356 96.6313 39.6752 96.64 39.6182 96.6603C39.5612 96.6806 39.5089 96.7121 39.4643 96.7529C39.4197 96.7938 39.3837 96.8431 39.3584 96.898C39.3331 96.953 39.319 97.0124 39.317 97.0728C39.315 97.1333 39.3251 97.1935 39.3467 97.25C42.9717 107.577 37.9607 119.711 37.5087 135.105C37.2577 143.696 38.2437 153.052 42.8647 160.264C49.8477 171.182 64.0717 176.4 77.7717 171.182C77.83 171.163 77.8839 171.132 77.9301 171.091C77.9763 171.05 78.0139 171.001 78.0406 170.946C78.0674 170.89 78.0827 170.83 78.0858 170.769C78.0889 170.707 78.0796 170.646 78.0586 170.588C78.0375 170.53 78.0051 170.477 77.9632 170.432C77.9213 170.387 77.8708 170.351 77.8147 170.326C77.7585 170.301 77.6979 170.287 77.6364 170.286C77.575 170.284 77.5138 170.295 77.4567 170.318C64.6067 174.867 50.9487 170.104 44.1417 159.438C39.7007 152.438 38.8217 143.458 39.0507 135.145C39.5247 119.224 44.5327 108.566 40.2017 96.945Z" fill="#27272A"/>
<path d="M45.0649 102.969C45.3719 105.324 45.2559 105.701 45.7819 105.721C46.4649 105.747 46.5089 103.562 46.5089 102.881C46.4645 100.946 46.1336 99.0287 45.5269 97.191C45.3839 96.827 44.7799 95.454 44.2269 95.638C43.3799 95.956 44.5339 97.866 45.0649 102.969Z" fill="#27272A"/>
<path d="M49.3817 97.051C49.7667 98.7639 49.9645 100.513 49.9717 102.269C50.0267 104.769 49.9567 104.932 50.4037 105.021C51.1037 105.129 51.3847 102.69 51.4157 102.309C51.5434 100.409 51.3273 98.5014 50.7777 96.678C50.6417 96.315 50.0577 94.923 49.5197 95.125C49.0717 95.293 49.2007 95.991 49.3817 97.051Z" fill="#27272A"/>
<path d="M72.3515 138.2C72.1325 137.722 71.4515 137.973 70.2185 138.426C68.9823 138.91 67.7971 139.516 66.6805 140.234C66.4155 140.441 66.8945 140.693 63.9335 134.457C61.1865 128.649 57.9715 122.528 56.4155 115.981C54.9935 110.105 56.8155 103.886 55.2845 97.367C55.2594 97.2512 55.1901 97.1498 55.0914 97.0843C54.9926 97.0188 54.8723 96.9944 54.7558 97.0163C54.6394 97.0381 54.536 97.1046 54.4678 97.2014C54.3996 97.2983 54.3719 97.418 54.3905 97.535C55.2225 103.205 53.4015 109.978 54.9115 116.344C57.3555 126.618 63.9165 136.344 67.2945 144.835C67.3363 144.95 67.4219 145.043 67.5326 145.095C67.6432 145.146 67.7698 145.152 67.8845 145.11C67.9992 145.068 68.0926 144.983 68.1442 144.872C68.1958 144.761 68.2013 144.635 68.1595 144.52C67.0995 141.456 67.0135 141.646 67.1135 141.61C67.5185 141.467 70.6705 139.85 71.0545 139.576C72.1805 138.863 72.5355 138.583 72.3515 138.2Z" fill="#27272A"/>
<path d="M11.737 110.067C9.6264 114.288 8.05796 118.759 7.06895 123.373C5.56803 130.717 4.90213 138.207 5.08395 145.7C5.3083 149.128 6.14024 152.489 7.54095 155.626C9.00991 158.824 11.2414 161.614 14.0395 163.749C16.8377 165.884 20.1171 167.3 23.59 167.872C29.09 168.698 35.0289 167.352 40.59 164.334C40.6952 164.276 40.7738 164.18 40.8089 164.065C40.8439 163.951 40.8327 163.827 40.7775 163.72C40.7223 163.614 40.6277 163.533 40.5137 163.495C40.3998 163.458 40.2757 163.466 40.1679 163.519C23.209 172.119 7.78095 162.931 6.62595 145.603C6.44745 138.247 7.08467 130.894 8.52595 123.678C9.38738 119.139 10.7383 114.707 12.555 110.46C12.6071 110.351 12.614 110.227 12.5741 110.113C12.5343 110 12.4509 109.907 12.3424 109.854C12.234 109.802 12.1092 109.795 11.9957 109.835C11.8821 109.875 11.7891 109.958 11.737 110.067Z" fill="#27272A"/>
<path d="M36.3308 137.475C34.8596 137.908 33.4259 138.46 32.0438 139.125C28.5438 129.959 27.5658 124.36 27.2078 118.425C27.1208 117.018 27.0198 115.368 27.0408 113.688C27.0394 113.575 26.9962 113.467 26.9197 113.385C26.8431 113.302 26.7387 113.251 26.6265 113.241C26.5144 113.232 26.4026 113.264 26.3129 113.332C26.2231 113.4 26.1618 113.498 26.1408 113.609C25.8885 115.218 25.7604 116.845 25.7578 118.474C25.8692 122.268 26.413 126.036 27.3788 129.707C28.698 134.937 30.7037 139.97 33.3438 144.674C33.3692 144.73 33.4054 144.78 33.4504 144.821C33.4954 144.863 33.5482 144.895 33.6058 144.915C33.6633 144.936 33.7244 144.945 33.7855 144.942C33.8466 144.939 33.9064 144.923 33.9615 144.897C34.0165 144.87 34.0657 144.833 34.1061 144.787C34.1465 144.741 34.1773 144.687 34.1967 144.629C34.2161 144.571 34.2237 144.51 34.2191 144.449C34.2145 144.388 34.1977 144.328 34.1698 144.274C33.5818 142.964 32.8808 141.259 32.4298 140.113C33.9299 139.706 35.3689 139.101 36.7088 138.313C36.8199 138.263 36.9066 138.171 36.9497 138.057C36.9929 137.943 36.9889 137.816 36.9388 137.705C36.8887 137.594 36.7965 137.507 36.6824 137.464C36.5684 137.421 36.4419 137.425 36.3308 137.475Z" fill="#27272A"/>
<path d="M146.669 93.785C147.031 93.727 147.401 93.7796 147.732 93.9359C148.063 94.0921 148.339 94.3447 148.524 94.6606C148.708 94.9765 148.793 95.3409 148.767 95.7059C148.741 96.0709 148.606 96.4196 148.378 96.7061C148.151 96.9926 147.842 97.2037 147.492 97.3115C147.142 97.4193 146.768 97.4189 146.419 97.3104C146.069 97.2018 145.761 96.9901 145.534 96.7031C145.307 96.4161 145.172 96.0671 145.146 95.702C145.098 95.2467 145.231 94.7906 145.516 94.4321C145.801 94.0736 146.215 93.8412 146.669 93.785Z" fill="#27272A"/>
<path d="M143.358 91.841C144.578 90.455 145.723 89.58 147.663 90.013C147.776 90.056 147.902 90.0522 148.013 90.0024C148.123 89.9526 148.209 89.8609 148.252 89.7475C148.295 89.6341 148.292 89.5083 148.242 89.3978C148.192 89.2872 148.1 89.201 147.987 89.158C147.486 88.943 146.948 88.83 146.403 88.8256C145.858 88.8212 145.317 88.9255 144.813 89.1324C144.309 89.3393 143.851 89.6446 143.466 90.0306C143.081 90.4165 142.777 90.8752 142.572 91.38C142.362 91.928 142.939 92.318 143.358 91.841Z" fill="#27272A"/>
<path d="M142.249 111.871C143.132 111.589 143.951 111.134 144.656 110.531C145.362 109.929 145.94 109.192 146.357 108.363C146.599 107.763 147.046 106.571 146.425 106.397C145.983 106.273 145.925 106.648 145.502 107.291C144.995 108.026 144.405 108.699 143.742 109.296C142.078 110.691 140.396 110.778 140.48 111.478C140.526 112.08 141.861 111.96 142.249 111.871Z" fill="#27272A"/>
<path d="M72.8256 36.729C73.0191 37.0381 73.2885 37.2925 73.6081 37.4679C73.9278 37.6434 74.2871 37.7339 74.6518 37.731C75.0164 37.7281 75.3742 37.6318 75.691 37.4513C76.0079 37.2708 76.2732 37.0122 76.4616 36.7C76.8556 36.2 76.3616 35.675 75.8426 36.012C75.4849 36.2584 75.0616 36.392 74.6272 36.3956C74.1928 36.3991 73.7674 36.2725 73.4056 36.032C72.8016 35.78 72.4616 36.208 72.8256 36.729Z" fill="#27272A"/>
<path d="M74.1704 29.345C73.8275 31.0148 73.7909 32.7331 74.0624 34.416C74.065 34.4767 74.0795 34.5362 74.1051 34.5913C74.1307 34.6464 74.1668 34.6959 74.2116 34.737C74.2563 34.7781 74.3086 34.8099 74.3657 34.8308C74.4227 34.8517 74.4833 34.8611 74.5439 34.8585C74.6046 34.8559 74.6642 34.8415 74.7193 34.8159C74.7743 34.7903 74.8238 34.7541 74.8649 34.7094C74.906 34.6647 74.9379 34.6123 74.9587 34.5553C74.9796 34.4983 74.989 34.4377 74.9864 34.377C75.1943 32.7206 75.2238 31.0467 75.0744 29.384C74.9534 28.729 74.2984 28.788 74.1704 29.345Z" fill="#27272A"/>
<path d="M71.5563 28.629C72.0563 28.649 72.4313 29.209 72.4013 29.868C72.3713 30.527 71.9492 31.057 71.4482 31.037C70.9472 31.017 70.5732 30.457 70.6032 29.799C70.6332 29.141 71.0553 28.61 71.5563 28.629Z" fill="#27272A"/>
<path d="M77.8805 28.9C78.1554 28.9558 78.398 29.1159 78.5574 29.3467C78.7168 29.5776 78.7806 29.8611 78.7355 30.138C78.7055 30.806 78.2735 31.338 77.7725 31.307C77.2715 31.276 76.8975 30.737 76.9275 30.069C76.9575 29.401 77.3795 28.883 77.8805 28.9Z" fill="#27272A"/>
<path d="M85.146 31.074C85.7094 30.0244 86.0774 28.8812 86.232 27.7C86.3321 26.9455 86.2011 26.1784 85.8561 25.4999C85.5112 24.8215 84.9686 24.2636 84.3 23.9C84.6 20.721 82.929 17.567 79.475 16.854C73.593 15.678 66.847 21.237 63.25 19.105C63.122 19.0286 62.974 18.9925 62.8253 19.0015C62.6766 19.0104 62.534 19.064 62.4162 19.1553C62.2984 19.2465 62.2108 19.3712 62.1649 19.5129C62.119 19.6547 62.117 19.807 62.159 19.95C62.4951 21.0693 63.0811 22.0977 63.8728 22.9574C64.6645 23.8172 65.6411 24.4859 66.729 24.913C66.1313 26.6075 66.2222 28.4688 66.982 30.097C62.66 30.345 61.508 35.823 65.459 36.863C66.2042 37.0245 66.9674 37.0874 67.729 37.05C67.8287 37.98 68.1503 38.8724 68.6668 39.6522C69.1833 40.432 69.8796 41.0763 70.697 41.531L70.923 45.462C70.9255 45.5845 70.9766 45.701 71.065 45.7859C71.1534 45.8708 71.2719 45.917 71.3945 45.9145C71.517 45.912 71.6335 45.8609 71.7184 45.7725C71.8032 45.684 71.8495 45.5655 71.847 45.443C71.876 44.578 71.953 42.213 71.958 41.906C73.0892 42.2586 74.3028 42.2453 75.426 41.868C75.4902 41.862 75.5524 41.8427 75.6087 41.8112C75.6649 41.7796 75.714 41.7367 75.7526 41.685C75.7912 41.6334 75.8185 41.5742 75.8329 41.5113C75.8472 41.4485 75.8481 41.3833 75.8357 41.32C75.8233 41.2567 75.7977 41.1968 75.7606 41.144C75.7235 41.0912 75.6758 41.0468 75.6205 41.0137C75.5652 40.9805 75.5036 40.9593 75.4396 40.9514C75.3756 40.9435 75.3106 40.9492 75.249 40.968C72.886 41.123 70.943 40.862 69.842 38.774C69.4586 37.9698 69.219 37.1048 69.134 36.218C69.1126 36.0357 69.0266 35.8671 68.8915 35.7427C68.7565 35.6183 68.5814 35.5464 68.398 35.54C67.198 35.511 64.877 35.769 64.604 34.214C64.363 32.614 66.136 31.235 67.965 31.678C68.0733 31.7045 68.1863 31.7059 68.2953 31.6821C68.4043 31.6584 68.5064 31.6101 68.594 31.541C69.444 30.879 68.005 29.753 70.021 25.624C72.7877 26.2226 75.6375 26.3356 78.443 25.958C79.4132 25.8807 80.3782 25.7471 81.333 25.558C81.333 28.964 81.214 29.758 81.313 31.416C81.3255 31.6063 81.4095 31.7848 81.548 31.9158C81.6864 32.0469 81.8693 32.1209 82.06 32.123C83.937 32.155 85.08 32.33 85.106 33.792C85.173 35.619 83.346 35.864 81.588 35.807C81.3992 35.8002 81.2149 35.8654 81.0725 35.9895C80.93 36.1135 80.8401 36.2871 80.821 36.475C80.7753 37.2303 80.5609 37.9657 80.1937 38.6273C79.8265 39.2888 79.3158 39.8597 78.699 40.298C78.6025 40.3545 78.522 40.4346 78.4651 40.5308C78.4082 40.6271 78.3769 40.7362 78.374 40.848L78.522 44.632C78.5233 44.6927 78.5365 44.7525 78.561 44.808C78.5854 44.8636 78.6205 44.9138 78.6643 44.9558C78.7082 44.9977 78.7598 45.0307 78.8164 45.0527C78.8729 45.0747 78.9333 45.0853 78.994 45.084C79.0546 45.0827 79.1144 45.0694 79.17 45.045C79.2255 45.0206 79.2757 44.9854 79.3177 44.9416C79.3597 44.8978 79.3926 44.8461 79.4146 44.7896C79.4366 44.733 79.4473 44.6727 79.446 44.612L79.632 41.232C80.3063 40.7951 80.8826 40.2228 81.3241 39.5514C81.7657 38.8801 82.0629 38.1243 82.197 37.332C82.7513 37.3388 83.3048 37.2862 83.848 37.175C84.5165 37.0712 85.1376 36.7667 85.6291 36.3018C86.1206 35.8369 86.4592 35.2336 86.6 34.5719C86.7407 33.9102 86.6771 33.2213 86.4174 32.5966C86.1577 31.972 85.7143 31.4409 85.146 31.074Z" fill="#27272A"/>
<path d="M96.7385 55.14C94.0125 50.146 87.4605 45.523 81.5745 44.792C81.4563 44.779 81.3367 44.7976 81.2279 44.8459C81.1192 44.8942 81.0252 44.9705 80.9555 45.067C79.8681 46.5526 78.3258 47.6431 76.5625 48.173C72.9915 49.173 69.3625 47.265 68.5825 45.441C68.5154 45.2957 68.4045 45.1751 68.2653 45.096C68.1261 45.0169 67.9657 44.9833 67.8065 45C63.3919 45.651 59.2519 47.5388 55.8655 50.445C54.223 51.6412 52.9275 53.2521 52.1115 55.113C52.0718 55.236 52.0637 55.3671 52.0878 55.4941C52.1119 55.6211 52.1675 55.74 52.2495 55.84C55.0945 59.368 63.4705 62.799 67.6395 63.761C71.8085 64.723 75.6655 64.797 81.7905 63.221C88.8765 61.421 94.4795 57.911 96.6605 55.683C96.7311 55.6135 96.777 55.5227 96.7911 55.4246C96.8052 55.3265 96.7867 55.2266 96.7385 55.14Z" fill="#DBEAFE"/>
<path d="M86.6994 66.683C81.5694 67.135 74.5134 68.363 65.9834 66.948C58.8421 65.7177 52.0447 62.9806 46.0434 58.919C34.2994 51.24 31.2174 33.836 41.3564 22.8C53.3564 9.75203 79.1404 10.127 96.6164 13.021C102.146 13.94 109.177 15.313 113.736 18.593C123.195 25.419 123.477 35.749 116.399 44.263C110.889 50.916 102.999 57.182 95.7914 61.638C97.8571 61.4556 99.9383 61.7035 101.903 62.366C105.65 63.474 106.003 67.752 102.758 69.866C98.0184 72.926 87.5714 71.184 86.6994 66.683ZM93.4704 61.956C93.3769 62.0086 93.3051 62.0925 93.2674 62.1929C93.2298 62.2933 93.2288 62.4038 93.2647 62.5048C93.3006 62.6058 93.371 62.691 93.4635 62.7452C93.556 62.7994 93.6647 62.8191 93.7704 62.801C96.3871 62.3038 99.0885 62.5038 101.603 63.381C104.388 64.238 104.588 67.3 102.124 68.855C97.3364 71.82 87.7654 69.212 88.0804 65.975C88.089 65.8722 88.0752 65.7688 88.0397 65.672C88.0043 65.5751 87.9482 65.4871 87.8752 65.4142C87.8023 65.3413 87.7143 65.2851 87.6175 65.2497C87.5206 65.2142 87.4172 65.2004 87.3144 65.209C82.2234 65.562 75.0144 66.938 66.2334 65.464C59.3057 64.2437 52.7127 61.5782 46.8834 57.641C35.8994 50.43 33.0314 34.142 42.4994 23.844C54.0324 11.3 79.3244 11.718 96.3804 14.489C103.98 15.735 112.25 17.42 116.98 23.5C121.8 29.863 120.549 37.263 115.467 43.5C109.219 50.839 101.784 57.0777 93.4714 61.956H93.4704Z" fill="#27272A"/>
<path d="M102.115 121.879C99.3088 119.799 96.0824 118.358 92.6612 117.654C89.4952 116.876 83.9842 117.005 80.7302 117.254C80.3562 117.23 79.9846 117.327 79.6691 117.529C76.5271 120.58 73.3912 123.795 69.9392 125.843C69.2237 126.268 68.403 126.482 67.5711 126.462C67.0221 126.42 66.7191 126.28 67.0011 125.342C67.0419 125.2 67.0411 125.05 66.9989 124.908C66.9567 124.767 66.8749 124.641 66.7631 124.545C66.6513 124.448 66.5142 124.386 66.3682 124.366C66.2222 124.345 66.0733 124.367 65.9392 124.428C64.5016 124.991 63.2088 125.87 62.1562 127C62.0499 127.112 61.9792 127.253 61.9529 127.405C61.9265 127.557 61.9458 127.714 62.0081 127.855L66.6981 138.026C66.7826 138.205 66.9324 138.346 67.1168 138.419C67.3013 138.492 67.5067 138.492 67.6912 138.419C69.2842 137.772 70.3912 137.538 71.8972 136.955C76.7252 140.38 80.0282 146.508 81.8822 152.129C81.9285 152.266 82.013 152.387 82.1257 152.477C82.2384 152.567 82.3746 152.623 82.5182 152.639C82.6618 152.654 82.8068 152.628 82.9362 152.564C83.0655 152.5 83.1738 152.4 83.2481 152.276C83.7882 151.343 84.9031 149.471 85.5281 148.601C85.5981 148.504 85.6437 148.392 85.6611 148.274C85.6785 148.155 85.6672 148.035 85.6281 147.922C84.4891 144.754 83.8732 140.622 87.2282 140.434C87.322 140.429 87.414 140.405 87.4986 140.364C87.5833 140.324 87.6589 140.266 87.7211 140.196C87.7833 140.125 87.8308 140.043 87.8609 139.954C87.8909 139.865 87.9029 139.771 87.8962 139.677C87.6402 136.319 88.6731 133.224 92.0831 133.584C92.1766 133.594 92.2711 133.584 92.3599 133.553C92.4487 133.522 92.5296 133.472 92.5966 133.406C92.6636 133.34 92.7151 133.26 92.7474 133.172C92.7797 133.084 92.7919 132.99 92.7832 132.896C92.6632 131.88 92.6763 130.853 92.8221 129.84C93.1301 128.197 93.8802 126.973 95.5222 127.226C96.3924 127.373 97.192 127.796 97.8022 128.434C97.8591 128.496 97.9298 128.543 98.0085 128.572C98.0872 128.601 98.1717 128.612 98.2551 128.602C98.3385 128.592 98.4184 128.563 98.4883 128.516C98.5582 128.47 98.616 128.407 98.6571 128.334C99.5051 126.804 101.27 123.956 102.215 122.487C102.274 122.391 102.297 122.276 102.278 122.164C102.26 122.053 102.202 121.951 102.115 121.879Z" fill="#DBEAFE"/>
<path d="M87.9983 186.566C85.5188 184.83 83.5994 182.409 82.4753 179.599C81.3016 176.888 80.8868 173.909 81.2753 170.98C81.297 170.839 81.2784 170.694 81.2215 170.562C81.1647 170.431 81.0719 170.318 80.9539 170.237C80.8359 170.156 80.6974 170.11 80.5544 170.104C80.4114 170.098 80.2696 170.133 80.1453 170.204C74.6973 173.283 69.0533 174.819 62.9373 173.388C62.811 173.359 62.6795 173.363 62.555 173.399C62.4305 173.434 62.317 173.501 62.2249 173.592C62.1328 173.683 62.0652 173.796 62.0282 173.92C61.9912 174.044 61.9861 174.175 62.0133 174.302L64.9723 187.372C65.0145 187.54 65.1121 187.688 65.2493 187.794C65.3866 187.899 65.5554 187.955 65.7283 187.952C66.9963 187.903 86.1013 187.5 87.8803 187.48C87.9928 187.479 88.1013 187.438 88.1855 187.363C88.2698 187.289 88.3242 187.186 88.3386 187.075C88.353 186.963 88.3265 186.85 88.2639 186.756C88.2013 186.663 88.107 186.595 87.9983 186.566Z" fill="#DBEAFE"/>
<path d="M145.441 118.729C145.112 118.298 144.789 118.718 143.878 119.004C143.394 119.145 142.902 119.253 142.404 119.328C140.428 119.728 138.374 119.418 136.604 118.454C135.123 117.681 135.004 117.344 134.648 117.677C134.09 118.177 135.489 119.507 136.173 119.918C136.038 121.684 136.043 122.706 136.034 123.368C133.213 123.334 130.416 123.883 127.818 124.98C127.76 124.999 127.707 125.029 127.661 125.068C127.615 125.107 127.577 125.155 127.55 125.209C127.523 125.263 127.506 125.322 127.501 125.382C127.497 125.442 127.504 125.503 127.523 125.56C127.541 125.617 127.571 125.671 127.61 125.717C127.65 125.763 127.698 125.8 127.752 125.828C127.805 125.855 127.864 125.872 127.924 125.876C127.985 125.881 128.045 125.874 128.103 125.855C130.969 125.283 133.88 124.96 136.803 124.891C137 124.888 137.188 124.808 137.327 124.669C137.466 124.53 137.546 124.342 137.55 124.145C137.596 122.937 137.575 121.726 137.489 120.52C139.171 121.079 140.976 121.156 142.7 120.743C143.621 120.5 145.976 119.478 145.441 118.729Z" fill="#27272A"/>
<path d="M162.167 95.5C161.754 94.4962 161.082 93.6196 160.22 92.9593C159.358 92.299 158.336 91.8783 157.259 91.74C157.656 88.2626 157.12 84.7422 155.707 81.54C154.747 79.7348 153.409 78.1578 151.785 76.9163C150.16 75.6749 148.287 74.7982 146.292 74.346C143.03 73.5669 139.613 73.7376 136.444 74.838C135.083 75.352 133.334 76.561 132.622 76.459C132.719 75.9186 132.996 75.4268 133.408 75.064C134.255 74.4089 135.183 73.867 136.169 73.452C138.882 72.2504 141.897 71.9108 144.808 72.479C148.347 72.7981 151.615 74.5047 153.898 77.226C156.898 80.506 156.372 81.703 157.357 81.737C158.912 81.803 159.847 82.015 161.19 80.911C161.481 80.6771 161.713 80.3794 161.869 80.0411C162.026 79.7027 162.102 79.3329 162.093 78.9603C162.083 78.5877 161.987 78.2223 161.814 77.8926C161.64 77.5629 161.392 77.2776 161.09 77.059C160.487 76.558 159.793 76.1774 159.046 75.938C159.733 75.5554 160.381 75.108 160.982 74.602C163.965 71.796 161.017 67.302 156.382 69.256C158.905 64.414 155.544 62.243 152.234 65.128C152.579 61.328 150.719 58.579 147.468 60.128C146.331 60.6848 145.364 61.5368 144.668 62.595C144.668 61.329 145.231 57.211 142.329 56.57C139.804 56.052 138.229 59.242 137.651 61.759C137.296 63.405 137.49 63.491 137.307 63.125C136.314 61.043 134.396 59.081 132.344 60.265C131.691 60.746 131.152 61.3655 130.767 62.0792C130.381 62.7928 130.158 63.583 130.113 64.393C130.081 64.9268 130.098 65.4623 130.163 65.993C129.695 65.3354 129.117 64.7637 128.453 64.303C126.033 62.734 123.853 64.891 123.873 67.546C123.955 68.9069 124.362 70.2282 125.062 71.398C124.099 70.7265 122.955 70.3631 121.78 70.356C119.694 70.437 117.858 74.456 121.269 78.156C123.443 80.47 126.069 80.609 129.249 80.868C129.291 80.9806 129.371 81.0746 129.475 81.133C132.659 82.833 136.347 85.513 143.017 83.551C145.089 82.9295 147.03 81.9371 148.747 80.622C149.378 86.232 150.879 91.301 156.324 92.71C157.028 92.7067 157.723 92.8664 158.354 93.1766C158.986 93.4868 159.537 93.9391 159.964 94.498C160.441 95.0134 160.763 95.6519 160.896 96.3412C161.028 97.0306 160.964 97.7431 160.711 98.398C160.042 100.157 157.605 101.527 155.711 101.759C155.521 101.786 155.347 101.883 155.224 102.031C155.1 102.178 155.036 102.367 155.043 102.559C155.302 107.318 153.906 112.019 151.093 115.866C150.973 116.039 150.911 116.245 150.916 116.456C150.868 117.592 151.134 121.825 151.338 123.656C151.352 123.804 151.414 123.943 151.516 124.052C151.617 124.161 151.752 124.232 151.898 124.256C154.673 124.856 157.397 125.671 160.045 126.693C160.101 126.719 160.161 126.734 160.222 126.736C160.283 126.739 160.344 126.73 160.402 126.709C160.459 126.688 160.512 126.656 160.557 126.614C160.603 126.573 160.639 126.523 160.665 126.468C160.691 126.412 160.706 126.352 160.708 126.291C160.711 126.23 160.701 126.169 160.681 126.111C160.66 126.054 160.628 126.001 160.586 125.956C160.545 125.91 160.495 125.874 160.439 125.848C157.91 124.728 155.303 123.792 152.639 123.048C152.533 121.617 152.422 119.082 152.422 116.63C155.265 112.731 156.734 108 156.599 103.177C160.313 102.312 163.491 99.1 162.167 95.5Z" fill="#27272A"/>
<path d="M122.042 124.468C121.973 125.39 121.821 126.745 121.796 128.389C121.754 130.495 121.896 140.816 122.602 148.909C122.604 149.03 122.653 149.145 122.74 149.23C122.826 149.315 122.943 149.362 123.064 149.361C123.187 149.357 123.304 149.304 123.389 149.213C123.473 149.123 123.519 149.004 123.516 148.88C123.546 147.248 123.585 145.627 123.595 143.986C123.628 141.809 123.211 127.386 123.195 127.102C123.126 126.217 123.028 125.343 122.949 124.468C122.949 124.409 122.938 124.35 122.915 124.295C122.892 124.24 122.859 124.19 122.817 124.148C122.775 124.106 122.725 124.072 122.67 124.05C122.615 124.027 122.556 124.016 122.497 124.016C122.377 124.017 122.262 124.064 122.177 124.149C122.092 124.233 122.043 124.348 122.042 124.468Z" fill="#DBEAFE"/>
<path d="M143.215 144.573C143.045 145.982 143.128 147.409 143.46 148.789C143.465 148.911 143.519 149.027 143.609 149.11C143.699 149.193 143.819 149.237 143.942 149.231C144.064 149.226 144.18 149.173 144.263 149.082C144.346 148.992 144.389 148.872 144.384 148.75C144.507 147.349 144.417 145.937 144.119 144.563C143.962 143.947 143.359 143.962 143.215 144.573Z" fill="#27272A"/>
<path d="M86.7566 143.547C87.8002 145.256 89.0659 146.82 90.5206 148.196C91.0086 148.632 92.7136 150.162 93.1446 149.68C93.4346 149.338 93.3086 149.153 91.5526 147.18C90.2658 145.781 89.071 144.301 87.9756 142.748C87.6756 142.34 86.8376 141.248 86.4026 141.5C85.8996 141.776 86.5426 143.136 86.7566 143.547Z" fill="#27272A"/>
<path d="M93.0721 143.295C93.2851 143.583 94.8721 145.677 95.4111 145.295C95.7491 145.025 95.7021 144.712 93.9111 141.904C91.2001 137.45 90.3431 135.658 89.6651 136.027C88.5401 136.608 92.3071 142.293 93.0721 143.295Z" fill="#27272A"/>
<path d="M94.1626 131.79C94.7364 133.594 95.6322 135.279 96.8066 136.763C97.0886 137.121 98.5786 138.925 99.0866 138.493C99.4496 138.184 99.2376 137.962 97.9866 135.928C97.0038 134.486 96.1831 132.941 95.5396 131.319C94.9216 130.084 94.8036 129.704 94.3806 129.805C93.8016 129.92 94.0596 131.375 94.1626 131.79Z" fill="#27272A"/>
<path d="M85.0227 151.872C83.7567 154.672 83.4497 157.272 82.6437 159.99C80.6007 167.411 79.7227 176.235 84.0787 182.544C89.0947 189.799 99.3997 190.709 106.079 184.559C109.057 181.787 111.022 177.866 113.047 173.375C113.09 173.266 113.091 173.144 113.048 173.034C113.005 172.925 112.922 172.836 112.816 172.785C112.71 172.734 112.589 172.725 112.476 172.761C112.364 172.796 112.27 172.873 112.212 172.975C110.118 177.24 108.104 180.955 105.165 183.549C98.1127 189.749 87.1897 187.826 83.7117 178.488C81.6557 172.974 82.5357 166.047 83.9967 160.347C84.6087 157.732 84.9037 154.668 85.8537 152.229C85.9009 152.118 85.9026 151.993 85.8585 151.881C85.8143 151.769 85.7279 151.678 85.6177 151.629C85.5063 151.585 85.3824 151.586 85.2716 151.632C85.1609 151.677 85.0718 151.763 85.0227 151.872Z" fill="#27272A"/>
<path d="M119.389 127.459C119.385 127.398 119.368 127.339 119.341 127.285C119.313 127.23 119.275 127.182 119.228 127.143C119.181 127.103 119.128 127.074 119.069 127.056C119.011 127.037 118.95 127.031 118.889 127.037C112.982 127.179 106.344 133.252 102.989 138.017C103.489 136.054 104.507 132.587 105.272 130.609C105.322 130.5 105.326 130.375 105.283 130.262C105.241 130.15 105.155 130.059 105.046 130.01C104.936 129.96 104.811 129.956 104.699 129.999C104.587 130.041 104.496 130.127 104.446 130.236C103.561 131.912 102.805 133.653 102.186 135.444C99.8222 142.334 98.8862 152.244 101.095 163.502C101.331 164.731 101.629 165.944 101.9 167.178C101.912 167.237 101.936 167.294 101.97 167.344C102.004 167.394 102.048 167.437 102.099 167.471C102.15 167.504 102.206 167.527 102.266 167.538C102.325 167.55 102.387 167.549 102.446 167.537C102.506 167.525 102.562 167.501 102.612 167.467C102.662 167.433 102.705 167.389 102.739 167.338C102.772 167.288 102.795 167.231 102.806 167.171C102.818 167.112 102.817 167.05 102.805 166.991C101.398 158.621 100.725 149.844 102.229 141.491C105.363 137.217 108.402 133.491 112.829 130.621C114.647 129.282 116.743 128.368 118.961 127.948C119.082 127.939 119.195 127.883 119.275 127.791C119.355 127.7 119.396 127.58 119.389 127.459Z" fill="#27272A"/>
<path d="M167.544 129.084C170.266 130.016 172.898 131.193 175.406 132.602C179.019 134.486 182.063 137.302 184.221 140.759C189.644 149.779 191.598 161.318 192.565 171.759C192.941 175.608 194.179 179.829 194.019 183.592C194.013 183.713 194.055 183.832 194.136 183.923C194.217 184.013 194.331 184.068 194.452 184.076C194.573 184.084 194.693 184.044 194.785 183.964C194.876 183.885 194.933 183.772 194.943 183.651C195.267 179.662 194.158 175.58 193.901 171.651C193.623 167.124 193.048 162.62 192.182 158.168C190.985 151.777 188.74 145.627 185.538 139.968C183.223 136.3 179.96 133.326 176.094 131.359C173.455 130.016 170.677 128.964 167.809 128.224C167.699 128.201 167.584 128.22 167.488 128.278C167.391 128.335 167.319 128.426 167.286 128.533C167.253 128.641 167.261 128.757 167.308 128.859C167.356 128.96 167.44 129.041 167.544 129.084Z" fill="#27272A"/>
<path d="M172.636 179.978C173.073 182.351 173.735 184.678 174.612 186.926C174.643 187.045 174.72 187.146 174.826 187.208C174.932 187.269 175.058 187.286 175.177 187.255C175.295 187.224 175.397 187.147 175.458 187.041C175.52 186.935 175.537 186.809 175.506 186.69C175.092 184.305 174.421 181.973 173.506 179.732C173.494 179.67 173.47 179.611 173.434 179.559C173.399 179.507 173.353 179.462 173.299 179.429C173.246 179.396 173.185 179.374 173.123 179.365C173.06 179.356 172.997 179.361 172.936 179.378C172.875 179.395 172.819 179.425 172.77 179.465C172.721 179.505 172.682 179.555 172.653 179.612C172.625 179.668 172.609 179.73 172.606 179.793C172.603 179.856 172.613 179.919 172.636 179.978Z" fill="#27272A"/>
<path d="M171.193 150.188C171.146 150.05 171.059 149.93 170.944 149.841C170.828 149.752 170.689 149.699 170.544 149.688C169.039 149.559 167.122 149.448 164.915 149.357C165.895 143.117 166.044 139.992 165.876 127.479C165.846 125.526 165.728 124.061 165.66 122.742C165.662 122.683 165.651 122.624 165.63 122.568C165.608 122.513 165.576 122.462 165.535 122.419C165.494 122.376 165.445 122.342 165.391 122.318C165.336 122.294 165.278 122.281 165.218 122.28C165.099 122.279 164.983 122.325 164.897 122.407C164.811 122.49 164.76 122.604 164.756 122.723C163.846 130.823 164.837 136.647 163.946 149.323C155.355 149 124.383 148.682 117.78 150.205C117.671 150.231 117.569 150.28 117.481 150.349C117.393 150.418 117.32 150.505 117.269 150.605C111.328 162.215 114.006 174.536 115.647 186.722C115.651 186.781 115.666 186.839 115.691 186.892C115.717 186.946 115.753 186.993 115.797 187.033C115.842 187.072 115.893 187.102 115.949 187.122C116.005 187.141 116.064 187.149 116.123 187.146C116.182 187.143 116.24 187.128 116.293 187.102C116.347 187.076 116.394 187.04 116.434 186.996C116.473 186.952 116.503 186.9 116.523 186.844C116.542 186.788 116.551 186.729 116.547 186.67L168.937 187.452C168.94 187.566 168.984 187.676 169.062 187.759C169.14 187.843 169.246 187.895 169.36 187.906C169.474 187.916 169.588 187.884 169.68 187.816C169.772 187.748 169.836 187.649 169.859 187.537C172.44 174.751 175.19 162.644 171.193 150.188Z" fill="#DBEAFE"/>
<path d="M81.2777 75.5C81.3667 75.4387 81.476 75.414 81.5827 75.431C84.4487 75.648 87.7277 79.844 85.7107 82.448C83.3497 85.5 77.2217 81.52 78.0017 77.669C78.0555 77.3022 78.186 76.9508 78.3847 76.6378C78.5834 76.3248 78.8459 76.0572 79.1551 75.8526C79.4642 75.6479 79.8131 75.5107 80.1788 75.4499C80.5445 75.3892 80.919 75.4063 81.2777 75.5ZM81.3867 76.326C81.2999 76.375 81.1999 76.3957 81.1007 76.385C80.8003 76.3704 80.5024 76.4457 80.2452 76.6014C79.9879 76.7571 79.783 76.9861 79.6567 77.259C78.6737 79.135 81.0127 81.767 83.2927 81.986C83.5306 82.0075 83.77 81.9702 83.9901 81.8773C84.2101 81.7844 84.4039 81.6388 84.5543 81.4533C84.7048 81.2679 84.8074 81.0482 84.8529 80.8138C84.8985 80.5794 84.8857 80.3373 84.8157 80.109C84.5217 78.577 82.9787 76.639 81.4547 76.345C81.4357 76.333 81.4017 76.333 81.3867 76.323V76.326Z" fill="#27272A"/>
<path d="M86.8238 72.348C86.8529 72.2779 86.9006 72.217 86.9618 72.172C88.4158 70.737 90.8668 72.863 90.7058 75.022C90.5388 77.022 87.7228 77.813 86.3428 75.542C86.1603 75.3023 86.0278 75.0285 85.9531 74.7367C85.8784 74.4449 85.8631 74.1411 85.9079 73.8433C85.9528 73.5455 86.0569 73.2597 86.2142 73.0028C86.3716 72.746 86.5788 72.5233 86.8238 72.348ZM87.7178 72.82C87.6848 72.862 87.6487 72.9015 87.6098 72.938C87.4194 73.2004 87.3186 73.5171 87.3222 73.8413C87.3258 74.1655 87.4336 74.4799 87.6298 74.738C88.2718 75.732 89.1928 75.481 89.1928 74.708C89.1428 73.915 88.4258 72.669 87.7178 72.82Z" fill="#27272A"/>
<path d="M106.248 74.941C106.9 75.0486 107.504 75.3514 107.979 75.8094C108.455 76.2674 108.78 76.859 108.912 77.506C109.162 78.896 107.905 80.106 105.58 79.452C102.454 78.629 102.288 76.092 103.791 75.187C104.16 74.9748 104.57 74.8432 104.994 74.8008C105.417 74.7584 105.845 74.8062 106.248 74.941ZM106.376 75.973C106.366 75.9731 106.356 75.9696 106.347 75.963C106.134 75.9495 105.92 75.9593 105.708 75.992C105.402 76.0435 105.107 76.1449 104.833 76.292C104.558 76.42 104.333 76.616 104.45 76.97C104.68 77.691 106.375 78.147 106.85 78.11C107.393 78.091 107.624 77.991 107.43 77.324C107.248 76.7643 106.875 76.2862 106.376 75.973Z" fill="#27272A"/>
<path d="M138.776 90.836C136.459 86.9423 132.961 83.8888 128.79 82.1193C124.619 80.3498 119.992 79.9565 115.583 80.9964C111.173 82.0363 107.209 84.4554 104.268 87.9021C101.327 91.3487 99.5622 95.6434 99.2291 100.162C99.0691 103.461 99.6875 106.751 101.034 109.766C102.381 112.782 104.419 115.438 106.982 117.52C100.977 126.095 99.5231 127.627 99.1381 129.502C98.9782 130.007 99.0053 130.553 99.2146 131.041C99.4239 131.528 99.8014 131.923 100.278 132.155C101.26 132.555 102.29 131.886 103.049 131.143C104.271 129.943 104.658 129.066 111.112 120.15C115.157 122.104 119.719 122.72 124.137 121.906C128.554 121.093 132.598 118.893 135.681 115.626C138.764 112.359 140.727 108.195 141.283 103.737C141.839 99.2796 140.961 94.7607 138.776 90.836ZM138.923 101.882C138.708 106.829 136.537 111.488 132.887 114.834C129.237 118.18 124.407 119.939 119.46 119.724C114.513 119.509 109.854 117.338 106.508 113.688C103.162 110.038 101.403 105.208 101.618 100.261C101.802 95.253 103.955 90.5201 107.61 87.0915C111.265 83.6628 116.126 81.8158 121.135 81.952C130.82 82.416 139.421 91.25 138.923 101.882Z" fill="#27272A"/>
<path d="M127.165 95.949C126.851 95.4577 126.411 95.0599 125.891 94.7972C125.37 94.5346 124.789 94.4167 124.207 94.456C123.753 94.404 123.293 94.4528 122.86 94.5989C122.427 94.7449 122.031 94.9847 121.701 95.301C120.778 96.2063 120.216 97.4168 120.12 98.7063C120.024 99.9958 120.401 101.276 121.18 102.308C121.488 102.723 121.883 103.065 122.339 103.307C122.795 103.55 123.299 103.689 123.815 103.712C124.331 103.735 124.846 103.644 125.322 103.443C125.797 103.243 126.223 102.939 126.566 102.553C127.368 101.666 127.859 100.542 127.967 99.3509C128.075 98.16 127.794 96.9662 127.165 95.949Z" fill="#27272A"/>
<path d="M132.601 101.045C132.466 103.245 132.148 104.812 132.041 107.069C132.01 107.938 131.788 109.144 132.198 109.841C132.405 110.154 132.697 110.402 133.04 110.555C133.383 110.708 133.762 110.76 134.134 110.705C134.253 110.707 134.368 110.663 134.455 110.582C134.542 110.501 134.595 110.39 134.603 110.272C134.61 110.153 134.572 110.036 134.496 109.945C134.419 109.854 134.311 109.795 134.193 109.782C132.793 109.582 133.227 109.142 133.476 107.187C133.701 104.693 133.902 104.187 134.144 101.143C134.615 95.221 134.925 94.471 134.331 94.352C133.229 94.14 132.684 99.954 132.601 101.045Z" fill="#27272A"/>
<path d="M116.502 85.45C117.517 85.1294 118.611 85.1675 119.602 85.558C121.064 86.184 121.708 87.628 120.496 89.508C119.166 91.516 117.231 92.667 115.553 94.049C114.474 94.936 113.461 96.075 112.035 96.466C111.523 96.6562 110.958 96.643 110.456 96.4291C109.953 96.2152 109.552 95.8168 109.335 95.316C108.87 94.0986 108.884 92.7502 109.375 91.543C110.039 90.1117 110.992 88.8332 112.174 87.7879C113.356 86.7427 114.742 85.9531 116.244 85.469C116.327 85.4401 116.416 85.4336 116.502 85.45ZM116.66 86.275C114.117 87.5602 112.051 89.6224 110.76 92.162C110.433 92.912 110.383 94.562 110.96 94.962C111.822 95.5 113.916 93.407 114.576 92.862C116.137 91.606 121.292 88.288 119.451 86.808C118.692 86.2994 117.764 86.1087 116.866 86.277C116.797 86.2969 116.725 86.2962 116.657 86.275H116.66Z" fill="#27272A"/>
<path d="M109.363 100.689C113.163 101.638 111.973 108.512 107.8 107.834C103.094 106.976 104.933 99.598 109.019 100.463C109.09 100.47 109.159 100.495 109.219 100.534C109.278 100.574 109.328 100.627 109.363 100.689ZM108.901 101.367C106.666 101.436 105.379 105.829 108.065 106.311C110.205 106.711 111.273 102.524 109.156 101.583C109.101 101.566 109.051 101.538 109.007 101.501C108.963 101.464 108.927 101.418 108.901 101.367Z" fill="#27272A"/>
<path d="M26.0557 91.7C24.0297 90.8293 21.8938 90.2408 19.7077 89.951C18.5895 89.7311 17.4296 89.9046 16.4247 90.442C14.9917 91.342 14.3677 92.979 13.8997 94.599C12.9484 98.1859 12.677 101.919 13.0997 105.606C13.3177 107.389 13.8067 109.339 15.1927 110.471C17.7817 112.542 21.7817 111.501 24.9927 110.771C25.1022 110.739 25.1958 110.668 25.2556 110.571C25.3154 110.473 25.3369 110.358 25.3161 110.246C25.2953 110.133 25.2336 110.033 25.143 109.964C25.0524 109.895 24.9393 109.862 24.8257 109.871C22.2257 110.285 18.1257 111.116 16.1087 109.36C15.0927 108.493 14.7547 106.749 14.6147 105.429C14.237 101.942 14.4969 98.4158 15.3817 95.022C16.4097 91.422 17.5427 91.239 19.5877 91.422C21.6897 91.6027 23.7696 91.9844 25.7987 92.562C25.8552 92.5795 25.9145 92.5857 25.9734 92.58C26.0322 92.5744 26.0894 92.5571 26.1415 92.5292C26.1936 92.5013 26.2396 92.4633 26.2769 92.4174C26.3142 92.3715 26.342 92.3187 26.3587 92.262C26.3905 92.1473 26.3767 92.0248 26.3202 91.9201C26.2638 91.8153 26.169 91.7365 26.0557 91.7Z" fill="#27272A"/>
<path d="M35.1659 94.959C35.0561 94.2033 34.8445 93.4659 34.5369 92.767C34.2205 92.0472 33.7851 91.3859 33.2489 90.811C33.1758 90.7159 33.068 90.6537 32.9491 90.6382C32.8302 90.6226 32.71 90.6549 32.6149 90.728C32.5198 90.801 32.4576 90.9089 32.4421 91.0278C32.4265 91.1467 32.4588 91.2669 32.5319 91.362C32.7705 91.7717 32.9602 92.208 33.0969 92.662C29.7829 94.31 29.3529 99.262 29.2969 102.92C29.3739 104.529 30.2579 107.62 31.8689 107.637C31.6489 108.002 31.3979 108.413 30.9689 108.391C30.9078 108.382 30.8455 108.386 30.7858 108.401C30.7261 108.417 30.6702 108.445 30.6214 108.483C30.5726 108.52 30.5319 108.568 30.5017 108.622C30.4716 108.675 30.4526 108.735 30.4459 108.796C30.4391 108.858 30.4448 108.92 30.4626 108.979C30.4804 109.038 30.5099 109.093 30.5494 109.14C30.5889 109.188 30.6375 109.227 30.6924 109.255C30.7473 109.283 30.8073 109.3 30.8689 109.305C31.1608 109.344 31.4579 109.311 31.7339 109.208C32.0098 109.105 32.2561 108.936 32.4509 108.715C33.1467 107.884 33.683 106.931 34.0329 105.905C35.4475 102.439 35.8406 98.641 35.1659 94.959ZM33.2659 96.059C32.7179 97.759 31.8459 101.097 31.8209 101.199C31.8131 101.26 31.7935 101.318 31.7632 101.371C31.7328 101.424 31.6923 101.471 31.644 101.508C31.5957 101.545 31.5404 101.573 31.4815 101.589C31.4225 101.605 31.361 101.609 31.3004 101.601C31.2398 101.594 31.1813 101.574 31.1283 101.544C31.0752 101.513 31.0287 101.473 30.9913 101.425C30.9539 101.376 30.9265 101.321 30.9104 101.262C30.8944 101.203 30.8901 101.142 30.8979 101.081C30.8568 99.1533 31.4014 97.2586 32.4599 95.647C32.8359 95.159 33.4529 95.478 33.2659 96.059Z" fill="#27272A"/>
<path d="M20.7917 96.6C20.7537 95.0042 20.1474 93.4744 19.0817 92.286C19.0055 92.1903 18.8948 92.1284 18.7733 92.1136C18.6519 92.0988 18.5296 92.1324 18.4327 92.207C18.386 92.2443 18.3472 92.2905 18.3185 92.3428C18.2897 92.3952 18.2716 92.4528 18.2652 92.5121C18.2588 92.5715 18.2642 92.6316 18.2811 92.6889C18.298 92.7462 18.326 92.7996 18.3637 92.846C18.6457 93.3687 18.8434 93.9326 18.9497 94.517C17.7515 96.211 17.0502 98.2059 16.9247 100.277C16.8667 100.809 16.7537 102.312 16.7667 103.108C16.7872 104.078 16.8825 105.045 17.0517 106C17.2007 106.6 17.5957 107.325 18.2117 107.293C18.0858 107.697 17.865 108.066 17.5677 108.367C17.4743 108.445 17.4142 108.555 17.3997 108.675C17.3852 108.796 17.4174 108.917 17.4897 109.015C17.9977 109.682 18.9707 108.363 19.3897 107.531C20.7202 104.051 21.2009 100.303 20.7917 96.6ZM19.0717 101.469C19.0626 101.592 19.0053 101.705 18.9123 101.786C18.8193 101.866 18.6982 101.906 18.5757 101.897C18.4531 101.888 18.3392 101.831 18.2589 101.738C18.1787 101.645 18.1386 101.524 18.1477 101.401C18.0136 100.096 18.1542 98.7767 18.5607 97.529C18.6507 97.298 18.8167 97.102 19.0607 97.129C19.9677 97.213 19.2817 100.593 19.0717 101.468V101.469Z" fill="#27272A"/>
<path d="M58.7458 99.659C58.7409 98.7835 58.6376 97.9114 58.4378 97.059C58.302 96.2278 57.9447 95.4487 57.4033 94.8035C56.862 94.1584 56.1568 93.6711 55.3618 93.393C53.9488 92.808 38.2308 88.524 34.3998 88.106C32.7078 87.922 31.1348 87.918 29.9088 89.099C27.6415 91.5016 26.1498 94.531 25.6278 97.793C25.3319 97.7213 25.0399 97.6345 24.7528 97.533C24.6458 97.3 24.5178 97.095 24.2618 97.11C24.0058 97.125 23.9258 97.351 23.8388 97.592C23.6148 98.212 24.1468 98.905 25.4468 98.892C25.2187 100.505 25.1677 102.138 25.2948 103.762C23.7208 103.857 23.3108 105.262 23.7528 105.562C24.1608 105.834 24.8168 104.983 25.4168 104.862C26.4678 112.362 30.3408 112.59 37.9378 111.553C38.0604 111.539 38.1722 111.476 38.2487 111.38C38.3252 111.283 38.3601 111.16 38.3458 111.037C38.3315 110.914 38.2691 110.803 38.1723 110.726C38.0756 110.65 37.9524 110.615 37.8298 110.629C35.2738 110.889 31.0928 111.373 29.0138 109.892C27.5278 108.808 27.1308 106.818 26.8618 104.992C26.1618 100.205 27.4368 93.599 30.9798 90.211C31.8218 89.411 33.0798 89.511 34.2428 89.641C36.8018 90.0214 39.3305 90.5832 41.8098 91.322C46.3608 92.5 53.5188 94.255 54.7998 94.768C56.0998 95.3 56.8098 95.899 57.2668 97.933C57.7467 100.151 57.562 102.462 56.7358 104.576C56.7007 104.691 56.7125 104.815 56.7688 104.921C56.8251 105.027 56.9211 105.106 57.0358 105.141C57.1505 105.176 57.2745 105.164 57.3805 105.108C57.4864 105.052 57.5657 104.956 57.6008 104.841C58.1265 103.55 58.4958 102.201 58.7008 100.823C59.5128 101.156 60.0808 101.447 59.9788 103.236C59.9158 104.936 58.6578 105.91 57.7478 105.752C57.6318 105.714 57.5055 105.724 57.3967 105.779C57.288 105.835 57.2056 105.931 57.1678 106.047C57.13 106.163 57.1399 106.289 57.1952 106.398C57.2505 106.507 57.3468 106.589 57.4628 106.627C57.8032 106.766 58.1691 106.832 58.5367 106.82C58.9042 106.808 59.2651 106.719 59.5958 106.558C60.1883 106.249 60.6827 105.781 61.0231 105.206C61.3634 104.632 61.5362 103.973 61.5218 103.305C61.6178 101.192 60.8118 99.468 58.7458 99.659Z" fill="#27272A"/>
<path d="M74.193 136.4C74.951 135.72 77.537 134.056 84.463 128.646C84.5634 128.576 84.6317 128.468 84.6529 128.347C84.674 128.227 84.6464 128.102 84.576 128.002C84.5056 127.902 84.3982 127.833 84.2774 127.812C84.1566 127.791 84.0324 127.819 83.932 127.889C81.321 129.528 75.094 133.844 73.532 135.771C73.4486 135.859 73.4034 135.976 73.4064 136.097C73.4094 136.218 73.4603 136.333 73.548 136.416C73.6356 136.499 73.7528 136.545 73.8738 136.542C73.9947 136.539 74.1096 136.488 74.193 136.4Z" fill="#27272A"/>
<path d="M140.827 175.513C141.713 176.602 142.744 177.565 143.893 178.373C144.406 178.704 145.793 179.522 146.124 179.002C146.489 178.428 145.558 178.171 142.153 174.766C141.731 174.374 140.815 173.552 140.414 173.911C140.025 174.242 140.656 175.257 140.827 175.513Z" fill="#27272A"/>
</svg>
