<svg width="200" height="200" viewBox="0 0 200 200" fill="none" xmlns="http://www.w3.org/2000/svg">
<path d="M31.0479 80.1671C30.9788 80.1743 30.9147 80.2068 30.8682 80.2585C30.8217 80.3101 30.7959 80.3771 30.7959 80.4466C30.7959 80.5161 30.8217 80.5832 30.8682 80.6348C30.9147 80.6864 30.9788 80.719 31.0479 80.7261C42.4579 80.2501 56.9939 78.8421 72.4259 79.3841C72.4944 79.3759 72.5575 79.3429 72.6033 79.2913C72.6491 79.2397 72.6744 79.1731 72.6744 79.1041C72.6744 79.0351 72.6491 78.9686 72.6033 78.917C72.5575 78.8654 72.4944 78.8323 72.4259 78.8241C58.4139 78.3991 46.4269 79.3431 31.0479 80.1671Z" fill="#DBEAFE"/>
<path d="M82.4913 79.5004H85.1193C85.1884 79.4932 85.2524 79.4607 85.299 79.4091C85.3455 79.3575 85.3713 79.2904 85.3713 79.2209C85.3713 79.1514 85.3455 79.0844 85.299 79.0327C85.2524 78.9811 85.1884 78.9486 85.1193 78.9414H82.4913C82.4221 78.9486 82.3581 78.9811 82.3116 79.0327C82.265 79.0844 82.2393 79.1514 82.2393 79.2209C82.2393 79.2904 82.265 79.3575 82.3116 79.4091C82.3581 79.4607 82.4221 79.4932 82.4913 79.5004Z" fill="#DBEAFE"/>
<path d="M194.269 54.2206C193.73 52.4826 192.169 47.8816 191.53 46.1686C190.971 44.7146 190.523 43.0376 189.348 41.9186C188.863 41.4968 188.29 41.1877 187.672 41.0137C187.053 40.8398 186.403 40.8053 185.77 40.9126C185.044 41.0398 184.361 41.347 183.785 41.8061C183.208 42.2652 182.756 42.8616 182.47 43.5406C181.799 44.8826 181.407 46.4476 180.401 47.6226C180.289 47.7896 180.457 48.0696 180.625 47.9576C182.805 46.5576 182.47 43.1486 184.874 42.0306C185.423 41.7813 186.024 41.6664 186.627 41.6956C187.23 41.7249 187.818 41.8973 188.341 42.1986C189.627 42.9816 190.074 44.5986 190.578 45.8886C191.808 49.1886 192.978 52.5426 193.933 55.9536C194.268 57.0166 194.66 58.5816 193.765 59.4766C192.965 60.2766 192.542 59.6766 191.976 58.9766C189.455 55.8956 189.443 53.9906 187.95 52.7696C186.999 51.9306 185.15 51.5396 184.315 52.7696C184.092 53.1056 184.539 53.3846 184.815 53.1616C185.055 52.9691 185.34 52.8421 185.644 52.793C185.948 52.7439 186.259 52.7745 186.548 52.8816C187.198 53.152 187.746 53.6219 188.113 54.2236C188.306 54.5536 190.427 59.0026 192.084 60.2066C192.376 60.4076 192.727 60.5057 193.081 60.4854C193.435 60.4651 193.773 60.3277 194.041 60.0946C195.652 58.8876 194.879 56.1886 194.269 54.2206Z" fill="#27272A"/>
<path d="M167.429 153.808C166.969 155.51 166.332 157.16 165.529 158.729C165.137 159.512 164.746 160.351 164.355 161.129C163.618 162.499 162.684 164.112 163.236 165.547C163.384 165.876 163.608 166.164 163.891 166.388C164.173 166.612 164.505 166.764 164.858 166.833C165.609 166.946 166.375 166.889 167.101 166.666C167.827 166.444 168.493 166.061 169.052 165.547C171.052 163.966 171.916 161.41 173.47 159.339C175 157.299 176.97 155.593 177.943 153.413C179.043 150.933 178.92 148.302 176.713 146.647C176.011 146.131 175.178 145.821 174.308 145.752C174.029 145.696 173.972 146.032 174.196 146.144C174.548 146.276 174.885 146.444 175.202 146.644C175.538 146.812 175.874 146.979 176.154 147.144C178.111 148.514 178.307 150.52 177.439 152.736C176.383 155.376 173.954 156.924 171.96 160.117C171.208 161.524 170.348 162.87 169.387 164.143C168.953 164.707 168.405 165.172 167.778 165.51C167.152 165.847 166.462 166.048 165.752 166.1C165.406 166.148 165.054 166.088 164.744 165.928C164.433 165.767 164.18 165.515 164.019 165.205C163.598 164.049 164.693 162.326 165.25 161.123C166.53 158.764 167.542 156.27 168.269 153.686C168.752 151.974 168.81 150.17 168.437 148.43C168.421 148.395 168.393 148.367 168.359 148.349C168.325 148.331 168.286 148.325 168.248 148.331C168.21 148.338 168.175 148.356 168.148 148.384C168.122 148.412 168.105 148.448 168.101 148.486C168.111 150.282 167.885 152.071 167.429 153.808Z" fill="#27272A"/>
<path d="M139.3 57.9143C139.523 58.0253 139.691 57.6343 139.468 57.4663C121.159 48.0493 96.4003 51.9093 86.8003 70.2153L86.1293 71.5573C85.9053 72.0053 86.5763 72.3403 86.7443 71.9493C94.0513 57.3343 109.453 51.5243 125.438 53.7763C130.209 54.5931 134.863 55.9825 139.3 57.9143Z" fill="#27272A"/>
<path d="M42.4551 124.843C50.1701 124.782 48.7901 124.395 64.7101 124.395C72.5381 124.452 96.5261 125.066 100.552 125.066C100.888 125.066 103.069 118.356 103.572 116.958C104.69 113.94 111.177 95.2633 113.581 89.0583C114.755 86.0953 115.981 83.1873 117.16 80.2243C117.16 80.1683 117.16 80.1123 117.103 80.1123C117.095 80.0458 117.062 79.985 117.009 79.9431C116.957 79.9012 116.891 79.8815 116.824 79.8883C112.462 79.3641 108.076 79.0637 103.683 78.9883C103.615 78.9965 103.551 79.0295 103.506 79.0811C103.46 79.1327 103.435 79.1993 103.435 79.2683C103.435 79.3373 103.46 79.4039 103.506 79.4555C103.551 79.5071 103.615 79.5401 103.683 79.5483C108.045 79.6593 112.35 79.8833 116.657 80.3863C115.333 82.745 114.175 85.1925 113.189 87.7113C109.807 95.8603 100.119 124.025 100.049 124.281C86.7251 123.881 54.1021 122.793 42.3431 124.449C42.2311 124.507 42.2311 124.845 42.4551 124.843Z" fill="#DBEAFE"/>
<path d="M60.012 159.626C59.7332 159.441 59.433 159.291 59.118 159.179C54.141 157.279 48.718 161.579 47.543 166.336C46.743 169.661 48.379 172.271 51.96 171.984C54.515 171.64 56.8693 170.414 58.615 168.517C60.739 166.393 63.469 161.792 60.012 159.626ZM55.712 169.58C54.8531 170.167 53.8441 170.497 52.804 170.53C52.636 170.53 52.525 170.25 52.692 170.195C53.7634 169.724 54.7925 169.163 55.768 168.517C57.0321 167.681 58.1315 166.62 59.011 165.386C60.129 163.653 59.962 161.192 57.611 160.686C57.499 160.686 57.555 160.518 57.611 160.518C58.1077 160.409 58.6265 160.471 59.0832 160.695C59.54 160.918 59.9078 161.289 60.127 161.748C61.7 164.53 58.4 167.84 55.707 169.58H55.712Z" fill="#DBEAFE"/>
<path d="M85.7341 158.843C81.3061 158.192 76.8231 162.223 75.7811 166.392C74.9811 169.733 76.6341 172.325 80.1991 172.039C82.574 171.75 84.7812 170.666 86.4611 168.963C88.0831 167.398 89.9281 164.994 89.8721 162.589C89.7801 160.275 88.0151 159.128 85.7341 158.843ZM84.9521 169.02C84.5436 169.391 84.0404 169.643 83.4981 169.747C83.446 169.745 83.3952 169.73 83.35 169.704C83.3049 169.678 83.2669 169.641 83.2393 169.597C83.2116 169.553 83.1952 169.503 83.1916 169.451C83.1879 169.399 83.197 169.347 83.2181 169.299C83.6613 168.782 84.1912 168.347 84.7841 168.013C86.1218 167.026 87.0715 165.601 87.4681 163.987C87.6911 162.812 87.3561 160.744 85.9021 160.52C85.8574 160.51 85.8174 160.486 85.7887 160.45C85.76 160.414 85.7443 160.37 85.7443 160.324C85.7443 160.279 85.76 160.234 85.7887 160.199C85.8174 160.163 85.8574 160.139 85.9021 160.129C87.0761 159.849 87.7471 160.968 88.0831 161.862C89.0301 164.23 87.9831 166.101 86.1261 167.957C85.7775 168.356 85.3835 168.713 84.9521 169.02Z" fill="#DBEAFE"/>
<path d="M101.615 159.18C105.024 158.88 107.989 156.105 109.331 153.085C109.946 151.685 110.002 150.066 108.716 149.003C107.577 148.2 106.184 147.843 104.8 148.002C99.8856 148.493 96.1226 155.035 98.4806 157.902C98.8348 158.382 99.3148 158.756 99.8677 158.982C100.421 159.207 101.025 159.276 101.615 159.18ZM103.684 157.335C103.516 157.335 103.404 157.111 103.516 157C104.299 156.217 105.361 155.769 106.088 154.931C106.927 153.98 108.604 151.296 107.207 150.178C106.983 150.01 107.262 149.678 107.486 149.786C110.613 151.424 106.238 157.335 103.684 157.335Z" fill="#DBEAFE"/>
<path d="M80.9259 47.3444C81.9056 45.9349 82.4141 44.2516 82.3789 42.5354C82.3229 41.0254 81.8789 39.0684 80.5339 38.1744C80.3099 38.0064 80.0339 38.3414 80.1429 38.5654C81.6519 41.3654 82.0429 44.2134 80.1989 46.9534C78.2989 49.7534 74.9419 51.2024 71.8109 52.1534C68.5109 53.1044 64.9329 53.4954 61.9109 55.1724C60.5172 55.903 59.3734 57.0332 58.6262 58.418C57.879 59.8029 57.5623 61.3794 57.7169 62.9454C57.9683 64.6501 58.71 66.2449 59.8517 67.5355C60.9933 68.8261 62.4857 69.7569 64.1469 70.2144C64.3149 70.2704 64.3709 70.0464 64.2029 69.9904C61.2959 68.8164 58.7789 66.2444 58.4439 63.0574C58.2997 62.0376 58.391 60.9983 58.7108 60.0192C59.0306 59.0402 59.5705 58.1474 60.2889 57.4094C64.2939 52.7924 75.9709 54.5924 80.9259 47.3444Z" fill="#27272A"/>
<path d="M84.3361 30.8497C84.491 30.3978 84.5046 29.9095 84.3749 29.4498C84.2451 28.9901 83.9784 28.5809 83.6101 28.2767C83.2678 28.0577 82.8699 27.9414 82.4636 27.9414C82.0573 27.9414 81.6594 28.0577 81.3171 28.2767C80.6373 28.7471 80.1119 29.4082 79.8071 30.1767C79.5841 29.0017 78.1301 29.1137 78.2411 30.4557C78.0741 30.3437 77.9621 30.2317 77.7941 30.1207C77.4445 29.9112 77.0547 29.778 76.65 29.7297C76.2454 29.6815 75.8351 29.7193 75.4461 29.8407C72.7231 31.0777 74.1081 35.9617 76.5081 34.7617C77.4506 34.1446 78.144 33.2135 78.4651 32.1337C79.0801 34.0337 80.7581 33.0837 80.2551 31.4067C80.5137 31.694 80.8343 31.9187 81.1926 32.0639C81.5508 32.209 81.9374 32.2709 82.3231 32.2447C82.7717 32.3022 83.2258 32.1915 83.5976 31.9338C83.9693 31.6762 84.2324 31.2899 84.3361 30.8497ZM82.6591 28.7247C84.1531 28.8247 84.0471 31.4377 82.3791 31.5757C81.5971 31.6317 80.9791 30.9607 80.3101 30.6257C80.9081 29.6697 81.5281 28.7247 82.6591 28.7247ZM76.8441 33.4777C76.5081 33.8687 75.8371 34.5397 75.3341 33.9777C75.1408 33.7437 74.996 33.4737 74.9082 33.1833C74.8203 32.8928 74.7911 32.5878 74.8223 32.286C74.8535 31.9842 74.9444 31.6916 75.0898 31.4252C75.2352 31.1589 75.4321 30.9241 75.6691 30.7347C76.0741 30.549 76.5355 30.5289 76.9551 30.6787C77.3866 30.8382 77.7994 31.0444 78.1861 31.2937C77.821 32.0691 77.3709 32.8016 76.8441 33.4777Z" fill="#27272A"/>
<path d="M177.942 51.2015C170.582 56.7755 164.128 63.0325 161.949 72.0585C163.055 72.9987 163.95 74.1608 164.577 75.4695C164.633 75.5815 164.465 75.6375 164.41 75.5815C162.721 74.2305 160.71 71.2665 153.002 66.3555C149.692 64.179 146.17 62.343 142.49 60.8755C142.435 60.8755 142.378 60.8195 142.323 60.8195C141.674 62.5157 140.808 64.1205 139.745 65.5935C139.331 66.1225 139.229 65.6825 139.303 65.5725C139.345 65.4725 141.545 60.6405 141.596 60.5395C141.484 60.2045 139.023 59.7015 138.688 59.6455C138.188 59.5335 137.905 59.9805 137.57 60.2605C130.97 66.5925 130.289 72.8155 123.311 79.3285C122.133 80.3843 120.838 81.3032 119.452 82.0675C119.374 82.1076 119.312 82.1759 119.281 82.2588C119.25 82.3418 119.251 82.4333 119.284 82.5155C125.692 104.577 140.421 127.545 161.11 143.464C162.173 144.247 167.373 147.882 167.653 147.882C169.498 147.267 171.846 145.421 171.846 143.52C171.623 142.849 162.732 126.52 159.546 122.16C156.872 118.487 153.958 114.994 150.823 111.705C149.984 110.81 148.53 109.858 147.971 108.796C147.843 108.398 147.768 107.985 147.748 107.567C145.678 93.8445 142.668 82.2445 142.324 77.7665C142.324 77.5985 142.547 77.5985 142.547 77.7105C143.317 80.1295 143.521 81.4945 143.889 82.9665C147.639 84.0905 151.472 84.9132 155.352 85.4265C159.266 85.9265 163.684 86.6015 167.43 84.9795C170.617 83.6375 172.686 80.7855 174.252 77.8225C177.679 71.1955 180.345 60.8475 182.137 55.0085C182.136 52.0425 178 51.1475 177.942 51.2015ZM133.879 74.1855C133.823 75.0805 132.537 76.1425 131.979 76.8135C130.973 77.9885 129.91 79.1625 128.847 80.2805C128.832 80.2996 128.812 80.3139 128.789 80.3217C128.766 80.3296 128.741 80.3306 128.718 80.3247C128.694 80.3188 128.673 80.3062 128.656 80.2884C128.64 80.2706 128.629 80.2484 128.624 80.2245C129.214 78.9154 130.007 77.7078 130.973 76.6465C131.587 75.9195 132.594 74.2415 133.544 73.9065C133.626 73.9003 133.706 73.926 133.769 73.9781C133.831 74.0302 133.871 74.1046 133.879 74.1855Z" fill="#27272A"/>
<path d="M122.7 66.9701C119.153 70.5121 116.688 78.3761 117.78 82.9621C117.836 83.2421 118.339 83.1861 118.339 82.9061C118.139 80.848 118.271 78.7712 118.73 76.7551C119.742 72.3761 121.43 69.9261 123.036 67.2491C123.143 67.0261 122.863 66.7991 122.7 66.9701Z" fill="#27272A"/>
<path d="M116.041 69.9919C115.305 73.0143 115.21 76.1576 115.762 79.2189C115.818 79.4979 116.321 79.4419 116.321 79.1629C116.265 77.6529 116.097 76.1429 116.153 74.5779C116.209 73.0679 116.377 71.5579 116.489 70.0479C116.544 69.7689 116.153 69.7129 116.041 69.9919Z" fill="#27272A"/>
<path d="M84.7837 88.9453C84.7309 88.8068 84.6398 88.6863 84.521 88.5977C84.4021 88.5092 84.2605 88.4563 84.1127 88.4453C83.9645 88.4456 83.8223 88.5045 83.7174 88.6093C83.6125 88.714 83.5533 88.856 83.5527 89.0043C83.5556 89.1612 83.6045 89.3137 83.6934 89.443C83.7823 89.5722 83.9073 89.6725 84.0527 89.7313C84.1602 89.7679 84.2759 89.7726 84.3859 89.7449C84.4959 89.7172 84.5956 89.6583 84.6729 89.5752C84.7502 89.4921 84.8018 89.3884 84.8214 89.2766C84.8411 89.1649 84.828 89.0498 84.7837 88.9453Z" fill="#27272A"/>
<path d="M96.5259 90.8477C96.4733 90.709 96.3822 90.5883 96.2634 90.4998C96.1445 90.4112 96.0028 90.3584 95.8549 90.3477C95.7066 90.3482 95.5646 90.4074 95.4599 90.5123C95.3551 90.6173 95.2962 90.7594 95.2959 90.9077C95.299 91.0643 95.348 91.2167 95.4369 91.3457C95.5258 91.4748 95.6506 91.5749 95.7959 91.6337C95.9028 91.6648 96.0162 91.6656 96.1235 91.636C96.2308 91.6064 96.3277 91.5475 96.4035 91.466C96.4792 91.3844 96.5308 91.2834 96.5524 91.1742C96.574 91.065 96.5649 90.9519 96.5259 90.8477Z" fill="#27272A"/>
<path d="M97.6997 72.9531C97.6472 72.8145 97.5561 72.6938 97.4372 72.6052C97.3183 72.5166 97.1766 72.4639 97.0287 72.4531C96.8805 72.4534 96.7383 72.5123 96.6334 72.6171C96.5285 72.7218 96.4693 72.8639 96.4688 73.0121C96.4716 73.169 96.5206 73.3215 96.6095 73.4508C96.6984 73.5801 96.8233 73.6803 96.9688 73.7391C97.0757 73.7705 97.1892 73.7715 97.2967 73.742C97.4042 73.7125 97.5013 73.6537 97.5772 73.5721C97.6531 73.4904 97.7047 73.3893 97.7264 73.28C97.748 73.1707 97.7388 73.0575 97.6997 72.9531Z" fill="#27272A"/>
<path d="M134.326 59.2539C134.273 59.1156 134.181 58.9953 134.063 58.9067C133.944 58.8182 133.802 58.7652 133.655 58.7539C133.507 58.7544 133.365 58.8135 133.26 58.9182C133.155 59.0229 133.096 59.1648 133.096 59.3129C133.099 59.4698 133.148 59.6223 133.236 59.7516C133.325 59.8808 133.45 59.9811 133.596 60.0399C133.703 60.0807 133.821 60.0885 133.933 60.0622C134.045 60.036 134.147 59.9769 134.225 59.8925C134.304 59.8081 134.355 59.7023 134.373 59.5885C134.391 59.4748 134.374 59.3583 134.326 59.2539Z" fill="#27272A"/>
<path d="M116.992 56.0664C116.939 55.9277 116.848 55.807 116.729 55.7184C116.61 55.6298 116.469 55.577 116.321 55.5664C116.173 55.5667 116.031 55.6256 115.926 55.7304C115.821 55.8352 115.762 55.9772 115.762 56.1254C115.765 56.2823 115.814 56.4348 115.902 56.5641C115.991 56.6933 116.116 56.7936 116.262 56.8524C116.369 56.8836 116.482 56.8844 116.589 56.8548C116.697 56.8251 116.794 56.7663 116.869 56.6847C116.945 56.6031 116.997 56.5021 117.018 56.3929C117.04 56.2837 117.031 56.1707 116.992 56.0664Z" fill="#27272A"/>
<path d="M89.2575 98.7316C89.1569 98.6998 89.0482 98.7048 88.951 98.746C88.8538 98.7871 88.7745 98.8616 88.7273 98.956C88.6802 99.0504 88.6683 99.1586 88.6938 99.261C88.7193 99.3634 88.7805 99.4534 88.8665 99.5146C89.2765 99.8566 90.0175 99.1116 89.2575 98.7316Z" fill="#27272A"/>
<path d="M90.2075 82.4588C90.1068 82.4264 89.9978 82.4311 89.9003 82.4721C89.8028 82.5131 89.7231 82.5876 89.6758 82.6822C89.6284 82.7768 89.6165 82.8852 89.6421 82.9878C89.6677 83.0905 89.7293 83.1805 89.8155 83.2418C90.1515 83.5208 90.7105 83.0738 90.4865 82.6828C90.4627 82.6249 90.4246 82.5741 90.3758 82.5349C90.327 82.4958 90.2691 82.4696 90.2075 82.4588Z" fill="#27272A"/>
<path d="M105.7 75.5838C105.599 75.5514 105.49 75.5561 105.392 75.5971C105.295 75.6381 105.215 75.7126 105.168 75.8072C105.121 75.9018 105.109 76.0102 105.134 76.1128C105.16 76.2155 105.221 76.3055 105.308 76.3668C105.643 76.6468 106.203 76.1988 105.979 75.8078C105.913 75.7045 105.815 75.6257 105.7 75.5838Z" fill="#27272A"/>
<path d="M129.462 66.6892C129.362 66.6569 129.253 66.6616 129.155 66.7026C129.058 66.7435 128.978 66.8181 128.931 66.9126C128.883 67.0072 128.871 67.1157 128.897 67.2183C128.923 67.3209 128.984 67.411 129.07 67.4722C129.152 67.5271 129.249 67.554 129.348 67.5489C129.446 67.5438 129.54 67.5071 129.615 67.4441C129.691 67.3811 129.744 67.2954 129.767 67.1997C129.789 67.104 129.781 67.0035 129.741 66.9132C129.675 66.8101 129.577 66.7315 129.462 66.6892Z" fill="#27272A"/>
<path d="M82.3231 98.172C82.7021 97.919 82.6161 97.403 81.9881 97.277C81.5401 97.221 81.3731 97.836 81.6521 98.116C81.751 98.1789 81.8638 98.2169 81.9807 98.2266C82.0975 98.2364 82.215 98.2176 82.3231 98.172Z" fill="#27272A"/>
<path d="M111.177 69.6564C111.556 69.4034 111.47 68.8874 110.841 68.7614C110.394 68.7054 110.226 69.3204 110.506 69.6004C110.599 69.6758 110.713 69.7214 110.833 69.7314C110.953 69.7414 111.072 69.7152 111.177 69.6564Z" fill="#27272A"/>
<path d="M101.447 62.8878C101.826 62.6348 101.74 62.1188 101.112 61.9878C100.664 61.9328 100.496 62.5478 100.776 62.8268C100.874 62.8903 100.987 62.929 101.104 62.9396C101.22 62.9503 101.338 62.9325 101.447 62.8878Z" fill="#27272A"/>
<path d="M123.311 61.5989C123.689 61.3459 123.603 60.8299 122.975 60.6989C122.528 60.6429 122.36 61.2579 122.639 61.5379C122.732 61.6143 122.846 61.6609 122.966 61.6718C123.086 61.6827 123.206 61.6573 123.311 61.5989Z" fill="#27272A"/>
<path d="M123.255 75.9739C123.634 75.7209 123.548 75.2049 122.919 75.0739C122.472 75.0179 122.304 75.6329 122.584 75.9129C122.683 75.9761 122.795 76.0147 122.912 76.0253C123.029 76.0359 123.147 76.0183 123.255 75.9739Z" fill="#27272A"/>
<path d="M78.1303 87.2674C78.2973 87.1554 78.4093 87.0434 78.3533 86.8194C78.2973 86.0374 77.0113 86.4284 77.4033 87.0994C77.4372 87.1612 77.4837 87.2151 77.5399 87.2576C77.596 87.3002 77.6605 87.3304 77.7292 87.3462C77.7978 87.3621 77.869 87.3633 77.9382 87.3497C78.0073 87.3361 78.0728 87.3081 78.1303 87.2674Z" fill="#27272A"/>
<path d="M84.113 83.0734C83.613 82.3464 83.05 81.6734 82.491 80.9484C82.379 80.8374 82.212 80.9484 82.268 81.0604C82.715 81.7874 83.106 82.5704 83.554 83.2974C84.001 84.0804 84.392 84.8634 84.784 85.6454C86.609 89.2964 86.184 89.0714 86.741 89.9514C86.8969 91.6587 87.1396 93.3569 87.468 95.0394C87.4846 95.0738 87.5119 95.1019 87.5458 95.1195C87.5797 95.1371 87.6184 95.1433 87.6561 95.1371C87.6937 95.1309 87.7284 95.1127 87.7549 95.0852C87.7814 95.0577 87.7983 95.0223 87.803 94.9844C87.912 87.5744 85.445 79.9164 88.418 73.5114C89.1717 71.9807 90.1947 70.598 91.438 69.4294C91.55 69.3184 91.382 69.1504 91.27 69.2064C90.5967 69.5908 89.9764 70.0614 89.425 70.6064C85.374 75.1064 85.884 81.3064 86.461 87.2694C85.8117 85.8002 85.0255 84.3954 84.113 83.0734Z" fill="#27272A"/>
<path d="M71.3079 78.2672C71.5757 78.0974 71.892 78.0205 72.2079 78.0482C74.2229 78.2302 74.6259 81.1482 75.1129 81.9582C75.0862 81.9924 75.0523 82.0201 75.0135 82.0395C74.9748 82.0589 74.9322 82.0694 74.8889 82.0702C74.7779 81.8462 74.3889 81.9582 74.3889 82.2372C74.3989 84.6349 74.7186 87.0213 75.3399 89.3372C76.8999 95.6112 79.5649 102.86 85.8999 104.381C87.8442 104.844 89.8906 104.586 91.6589 103.654C96.5099 100.905 99.5019 93.1892 101.054 87.8292C102.277 83.5056 103.156 79.0917 103.682 74.6292C103.738 74.0702 103.738 73.5102 103.793 72.9512C103.793 72.8392 103.626 72.8392 103.57 72.9512C103.458 73.4512 103.291 73.9582 103.122 74.5172C101.566 81.5572 100.471 89.9682 96.0219 97.4992C94.2329 100.63 91.4929 103.873 87.5219 103.705C83.3839 103.538 80.3639 100.183 78.6869 96.7162C75.7919 90.7622 75.2439 83.9392 74.8869 82.6812C76.0619 82.2892 77.1239 81.7302 78.2979 81.2812C81.0809 80.2692 81.5979 80.3512 82.0979 80.0512C82.1591 80.0136 82.2066 79.9572 82.233 79.8904C82.2595 79.8236 82.2635 79.75 82.2446 79.6807C82.2257 79.6113 82.1848 79.55 82.128 79.5059C82.0712 79.4619 82.0017 79.4374 81.9299 79.4362H81.6499C81.6145 78.2245 81.4267 77.022 81.0909 75.8572C80.9285 75.3365 80.683 74.8455 80.3639 74.4032C80.0472 73.9917 79.5888 73.7126 79.0779 73.6202C79.027 73.6033 78.9716 73.6061 78.9226 73.6281C78.8737 73.6501 78.8348 73.6897 78.8137 73.739C78.7926 73.7883 78.7907 73.8437 78.8085 73.8943C78.8263 73.9449 78.8625 73.987 78.9099 74.0122C79.2634 74.272 79.5666 74.5939 79.8049 74.9622C80.5159 75.9622 80.8169 78.6292 80.8669 79.6622C79.0083 80.2103 77.1952 80.902 75.4439 81.7312C75.4193 81.0748 75.2672 80.4294 74.9959 79.8312C74.748 79.1197 74.3473 78.4712 73.8219 77.9312C73.4753 77.5498 73.0093 77.2976 72.5004 77.2162C71.9916 77.1348 71.4701 77.2289 71.0219 77.4832C70.3559 77.8202 70.9159 78.6592 71.3079 78.2672Z" fill="#27272A"/>
<path d="M75.334 76.5908C75.3991 76.6068 75.4674 76.6036 75.5308 76.5817C75.5941 76.5598 75.6498 76.52 75.6911 76.4672C75.7324 76.4144 75.7576 76.3508 75.7636 76.284C75.7696 76.2172 75.7562 76.1501 75.7249 76.0908C75.2183 75.5353 74.5178 75.1956 73.7679 75.1418C73.4156 75.0951 73.0582 75.1764 72.7607 75.3709C72.4632 75.5654 72.2454 75.8603 72.147 76.2018C72.091 76.4258 72.37 76.6498 72.538 76.4258C72.7792 76.1614 73.104 75.9881 73.458 75.9348C74.138 75.8478 74.846 76.3958 75.334 76.5908Z" fill="#27272A"/>
<path d="M77.5149 74.7981C77.3592 74.5016 77.1002 74.2725 76.7868 74.1543C76.4734 74.0362 76.1276 74.0371 75.8149 74.1571C75.7574 74.191 75.7123 74.2424 75.6859 74.3037C75.6595 74.3649 75.6532 74.433 75.668 74.4981C75.6828 74.5632 75.7179 74.6219 75.7682 74.6657C75.8185 74.7096 75.8814 74.7363 75.9479 74.7421C76.0602 74.7363 76.1725 74.7531 76.2782 74.7916C76.3838 74.83 76.4807 74.8894 76.5629 74.9661C76.6389 75.0421 76.7629 75.1881 76.8519 75.2981C76.9182 75.386 77.0167 75.444 77.1258 75.4593C77.2348 75.4746 77.3455 75.4459 77.4334 75.3796C77.5213 75.3133 77.5793 75.2148 77.5946 75.1057C77.6099 74.9967 77.5812 74.886 77.5149 74.7981Z" fill="#27272A"/>
<path d="M41.8402 107.4C41.6722 107.512 41.7842 107.791 41.9512 107.736C43.7972 107.009 50.2272 103.542 51.6812 102.815C52.1917 103.56 52.7519 104.27 53.3582 104.94C53.3893 104.972 53.4314 104.992 53.4763 104.995C53.5212 104.998 53.5655 104.984 53.6007 104.956C53.6358 104.928 53.6591 104.888 53.6661 104.843C53.673 104.799 53.6631 104.753 53.6382 104.716C53.2574 103.95 52.8083 103.22 52.2962 102.535C52.4082 102.479 56.4342 100.41 58.3912 99.46C59.7332 101.473 61.0752 103.43 62.4732 105.387C60.4602 106.505 58.5032 107.624 56.6022 108.91C56.3782 109.078 56.5462 109.357 56.8252 109.245C58.8942 108.239 60.8512 107.065 62.8642 105.945C62.9762 106.057 65.9402 110.307 66.6112 110.978C66.6577 111.022 66.719 111.048 66.7833 111.05C66.8476 111.051 66.9103 111.029 66.9591 110.987C67.0078 110.945 67.0393 110.887 67.0473 110.823C67.0552 110.759 67.0392 110.695 67.0022 110.642C66.6112 109.859 63.7592 105.833 63.5352 105.554C63.7032 105.442 70.8052 101.754 71.3642 101.304C71.5322 101.192 71.3642 100.969 71.1962 100.969C70.5252 101.136 63.3682 104.827 63.1962 104.939C62.5252 103.988 59.7852 100.074 59.1142 99.067C60.5142 98.34 65.1532 96.048 66.0482 95.601C66.2712 95.936 67.6132 98.173 67.8932 98.401C68.1172 98.569 68.4522 98.401 68.3402 98.122C68.2282 97.786 66.8862 95.606 66.6632 95.27C67.0002 95.1 68.7922 94.259 69.3002 93.923C69.351 93.8847 69.3874 93.8302 69.4032 93.7686C69.4191 93.707 69.4136 93.6418 69.3875 93.5837C69.3615 93.5256 69.3165 93.4781 69.26 93.4489C69.2034 93.4197 69.1386 93.4105 69.0762 93.423C68.1533 93.7463 67.2561 94.1388 66.3922 94.597C66.3362 94.597 64.4352 91.745 63.5402 90.515C63.5082 90.468 63.4596 90.4348 63.4041 90.422C63.3487 90.4093 63.2905 90.4179 63.2411 90.4462C63.1918 90.4745 63.1549 90.5203 63.1379 90.5746C63.1208 90.6289 63.1249 90.6876 63.1492 90.739C63.8762 92.081 65.5492 94.821 65.6092 94.933C64.9382 95.268 60.2972 97.561 58.6202 98.399C57.5572 96.834 54.7612 92.808 54.4262 92.36C56.4952 91.298 64.9942 87.104 65.8892 86.66C66.1132 86.548 65.9452 86.212 65.7212 86.268C64.9382 86.548 54.7612 91.357 53.9792 91.748L51.9662 88.897C51.8542 88.729 51.5742 88.897 51.6862 89.064C52.3012 90.015 52.9162 91.021 53.4752 92.028C51.4062 93.09 49.3372 94.209 47.3242 95.328C45.7042 92.897 43.3242 89.147 41.5652 86.773C41.4532 86.605 41.2292 86.773 41.2852 86.94C42.5712 89.457 46.3182 95.216 46.6532 95.719C45.9822 96.111 43.0192 97.788 42.2922 98.403C42.1802 98.515 42.2922 98.683 42.4042 98.627C43.1872 98.403 46.9892 96.279 46.9892 96.279C48.1072 97.956 50.9032 101.926 51.1272 102.262C51.0132 102.309 43.7792 106.066 41.8402 107.4ZM47.7672 95.88C49.0532 95.209 53.1352 93.028 53.9182 92.637C54.0852 92.917 57.7182 98.452 57.9442 98.788C55.9312 99.794 53.9182 100.857 51.9052 101.919C51.6812 101.64 48.1582 96.439 47.7672 95.88Z" fill="#DBEAFE"/>
<path d="M100.329 103.877C100.908 104.93 101.562 105.939 102.286 106.896C102.398 107.009 102.565 106.896 102.565 106.729C102.398 106.058 99.0995 100.186 98.3165 98.9011C98.303 98.8732 98.284 98.8484 98.2605 98.8282C98.237 98.808 98.2097 98.7928 98.1801 98.7836C98.1506 98.7744 98.1195 98.7714 98.0887 98.7747C98.0579 98.7781 98.0282 98.7877 98.0013 98.803C97.9744 98.8183 97.9509 98.839 97.9323 98.8637C97.9137 98.8885 97.9004 98.9168 97.8932 98.9469C97.886 98.977 97.8851 99.0082 97.8905 99.0387C97.8958 99.0692 97.9074 99.0982 97.9245 99.1241C98.5955 100.466 100.105 103.374 100.217 103.486C98.6515 104.045 85.3435 110.251 82.6595 111.538C82.0445 110.699 78.5775 106.394 78.1305 105.89C77.9625 105.723 77.6825 105.946 77.7945 106.17C78.1865 106.729 81.3175 111.09 81.9325 111.929C81.6525 112.097 76.3965 114.558 75.5575 115.172C75.5315 115.189 75.5126 115.215 75.5044 115.245C75.4963 115.275 75.4994 115.306 75.5133 115.334C75.5272 115.362 75.5507 115.383 75.5796 115.395C75.6084 115.406 75.6404 115.407 75.6695 115.396C76.5645 115.172 81.7645 112.768 82.3795 112.488C82.4355 112.545 85.1795 116.123 85.2315 116.235C85.0635 116.347 84.8965 116.402 84.7315 116.515C84.5075 116.627 84.6755 117.015 84.8995 116.906C85.1225 116.85 85.3465 116.738 85.5705 116.682C86.1874 117.51 86.8599 118.295 87.5835 119.031C87.7505 119.198 88.0305 118.975 87.9185 118.807C87.4311 117.971 86.8896 117.168 86.2975 116.402C86.9685 116.123 92.1685 113.719 92.5035 113.551C92.5595 113.663 94.5725 116.851 95.0205 117.409C95.1875 117.633 95.4675 117.353 95.3555 117.129C94.7965 115.788 93.1745 113.272 93.1745 113.215C94.9023 112.46 96.583 111.601 98.2075 110.643C98.3755 110.531 98.2635 110.251 98.0955 110.308C96.9215 110.699 93.3955 112.265 92.7835 112.601C92.234 111.645 91.6174 110.729 90.9385 109.86C90.7705 109.692 90.5465 109.916 90.6025 110.084C91.0495 111.035 91.6095 111.984 92.1125 112.884C91.8885 112.996 86.6325 115.456 85.9055 115.847C85.7935 115.735 84.0055 113.276 83.1655 112.213L83.1095 112.157C83.7775 111.817 98.6515 104.884 100.329 103.877Z" fill="#DBEAFE"/>
<path d="M5.82906 68.5925C5.41615 68.8882 5.12947 69.3282 5.02592 69.8254C4.92237 70.3226 5.00952 70.8406 5.27006 71.2765C5.82906 72.6765 10.4141 72.7865 11.7001 73.0105C14.7761 73.4575 18.8001 74.0725 21.6001 72.3395C22.0471 72.4515 25.0101 72.6185 25.3461 73.0665C25.7371 73.5135 29.1461 86.0945 30.6021 91.8545C32.0581 97.6145 45.4201 147.547 45.6441 148.331C45.6968 148.527 45.8136 148.7 45.9759 148.821C46.1381 148.942 46.3364 149.006 46.5391 149.001C52.1861 148.945 86.8551 148.331 90.0981 148.101C90.2861 148.095 90.4641 148.015 90.5946 147.879C90.7252 147.744 90.7981 147.563 90.7981 147.375C90.7981 147.187 90.7252 147.006 90.5946 146.871C90.4641 146.735 90.2861 146.655 90.0981 146.648C84.4501 146.536 50.2291 147.148 47.2651 147.148C43.2651 133.648 28.0461 72.8715 26.6881 71.8845C26.1291 71.4925 22.5501 71.0455 22.5501 70.8775C22.5501 69.4775 19.8101 69.5915 18.5801 69.4235C16.0081 69.1445 13.4361 69.0325 10.8631 68.7525C10.8475 68.754 10.8319 68.7522 10.8171 68.7472C10.8023 68.7423 10.7887 68.7343 10.7771 68.7238C10.7656 68.7133 10.7564 68.7005 10.7501 68.6863C10.7437 68.672 10.7405 68.6566 10.7405 68.641C10.7405 68.6254 10.7437 68.61 10.7501 68.5957C10.7564 68.5814 10.7656 68.5686 10.7771 68.5581C10.7887 68.5476 10.8023 68.5397 10.8171 68.5347C10.8319 68.5298 10.8475 68.528 10.8631 68.5295C12.0381 68.4735 13.1561 68.4175 14.3301 68.4735C15.4491 68.5295 17.9651 68.6405 17.9651 68.6405C20.4251 68.1405 22.8861 67.7465 25.4021 67.3545C30.0511 66.6035 38.8901 64.6255 42.6801 66.3485C44.6931 67.2425 45.2521 67.3545 46.5941 66.9075C47.2651 67.0755 49.5581 67.5225 49.8381 68.1375C50.7234 70.7252 51.2866 73.4121 51.5151 76.1375C51.5151 76.1935 49.3341 76.6965 48.7151 76.8085C46.2551 77.2565 43.7391 77.6475 41.2221 78.0385C38.9301 78.3745 36.1341 78.3745 33.9531 79.2135C33.8411 79.2695 33.7851 79.4925 33.9531 79.4925C36.4361 79.7415 53.0721 76.7455 52.4061 76.8645C54.3481 77.1075 63.7901 76.8645 69.1811 76.8645C69.6281 76.8645 70.2431 76.9205 70.4671 76.5295C70.0761 76.1375 69.4051 76.1935 68.8451 76.1935C68.2861 76.1375 67.7271 76.1375 67.1121 76.1375C64.5961 76.1375 52.6851 76.0255 52.4621 76.3055C52.5181 76.1935 51.0081 69.5955 50.5621 67.6385C50.3381 66.7995 49.3311 66.7435 47.5981 66.1285C48.6601 64.6185 43.0131 62.9415 41.6711 62.7735C36.5831 62.1735 31.1071 63.3005 18.5211 65.4575C15.2341 65.9755 8.56706 66.7675 5.82906 68.5925Z" fill="#DBEAFE"/>
<path d="M124.038 101.134C122.221 104.113 120.397 108.997 119.061 112.262C118.512 113.517 118.044 114.805 117.661 116.12C117.65 116.161 117.647 116.203 117.652 116.244C117.657 116.286 117.671 116.326 117.692 116.362C117.712 116.399 117.74 116.431 117.773 116.456C117.807 116.482 117.845 116.5 117.885 116.511C116.921 116.801 115.984 117.175 115.085 117.63C111.87 119.023 108.734 120.592 105.691 122.33C104.529 122.916 103.424 123.609 102.391 124.399C102.355 124.436 102.333 124.482 102.326 124.533C102.32 124.583 102.33 124.635 102.355 124.679C102.38 124.723 102.419 124.758 102.466 124.778C102.513 124.798 102.565 124.802 102.614 124.79C103.138 124.594 103.644 124.351 104.124 124.063C112.538 119.389 117.15 117.709 118.439 116.85C118.476 116.82 118.502 116.778 118.513 116.731C118.524 116.685 118.52 116.636 118.501 116.592C118.482 116.548 118.449 116.511 118.408 116.487C118.367 116.464 118.319 116.454 118.271 116.459H118.159C118.405 116.212 121.459 108.435 122.8 105.159C123.319 103.899 123.767 102.611 124.142 101.301C124.205 101.078 124.093 101.022 124.038 101.134Z" fill="#DBEAFE"/>
<path d="M59.8997 141.676C59.9468 141.849 60.0483 142.002 60.1891 142.113C60.3299 142.224 60.5026 142.286 60.6817 142.291C62.1917 142.179 71.8097 142.068 75.0527 142.068C104.832 141.66 106.789 141.726 110.505 141.061C110.952 141.005 110.561 140.561 110.337 140.39C108.513 139.377 62.5157 140.55 61.4087 140.614C61.0177 138.209 59.1167 126.97 58.8367 125.684C58.7992 125.58 58.7274 125.491 58.633 125.433C58.5387 125.374 58.4274 125.35 58.3172 125.363C58.2071 125.376 58.1045 125.426 58.0264 125.504C57.9482 125.583 57.899 125.686 57.8867 125.796C57.9427 127.138 59.4857 139.052 59.8997 141.676Z" fill="#DBEAFE"/>
</svg>
