<svg width="200" height="200" viewBox="0 0 200 200" fill="none" xmlns="http://www.w3.org/2000/svg">
<path d="M70.505 50.3646C72.335 52.8766 74.505 55.1736 76.542 57.5396C82.942 64.9776 82.4 64.4026 82.86 64.7536C83.06 64.9076 83.372 64.7156 83.231 64.4726C82.96 63.9796 83.48 64.6526 77.143 57.3226C75.058 54.9176 73.05 52.3856 70.799 50.1346C70.658 49.9936 70.375 50.1866 70.505 50.3646Z" fill="#27272A"/>
<path d="M96.3679 38.2997C97.1089 41.8557 100.256 55.9637 100.461 56.8717C100.602 57.7238 100.829 58.5594 101.138 59.3657C101.17 59.4174 101.218 59.4574 101.275 59.4798C101.331 59.5022 101.393 59.5058 101.452 59.4901C101.511 59.4744 101.563 59.4403 101.601 59.3927C101.639 59.345 101.661 59.2865 101.663 59.2257C101.589 58.3586 101.426 57.5015 101.177 56.6677C100.985 55.8107 97.711 41.6897 96.841 38.1587C96.777 37.8677 96.2999 37.9997 96.3679 38.2997Z" fill="#27272A"/>
<path d="M120.107 57.375C121.307 52.522 122.231 48.593 123.356 43.356C123.758 41.8461 124.066 40.3125 124.277 38.764C124.303 38.458 123.855 38.432 123.766 38.701C123.29 40.213 122.918 41.7556 122.653 43.318C122.307 44.866 120.299 54.152 119.711 57.273C119.697 57.3256 119.705 57.3813 119.732 57.428C119.76 57.4747 119.805 57.5085 119.858 57.522C119.91 57.5356 119.966 57.5277 120.013 57.5001C120.059 57.4725 120.093 57.4276 120.107 57.375Z" fill="#27272A"/>
<path d="M132.9 63.6796C138 59.2053 142.699 54.2932 146.942 48.9996C146.971 48.9485 146.98 48.8888 146.968 48.8314C146.956 48.774 146.924 48.7228 146.878 48.6872C146.831 48.6515 146.774 48.6337 146.715 48.6371C146.657 48.6405 146.601 48.6648 146.559 48.7056C145.924 49.2937 145.346 49.9403 144.832 50.6366C139.677 56.6516 136.256 59.6476 132.565 63.3366C132.523 63.3818 132.5 63.4413 132.501 63.503C132.502 63.5647 132.526 63.6237 132.569 63.6678C132.612 63.7119 132.671 63.7378 132.732 63.74C132.794 63.7422 132.854 63.7206 132.9 63.6796Z" fill="#27272A"/>
<path d="M83.8066 115.264C86.6716 115.878 89.5366 116.492 92.4146 117.055C92.9266 117.155 93.1436 116.403 92.6326 116.275C89.7156 115.575 86.7736 114.945 83.8196 114.331C83.8326 113.819 84.1396 103.497 84.2796 98.8407C84.2926 98.4697 83.7296 98.4697 83.7046 98.8407C83.3046 103.932 83.0776 109.035 82.9366 114.141C81.6446 113.872 61.3456 109.792 59.2866 109.408C58.9746 103.475 58.8736 99.5267 58.5316 95.1337C58.5316 95.0674 58.5052 95.0038 58.4584 94.9569C58.4115 94.9101 58.3479 94.8837 58.2816 94.8837C58.2153 94.8837 58.1517 94.9101 58.1048 94.9569C58.0579 95.0038 58.0316 95.0674 58.0316 95.1337C57.9386 99.1077 58.2026 105.291 58.4316 109.242C51.6776 107.963 36.4826 105.251 35.6516 105.111C35.5876 104.625 34.3846 94.9667 33.7576 90.6307C33.7066 90.3107 33.1576 90.3877 33.1956 90.7077C33.6686 95.4657 34.2186 100.208 34.7956 104.944C30.8686 104.266 26.9416 103.627 23.0016 103.102C22.6696 103.064 22.5926 103.627 22.9256 103.691C26.9156 104.471 30.9066 105.175 34.9106 105.865C35.2426 108.59 37.4296 126.356 38.1846 132.509C32.7346 131.6 30.5056 131.168 28.0546 130.974C27.7606 130.948 27.7086 131.408 27.9906 131.474C31.3676 132.331 34.8466 132.83 38.2906 133.393C38.4576 134.774 39.3396 141.899 39.6086 144.086C39.7609 146.264 40.0556 148.431 40.4906 150.571C40.5159 150.648 40.5673 150.713 40.6359 150.757C40.7046 150.8 40.7861 150.818 40.8664 150.807C40.9468 150.796 41.021 150.758 41.0761 150.699C41.1313 150.639 41.164 150.563 41.1686 150.482C41.1976 148.308 40.9116 148.33 39.1866 133.559C39.4676 133.61 57.3866 136.795 60.0606 137.294C60.1126 138.381 60.4316 144.815 60.5086 146.951C60.5856 149.087 60.5466 151.251 60.7776 153.36C60.7776 153.467 60.82 153.569 60.8956 153.645C60.9712 153.72 61.0737 153.763 61.1806 153.763C61.2875 153.763 61.39 153.72 61.4655 153.645C61.5411 153.569 61.5836 153.467 61.5836 153.36C61.6836 151.428 61.5066 149.445 61.4296 147.514C61.3526 145.659 61.0296 138.97 60.9566 137.473C65.9956 138.407 80.5136 141.221 82.7396 141.673C82.7266 143.182 82.5726 154.962 82.5476 156.101C82.4771 157.255 82.4771 158.412 82.5476 159.567C82.5856 159.912 83.1476 160.067 83.2256 159.657C83.4405 157.69 83.5217 155.711 83.4686 153.734C83.5066 151.734 83.5966 143.809 83.6086 141.834C85.5684 142.318 87.5543 142.689 89.5566 142.947C89.9786 142.985 90.0296 142.358 89.6566 142.23C87.6908 141.693 85.6967 141.266 83.6836 140.951C83.6576 140.951 83.6456 140.939 83.6196 140.939C83.6276 139.337 83.6656 122.223 83.8066 115.264ZM39.0136 132.673C38.7826 130.831 36.6216 113.064 35.7386 106.042C40.5606 106.874 55.7056 109.611 58.4386 110.135C58.5666 112.757 59.6026 130.255 59.9226 136.395C53.7996 135.267 45.4856 133.751 39.0136 132.673ZM60.8346 136.573C60.7196 134.552 59.6706 117.041 59.3126 110.301C65.2726 111.439 80.9926 114.662 82.8986 115.071C82.6806 123.629 82.7066 132.211 82.6686 140.771C76.5996 139.527 63.6206 137.091 60.8346 136.574V136.573Z" fill="#DBEAFE"/>
<path d="M150.076 88.0723C149.795 88.3413 150.23 88.7723 150.511 88.5073C151.211 87.8293 151.711 87.6503 152.417 86.9723C159.282 80.1903 179.109 60.6083 184.253 53.4863C185.481 51.7723 186.812 49.3293 185.647 47.2953C185.468 46.9883 185.033 47.2573 185.174 47.5763C186.018 49.5083 184.663 51.6953 183.511 53.2303C178.744 59.6413 155.794 82.6313 150.076 88.0723Z" fill="#DBEAFE"/>
<path d="M125.607 39.5457C128.437 38.3457 131.579 38.7987 134.778 39.2127C142.119 40.1847 145.141 41.0277 151.867 42.2317C164.115 44.4317 170.817 46.7447 182.885 50.3537C182.995 50.3774 183.11 50.3582 183.205 50.3C183.301 50.2417 183.371 50.149 183.401 50.0407C183.43 49.9325 183.417 49.8171 183.364 49.7183C183.311 49.6195 183.222 49.5448 183.115 49.5097C163.787 43.7227 164.622 43.6477 142.606 39.5587C138.941 38.8277 135.24 38.2936 131.517 37.9587C129.549 37.7104 127.551 37.9114 125.671 38.5467C125.679 38.8809 125.657 39.2151 125.607 39.5457Z" fill="#DBEAFE"/>
<path d="M189.1 48.2419C187.143 43.8289 181.1 42.7089 176.1 41.4119C163.8 38.1759 151.286 35.8229 138.79 33.5199C135.815 32.8302 132.784 32.4065 129.734 32.2539C123.891 32.2539 120.018 35.4309 115.766 39.4299C113.443 41.6009 104.068 50.3909 101.7 52.6009L101.918 53.5599C109.491 46.4719 113.318 42.6469 118.162 38.3779C123.3 33.8369 126.862 32.3879 133.537 33.4279C140.237 34.4569 163.421 38.8159 178.65 42.9699C181.079 43.4799 183.42 44.3462 185.595 45.5409C186.662 46.1831 187.531 47.1061 188.109 48.2091C188.686 49.312 188.95 50.5524 188.87 51.7949C188.565 54.4046 187.606 56.895 186.081 59.0349C180.581 67.6109 170.466 77.2579 162.968 84.1819C161.919 85.1409 162.533 84.5009 161.485 85.4609C161.075 85.8449 161.685 86.4459 162.099 86.0749C170.784 78.0929 177.87 71.6589 184.93 62.1429C187.707 58.4109 191.251 53.0899 189.1 48.2419Z" fill="#DBEAFE"/>
<path d="M32.3879 80.4725C32.2409 80.4148 32.0825 80.3922 31.9253 80.4065C31.768 80.4208 31.6163 80.4715 31.4821 80.5547C31.348 80.6379 31.235 80.7513 31.1524 80.8858C31.0697 81.0203 31.0195 81.1722 31.0059 81.3295C31.0059 81.5215 31.3259 81.5855 31.3649 81.3815C31.3977 81.2359 31.4814 81.1069 31.6009 81.0176C31.7205 80.9283 31.868 80.8847 32.0169 80.8945C32.1907 80.9241 32.3561 80.9909 32.5018 81.0903C32.6474 81.1897 32.7699 81.3194 32.8609 81.4705C33.106 81.9724 33.408 82.4445 33.7609 82.8775C33.7859 82.9019 33.8181 82.9175 33.8528 82.922C33.8874 82.9265 33.9226 82.9196 33.953 82.9023C33.9833 82.885 34.0073 82.8583 34.0211 82.8263C34.035 82.7942 34.0381 82.7585 34.0299 82.7245C33.9009 82.1767 33.6519 81.6644 33.3009 81.2245C33.0945 80.8742 32.7712 80.6079 32.3879 80.4725Z" fill="#27272A"/>
<path d="M33.7996 79.5939C33.2226 79.1479 32.2386 79.0569 31.9066 79.8369C31.8296 80.0029 32.0476 80.2369 32.2006 80.0539C32.8006 79.2999 33.6206 80.0159 34.0006 80.5909C34.3716 81.1289 34.5516 81.7549 34.9096 82.2799C34.9298 82.3131 34.9601 82.3389 34.9962 82.3533C35.0322 82.3677 35.072 82.37 35.1095 82.3598C35.1469 82.3497 35.1801 82.3276 35.2039 82.297C35.2278 82.2663 35.241 82.2288 35.2416 82.1899C35.1148 81.1707 34.5979 80.2402 33.7996 79.5939Z" fill="#27272A"/>
<path d="M33.8838 78.8496C33.8491 78.8702 33.8229 78.9028 33.8103 78.9412C33.7976 78.9796 33.7991 79.0212 33.8147 79.0586C33.8303 79.0959 33.8588 79.1263 33.895 79.1443C33.9312 79.1623 33.9727 79.1667 34.0118 79.1566C34.9458 78.9136 35.5118 80.3456 35.7768 81.0236C35.9174 81.6404 36.1146 82.2429 36.3658 82.8236C36.3809 82.8461 36.4021 82.864 36.427 82.8749C36.4519 82.8859 36.4793 82.8895 36.5062 82.8854C36.5331 82.8813 36.5582 82.8697 36.5787 82.8518C36.5991 82.8339 36.6141 82.8106 36.6218 82.7846C36.9158 81.8766 36.2218 80.5336 35.7648 79.7536C35.3678 79.1056 34.7048 78.3406 33.8838 78.8496Z" fill="#27272A"/>
<path d="M35.8538 78.8628C35.8229 78.882 35.7999 78.9115 35.7887 78.9461C35.7775 78.9807 35.779 79.0182 35.7927 79.0518C35.8065 79.0855 35.8317 79.1131 35.864 79.13C35.8962 79.1468 35.9333 79.1517 35.9688 79.1438C37.1838 78.8758 37.4018 81.9708 37.7088 82.6438C37.7254 82.6723 37.75 82.6953 37.7796 82.71C37.8092 82.7246 37.8425 82.7302 37.8752 82.726C37.908 82.7219 37.9388 82.7081 37.9638 82.6866C37.9888 82.665 38.0069 82.6366 38.0158 82.6048C38.1568 81.7918 37.3188 77.7838 35.8538 78.8628Z" fill="#27272A"/>
<path d="M29.2915 54.38C29.1495 54.319 29.0235 54.495 29.0615 54.61C29.2025 55.21 29.8935 55.698 30.3615 56.056C32.5885 57.762 34.9065 57.648 36.3855 56.656C36.9783 56.1735 37.4667 55.5753 37.8209 54.898C38.175 54.2206 38.3876 53.4782 38.4455 52.716C38.8518 50.8909 38.8821 49.0022 38.5345 47.165C38.5177 47.1065 38.4805 47.0559 38.4296 47.0224C38.3787 46.989 38.3175 46.9748 38.2571 46.9825C38.1967 46.9903 38.141 47.0194 38.1002 47.0646C38.0594 47.1098 38.0361 47.1681 38.0345 47.229C38.0992 48.8253 38.0481 50.4242 37.8815 52.013C37.6815 53.394 37.3815 55.07 36.2445 56.004C34.9315 57.09 32.6265 57.204 30.5445 55.441C30.1235 55.109 29.7995 54.599 29.2915 54.38Z" fill="#27272A"/>
<path d="M33.8002 58.525C33.9422 58.412 33.8772 58.142 33.6592 58.206C31.6366 58.9013 29.4322 58.8513 27.4432 58.065C28.394 56.4444 28.8517 54.5817 28.7602 52.705C28.7557 52.6319 28.7247 52.563 28.6729 52.5113C28.6212 52.4595 28.5523 52.4285 28.4792 52.424C28.3223 52.4169 28.171 52.364 28.0438 52.272C27.9166 52.1799 27.8191 52.0526 27.7633 51.9059C27.7075 51.7591 27.6958 51.5992 27.7297 51.4459C27.7637 51.2926 27.8417 51.1525 27.9542 51.043C28.1583 50.8772 28.3939 50.7543 28.6466 50.6818C28.8994 50.6093 29.1642 50.5886 29.4252 50.621C29.4604 50.6218 29.4949 50.6117 29.5241 50.5921C29.5533 50.5726 29.5758 50.5445 29.5885 50.5117C29.6012 50.4789 29.6034 50.443 29.595 50.4089C29.5865 50.3747 29.5677 50.3441 29.5412 50.321C30.0113 50.1487 30.4202 49.842 30.7172 49.439C31.2974 48.7305 31.748 47.9251 32.0482 47.06C36.9152 47.891 42.0902 45.512 40.3102 43.133C40.0695 42.8633 39.7737 42.6484 39.4428 42.5028C39.1119 42.3572 38.7537 42.2843 38.3922 42.289C37.2359 42.2197 36.0756 42.2531 34.9252 42.389C33.0582 42.581 30.8842 42.798 29.4382 44.141C27.2792 46.132 27.6202 50.049 27.9032 50.332C27.6299 50.4491 27.4016 50.651 27.252 50.9079C27.1023 51.1649 27.0393 51.4631 27.0723 51.7586C27.1053 52.0541 27.2324 52.3311 27.435 52.5487C27.6376 52.7663 27.9048 52.913 28.1972 52.967C28.1297 54.6758 27.6981 56.3505 26.9312 57.879C26.1512 57.61 25.3712 57.329 24.5902 57.099C21.9302 56.293 19.0652 56.152 16.9422 58.224C15.0362 60.092 14.3322 62.842 14.0642 65.413C13.6095 69.8806 14.0928 74.394 15.4832 78.664C15.8486 80.0191 16.5229 81.2711 17.4532 82.322C17.4854 82.3644 17.5332 82.3923 17.586 82.3995C17.6388 82.4068 17.6923 82.3927 17.7347 82.3605C17.7771 82.3283 17.805 82.2805 17.8123 82.2277C17.8195 82.1749 17.8054 82.1214 17.7732 82.079C17.2612 80.941 16.6092 79.892 16.1732 78.702C14.8767 74.8911 14.3465 70.8615 14.6132 66.845C14.7282 64.108 15.2392 61.076 17.1322 58.953C19.2942 56.536 22.3892 56.983 25.1782 57.904C27.6872 58.749 31.6322 60.249 33.8002 58.525Z" fill="#27272A"/>
<path d="M23.3827 68.6693C23.3704 68.6252 23.3425 68.5871 23.3042 68.5621C23.2659 68.537 23.2198 68.5267 23.1745 68.5331C23.1292 68.5394 23.0877 68.562 23.0578 68.5966C23.0278 68.6312 23.0115 68.6755 23.0117 68.7213C23.1497 70.803 23.5406 72.8601 24.1757 74.8473C24.6557 76.2863 25.7507 78.9793 26.9647 79.9003C27.0917 80.0003 27.2077 79.8103 27.1647 79.7003C26.2527 77.6263 24.7387 77.1443 23.3827 68.6693Z" fill="#27272A"/>
<path d="M37.811 56.2352C37.7626 56.2387 37.7173 56.2604 37.6842 56.2959C37.6512 56.3314 37.6328 56.3781 37.6328 56.4267C37.6328 56.4752 37.6512 56.5219 37.6842 56.5574C37.7173 56.593 37.7626 56.6147 37.811 56.6182C40.131 56.8862 40.321 57.5522 41.211 57.7702C41.244 57.778 41.2786 57.776 41.3105 57.7644C41.3424 57.7528 41.3703 57.7321 41.3906 57.7049C41.4109 57.6777 41.4228 57.6451 41.4248 57.6112C41.4268 57.5774 41.4189 57.5436 41.402 57.5142C40.753 56.4992 38.911 56.1872 37.811 56.2352Z" fill="#27272A"/>
<path d="M51.8 64.9354C50.981 60.3844 49 56.7354 46.774 52.6944C46.7369 52.6365 46.679 52.5949 46.6123 52.5782C46.5456 52.5615 46.475 52.5708 46.415 52.6044C46.39 51.5304 47.375 50.1364 46.428 49.2154C45.699 48.5244 44.944 49.4324 44.828 50.1364C44.803 50.3024 45.046 50.3794 45.097 50.2124C45.148 49.9954 45.468 49.4194 45.685 49.3944C45.8408 49.396 45.9911 49.4518 46.1102 49.5521C46.2294 49.6525 46.3099 49.7911 46.338 49.9444C46.638 51.1114 45.738 51.8374 46.038 52.9244C45.1407 53.6216 44.0517 54.0277 42.917 54.0884C42.738 53.3724 41.958 52.8884 41.617 52.2464C41.434 51.9767 41.365 51.6457 41.425 51.3254C41.63 50.8014 42.218 50.8904 42.625 50.8904C43.862 50.8904 43.485 50.9564 44.058 51.3384C44.081 51.3512 44.1069 51.3578 44.1333 51.3578C44.1596 51.3578 44.1855 51.3511 44.2085 51.3383C44.2316 51.3255 44.2509 51.307 44.2648 51.2846C44.2787 51.2622 44.2867 51.2367 44.288 51.2104C44.314 50.7104 43.815 50.4814 43.367 50.4044C42.645 50.2236 41.8813 50.3244 41.231 50.6864C41.0543 50.8856 40.9397 51.132 40.9011 51.3955C40.8626 51.6589 40.9018 51.9279 41.014 52.1694C41.372 53.0824 42.155 53.6134 42.433 54.1014C42.4001 54.0997 42.3672 54.1048 42.3363 54.1163C42.3054 54.1278 42.2772 54.1454 42.2533 54.1682C42.2295 54.1909 42.2105 54.2182 42.1976 54.2485C42.1846 54.2788 42.1779 54.3114 42.178 54.3444C42.4405 58.1655 43.5082 61.888 45.311 65.2674C45.401 65.4334 45.618 65.2934 45.554 65.1264C44.07 61.7853 43.1108 58.2351 42.71 54.6014C44.0924 54.589 45.4292 54.1058 46.5 53.2314C48.649 57.2474 50.99 61.4814 51.552 66.0734C51.821 68.3114 51.386 70.6654 49.225 71.7904C47.025 72.9544 44.761 72.2124 42.625 71.3434C42.459 70.0514 42.344 68.7594 42.216 67.4544C42.191 67.2374 41.858 67.2754 41.845 67.4804C41.8021 70.5146 42.2205 73.5378 43.086 76.4464C43.272 77.3276 43.5867 78.1767 44.02 78.9664C44.148 79.1584 44.391 78.9664 44.365 78.7874C44.228 77.3944 43.443 76.6874 42.702 71.9444C45.542 73.4534 49.84 73.4024 51.451 70.2174C52.1442 68.5428 52.2668 66.6866 51.8 64.9354Z" fill="#27272A"/>
<path d="M34.179 47.9862C33.9329 48.0821 33.704 48.2172 33.501 48.3862C33.258 48.5272 33.001 48.6422 32.772 48.7862C32.605 48.8752 32.72 49.0932 32.887 49.0672C33.1807 49.0173 33.4625 48.9132 33.718 48.7602C33.9852 48.6586 34.2165 48.4805 34.383 48.2482C34.3999 48.2172 34.4074 48.182 34.4046 48.1468C34.4017 48.1117 34.3886 48.0781 34.367 48.0503C34.3453 48.0224 34.316 48.0015 34.2826 47.9902C34.2492 47.9788 34.2132 47.9774 34.179 47.9862Z" fill="#27272A"/>
<path d="M37.5303 49.1359C37.6193 49.1359 37.7223 49.0459 37.7093 48.9569C37.6833 48.7569 37.5173 48.6239 37.4023 48.4569C37.2873 48.2899 37.1723 48.1239 37.0443 47.9709C36.9163 47.8179 36.7243 47.9839 36.7493 48.1369C36.7983 48.3551 36.8946 48.5599 37.0313 48.7369C37.1593 48.9179 37.3123 49.1229 37.5303 49.1359Z" fill="#27272A"/>
<path d="M34.4996 52.246C34.2056 52.119 34.0526 52.63 34.3596 52.732C34.9096 52.932 35.5876 53.205 35.7916 52.425C35.8647 51.9282 35.8734 51.424 35.8176 50.925C35.8221 50.4215 35.7749 49.9188 35.6766 49.425C35.6256 49.225 35.3566 49.297 35.3316 49.476C35.1396 50.849 35.7216 51.965 35.2246 52.376C35.0186 52.558 34.7456 52.353 34.4996 52.246Z" fill="#27272A"/>
<path d="M33.4491 51.0799C33.5695 51.0799 33.685 51.032 33.7701 50.9469C33.8553 50.8618 33.9031 50.7463 33.9031 50.6259C33.9031 50.5055 33.8553 50.39 33.7701 50.3048C33.685 50.2197 33.5695 50.1719 33.4491 50.1719C33.3287 50.1719 33.2132 50.2197 33.1281 50.3048C33.0429 50.39 32.9951 50.5055 32.9951 50.6259C32.9951 50.7463 33.0429 50.8618 33.1281 50.9469C33.2132 51.032 33.3287 51.0799 33.4491 51.0799Z" fill="#27272A"/>
<path d="M36.8898 51.2224C36.9899 51.2173 37.0843 51.174 37.1534 51.1013C37.2225 51.0286 37.261 50.9322 37.261 50.8319C37.261 50.7316 37.2225 50.6352 37.1534 50.5625C37.0843 50.4898 36.9899 50.4465 36.8898 50.4414C36.7896 50.4465 36.6953 50.4898 36.6262 50.5625C36.5571 50.6352 36.5186 50.7316 36.5186 50.8319C36.5186 50.9322 36.5571 51.0286 36.6262 51.1013C36.6953 51.174 36.7896 51.2173 36.8898 51.2224Z" fill="#27272A"/>
<path d="M32.7197 54.3824C32.8709 54.1938 33.0644 54.0434 33.2845 53.9434C33.5046 53.8433 33.7451 53.7964 33.9867 53.8064C34.6387 53.9474 34.2037 54.6634 34.2677 55.0604C34.2755 55.0856 34.289 55.1087 34.307 55.128C34.3249 55.1473 34.3471 55.1623 34.3716 55.1719C34.3962 55.1815 34.4226 55.1855 34.449 55.1835C34.4753 55.1815 34.5008 55.1736 34.5237 55.1604C35.2147 54.8284 34.8817 53.6384 34.2937 53.3704C33.9417 53.2607 33.5621 53.2811 33.2239 53.428C32.8858 53.5749 32.6117 53.8383 32.4517 54.1704C32.3747 54.3444 32.5917 54.5224 32.7197 54.3824Z" fill="#27272A"/>
<path d="M39.9996 47.9011C39.9762 47.9257 39.9616 47.9572 39.9579 47.9909C39.9543 48.0246 39.9617 48.0586 39.9792 48.0876C39.9967 48.1167 40.0232 48.1392 40.0547 48.1517C40.0862 48.1643 40.1209 48.1661 40.1536 48.1571C41.1766 47.8501 41.2916 49.4871 41.9316 49.9091C41.9495 49.9195 41.9698 49.9251 41.9905 49.9253C42.0112 49.9255 42.0316 49.9203 42.0496 49.9102C42.0677 49.9001 42.0829 49.8855 42.0935 49.8677C42.1042 49.85 42.1101 49.8298 42.1106 49.8091C42.0788 49.481 41.9597 49.1675 41.7656 48.9011C41.627 48.6052 41.4552 48.3261 41.2536 48.0691C41.1869 47.9698 41.0999 47.8858 40.9983 47.8227C40.8967 47.7595 40.7829 47.7187 40.6644 47.7028C40.5459 47.6869 40.4253 47.6964 40.3107 47.7306C40.1961 47.7647 40.09 47.8228 39.9996 47.9011Z" fill="#27272A"/>
<path d="M42.8756 49.8013C42.8292 49.6273 42.843 49.4426 42.9146 49.2773C42.9906 49.0973 43.1316 49.0213 43.2726 48.9063C43.4386 48.7653 43.2596 48.5223 43.0806 48.5733C42.9551 48.623 42.8417 48.699 42.748 48.7962C42.6544 48.8935 42.5828 49.0097 42.5379 49.137C42.4931 49.2643 42.4761 49.3998 42.4881 49.5342C42.5001 49.6687 42.5409 49.799 42.6076 49.9163C42.6241 49.95 42.6529 49.976 42.688 49.989C42.7231 50.002 42.7619 50.001 42.7963 49.9863C42.8307 49.9715 42.8581 49.9441 42.8729 49.9096C42.8877 49.8752 42.8886 49.8364 42.8756 49.8013Z" fill="#27272A"/>
<path d="M44.0002 49.9552C44.0102 49.6798 44.0709 49.4086 44.1792 49.1552C44.2942 48.9552 44.5122 48.9372 44.6652 48.7712C44.8792 48.5562 44.3382 48.1562 43.8592 48.8352C43.6689 49.173 43.6011 49.5662 43.6672 49.9482C43.6695 49.9903 43.6876 50.03 43.7178 50.0593C43.7481 50.0886 43.7883 50.1054 43.8305 50.1063C43.8726 50.1072 43.9135 50.0921 43.945 50.0641C43.9765 50.0361 43.9962 49.9972 44.0002 49.9552Z" fill="#27272A"/>
<path d="M19.1112 135.627C19.0852 135.244 18.4712 135.227 18.4972 135.627C18.6142 137.065 19.7222 138.354 19.1242 139.337C18.5612 140.258 17.0902 140.002 16.1822 140.015C13.0312 140.063 9.92618 141.615 6.87018 141.434C6.43518 141.409 5.91118 141.409 5.71918 140.923C5.67311 140.763 5.66651 140.595 5.69996 140.432C5.73341 140.27 5.80589 140.117 5.91118 139.989C6.55018 139.081 8.02118 138.71 8.99318 138.249C11.0932 137.249 13.0102 134.681 15.5552 135.64C15.8362 135.74 15.9552 135.346 15.7472 135.193C13.8162 133.747 11.5522 135.947 10.0472 136.958C8.01918 138.31 5.16218 138.724 5.08418 140.565C4.95118 143.495 11.0262 141.416 13.7952 140.885C16.6062 140.328 18.9762 141.141 19.7302 139.439C20.3132 138.147 19.2002 136.899 19.1112 135.627Z" fill="#27272A"/>
<path d="M12.6775 132.624C14.7398 132.502 16.8091 132.657 18.8305 133.084C18.92 133.103 19.0136 133.089 19.0935 133.045C19.1735 133 19.2343 132.927 19.2645 132.841C19.4185 132.457 19.5715 132.061 19.7255 131.664C18.5745 124.949 15.8375 107.183 15.5255 105.047C13.9604 114.059 12.8885 123.149 12.3145 132.278C12.3195 132.371 12.3599 132.459 12.4274 132.523C12.4948 132.587 12.5843 132.623 12.6775 132.624Z" fill="#27272A"/>
<path d="M171.411 111.158C170.6 108.931 169.175 106.978 167.301 105.527C165.426 104.076 163.179 103.185 160.82 102.958C165.464 97.5094 170.171 90.8834 167.945 83.4004C167.928 83.343 167.897 83.291 167.854 83.2492C167.811 83.2075 167.758 83.1775 167.7 83.1621C167.642 83.1467 167.582 83.1465 167.524 83.1614C167.466 83.1764 167.413 83.206 167.37 83.2474C167.236 83.3604 164.893 85.3774 164.862 85.4084C164.606 85.6774 164.683 85.8564 164.734 86.2154C164.93 88.0156 164.863 89.8347 164.534 91.6154C163.834 95.5994 161.965 98.2154 158.996 101.323C156.335 98.5994 153.316 95.8884 152.255 92.1144C151.748 90.4069 151.661 88.6021 152.001 86.8538C152.342 85.1055 153.1 83.4655 154.212 82.0734C154.583 82.0094 154.57 81.4084 154.174 81.4344C150.515 81.6644 148.238 85.3484 148.315 88.7634C148.415 92.9334 151.078 96.9244 153.763 99.9554C154.782 101.105 155.913 102.151 157.14 103.075C154.152 103.626 151.474 105.262 149.62 107.668C146.935 111.085 145.681 116.84 148.034 120.599C148.075 120.668 148.132 120.725 148.2 120.766C151.257 127.239 159.277 129.506 165.34 126.509C170.81 123.821 173.367 116.851 171.411 111.158ZM162.017 122.439C159.761 124.995 155.357 123.139 155.544 115.629C155.585 113.788 156.189 109.951 158.185 108.611C158.809 108.179 159.57 107.991 160.323 108.083C161.076 108.175 161.77 108.541 162.271 109.111C164.626 111.682 164.3 119.889 162.017 122.439Z" fill="#27272A"/>
<path d="M161.333 110.171C160.259 108.885 159.098 109.381 158.233 110.828C157.499 112.13 157.051 113.574 156.92 115.063C156.789 116.552 156.978 118.051 157.473 119.462C158.546 122.815 160.473 122.726 161.438 120.796C162.363 118.497 162.694 116.002 162.399 113.542C162.362 112.341 161.993 111.174 161.333 110.171Z" fill="#27272A"/>
<path d="M185.942 98.5C182.852 99.358 181.382 99.656 168.725 102.478C169.866 92.716 169.982 92.218 170.004 90.441C170.002 90.4006 169.99 90.3613 169.97 90.326C169.95 90.2907 169.923 90.2603 169.89 90.2369C169.857 90.2136 169.819 90.198 169.779 90.1913C169.739 90.1845 169.698 90.1868 169.659 90.198C169.54 90.8286 169.387 91.4522 169.199 92.066C169.071 92.932 167.96 102.096 167.894 102.666C167.254 102.807 166.627 102.948 165.988 103.076C166.88 103.508 167.717 104.045 168.482 104.676C168.533 104.241 168.582 103.793 168.636 103.358C178.1 101.237 180.746 100.793 186.159 99.214C186.245 99.1782 186.315 99.1118 186.354 99.0277C186.394 98.9436 186.401 98.8478 186.374 98.7588C186.347 98.6699 186.288 98.5941 186.208 98.5463C186.128 98.4985 186.033 98.4819 185.942 98.5Z" fill="#DBEAFE"/>
<path d="M181.426 124.757C178.947 125.2 176.515 125.883 174.072 126.484C171.629 127.085 166.014 128.484 165.655 128.569C165.681 128.352 165.707 128.134 165.732 127.904C165.438 128.044 165.132 128.172 164.832 128.288C164.806 128.454 164.793 128.62 164.768 128.788C160.534 129.837 147.014 133.176 144.482 133.802C144.712 132.152 145.901 123.045 146.26 120.154C145.976 119.479 145.77 118.775 145.646 118.054C145.019 123.387 144.332 128.712 143.586 134.03C136.641 135.743 122.264 139.299 122.021 139.363C122.213 137.445 123.901 119.781 124.515 112.863C128.391 112.019 143.215 108.821 146.758 108.063C146.669 108.844 146.592 109.624 146.503 110.404C146.991 109.125 147.668 107.926 148.511 106.848C148.242 106.899 147.986 106.963 147.718 107.014C148.097 103.228 148.53 99.3137 148.754 95.3227C148.562 94.9527 148.383 94.5817 148.217 94.2227C147.888 96.7467 147.84 97.4227 146.835 107.206C143.983 107.82 129.145 111.006 124.579 112.016C124.608 111.524 125.379 103.931 125.59 98.5597C125.602 98.2527 125.155 98.2597 125.129 98.5597C124.541 103.088 124.129 107.641 123.735 112.207C120.897 112.818 110.04 115.234 107.67 116.121C107.606 116.143 107.554 116.188 107.522 116.248C107.491 116.308 107.483 116.377 107.501 116.442C107.519 116.507 107.56 116.563 107.618 116.598C107.675 116.634 107.744 116.646 107.81 116.633C111.558 115.827 122.11 113.384 123.658 113.052C123.428 115.699 121.791 133.389 121.177 139.593C116.177 140.808 111.136 141.946 106.211 143.404C106.133 143.43 106.067 143.485 106.027 143.558C105.988 143.631 105.978 143.716 105.999 143.796C106.021 143.876 106.072 143.945 106.142 143.988C106.213 144.032 106.297 144.047 106.378 144.031C111.315 143.046 116.188 141.703 121.078 140.501H121.091C120.991 141.46 119.953 151.526 119.851 152.55C119.659 153.651 119.582 154.77 119.62 155.888C119.623 155.954 119.648 156.017 119.693 156.066C119.737 156.116 119.797 156.148 119.863 156.157C119.929 156.166 119.995 156.152 120.051 156.117C120.108 156.081 120.15 156.028 120.17 155.965C120.4 155.125 120.534 154.263 120.57 153.394C120.67 152.422 121.759 141.844 121.913 140.309C126.513 139.17 140.869 135.627 143.44 134.988C142.553 141.533 141.274 149.232 141.073 151.117C141.075 151.205 141.109 151.291 141.168 151.357C141.227 151.423 141.307 151.466 141.395 151.478C141.483 151.49 141.573 151.471 141.648 151.423C141.722 151.375 141.778 151.302 141.803 151.217C142.447 148.273 142.775 145.844 144.322 134.769L164.622 129.742C163.497 139.142 163.095 141.494 162.793 145.5C162.768 145.922 163.471 146.024 163.548 145.6C164.124 142.07 164.448 138.489 164.865 134.933C165.083 133.133 165.3 131.313 165.505 129.509C177.746 126.449 178.705 126.364 181.57 125.442C181.651 125.413 181.719 125.356 181.761 125.282C181.803 125.207 181.816 125.12 181.799 125.036C181.781 124.952 181.733 124.878 181.665 124.826C181.596 124.775 181.512 124.75 181.426 124.757Z" fill="#DBEAFE"/>
<path d="M194.806 80.1306C194.818 80.0256 194.788 79.9203 194.724 79.8368C194.659 79.7533 194.565 79.698 194.46 79.6826C193.381 79.5776 173.638 77.2396 173.535 77.2266C171.846 78.9156 170.222 80.4886 168.572 82.0496C168.915 82.2762 169.168 82.6153 169.288 83.0086C169.456 83.5719 169.593 84.1441 169.697 84.7226C174.085 83.9806 190.497 81.1536 194.281 80.4116C194.314 80.402 194.347 80.3979 194.381 80.3996C192.881 88.5996 191.541 96.8226 189.981 105.009C188.254 114.065 182.281 142.755 182.025 144.686C181.925 144.72 102.499 166.686 100.944 167.086C100.909 167.052 27.5162 151.716 25.2992 151.545C25.2992 151.371 21.3092 129.482 20.6682 125.618C19.2492 117.048 15.5262 90.1486 14.7212 85.3266C14.6702 85.0326 14.1712 85.0966 14.1962 85.4036C15.3462 99.9256 23.9742 151.259 24.6342 151.916C24.6486 151.954 24.6725 151.989 24.7039 152.016C24.7352 152.043 24.7728 152.061 24.8132 152.07C28.4072 152.837 95.7762 167.112 99.7132 167.649C99.9942 167.687 100.288 167.649 100.557 167.675C100.757 167.875 101.106 167.702 103.435 167.086C105.469 166.549 182.316 145.406 182.405 145.38C182.451 145.372 182.495 145.355 182.534 145.328C182.572 145.302 182.604 145.267 182.628 145.227C182.651 145.186 182.665 145.141 182.668 145.094C182.672 145.048 182.665 145.001 182.648 144.958C183.675 141.57 192.134 98.1116 192.971 93.3576C193.725 89.0466 194.471 84.7236 194.915 80.3746C194.926 80.3276 194.921 80.2783 194.902 80.2342C194.882 80.1902 194.849 80.1538 194.806 80.1306Z" fill="#DBEAFE"/>
<path d="M119.11 70.7796C119.075 71.1386 117.915 80.2616 117.268 86.9086C117.186 88.8701 116.968 90.8234 116.615 92.7546C116.539 93.0866 116.078 92.9846 116.053 92.6776C116.032 90.6525 116.177 88.629 116.487 86.6276C116.693 84.5146 117.927 73.2146 118.342 70.8176C117.036 71.0446 92.342 74.0986 88.297 74.5916C91.033 72.1846 120.063 43.6506 121.374 42.4916C121.433 42.2376 121.627 41.2616 121.668 41.0586C120.199 42.3016 111.793 50.5796 96.291 65.7196C93.259 68.6736 90.091 71.5646 87.261 74.7196C84.229 75.0906 81.082 75.4746 77.987 75.8586C85.048 69.4586 91.967 62.9266 98.9 56.3906L98.683 55.4056C92.53 61.1356 78.038 74.9006 76.9 76.0006C66.616 77.2666 43.8 80.0546 38.758 80.6556C38.9562 81.3491 39.0297 82.0724 38.975 82.7916C38.9404 82.9728 38.8629 83.1431 38.7489 83.2881C38.6349 83.4332 38.4878 83.5488 38.32 83.6253C38.1521 83.7018 37.9683 83.737 37.7841 83.7278C37.5998 83.7186 37.4204 83.6654 37.261 83.5726C37.142 83.6886 36.9988 83.7768 36.8416 83.8308C36.6845 83.8848 36.5173 83.9033 36.3521 83.885C36.1869 83.8666 36.0279 83.8118 35.8864 83.7246C35.745 83.6374 35.6246 83.5199 35.534 83.3806C35.509 83.3416 35.496 83.3166 35.47 83.2806C35.2709 83.3589 35.0531 83.3766 34.844 83.3316C34.8055 83.3983 34.7628 83.4624 34.716 83.5236C34.6094 83.6469 34.4779 83.7462 34.3302 83.8152C34.1826 83.8841 34.022 83.921 33.859 83.9236C32.814 83.9236 32.366 82.5346 32.081 82.1076C31.9453 82.2639 31.7709 82.3818 31.5753 82.4496C31.3797 82.5173 31.1698 82.5325 30.9665 82.4936C30.7632 82.4547 30.5736 82.3631 30.4168 82.228C30.26 82.0929 30.1415 81.9189 30.073 81.7236C29.515 81.7856 15.514 83.4876 14.749 83.5526C14.404 83.5826 14.391 84.1286 14.749 84.1026L15.709 84.0256C15.814 84.0426 102.996 97.0726 104.272 96.8806C104.106 104.991 103.633 113.1 103.172 121.181C101.522 150.427 100.396 161.339 100.409 165.949C100.409 166.256 100.921 166.358 100.972 166.025C101.847 160.208 104.489 113.641 104.72 107.776C104.861 104.118 105.001 100.447 104.95 96.7756C105.062 96.7576 145.626 89.2996 146.904 89.0626C146.904 88.9726 146.891 88.8836 146.891 88.7936C146.802 84.8036 149.513 80.3266 154.054 80.0326H154.169C154.432 80.033 154.691 80.0944 154.927 80.2121C155.162 80.3297 155.367 80.5004 155.525 80.7106C157.277 78.9706 158.953 77.2949 160.552 75.6836C114.541 70.3436 120.049 70.7566 119.11 70.7796Z" fill="#DBEAFE"/>
</svg>
